<?xml version="1.0" encoding="utf-8"?>
<!-- Generator: Adobe Illustrator 22.0.1, SVG Export Plug-In . SVG Version: 6.00 Build 0)  -->
<svg version="1.1" id="Capa_1" xmlns="http://www.w3.org/2000/svg" xmlns:xlink="http://www.w3.org/1999/xlink" x="0px" y="0px"
	 viewBox="0 0 512.6 512.6" style="enable-background:new 0 0 512.6 512.6;" xml:space="preserve">
<style type="text/css">
	.st0{fill:#8AD8F8;}
	.st1{fill:#55C0EB;}
	.st2{fill:#383938;}
	.st3{fill:#464646;}
	.st4{fill:#F89E62;}
	.st5{fill:#525252;}
	.st6{fill:#FDBC4B;}
</style>
<path class="st0" d="M443.5,193.1c4-12.5,6.3-25.8,6.3-39.6C449.7,82.4,392.1,24.8,321,24.8c-43.2,0-81.3,21.3-104.7,53.9
	c-11.6-3.8-23.6-6.3-36.4-6.3C115,72.4,62.6,125,62.6,189.7c0,1.8,0.5,3.4,0.5,5.2C26.7,207.3,0,241.5,0,282.1
	c0,51,41.4,92.4,92.4,92.4h327.9c51,0,92.4-41.4,92.4-92.4C512.6,239.3,483.1,203.5,443.5,193.1z"/>
<path class="st1" d="M324.5,34c6.5-0.3,13.3,0.2,22.5,2c25.7,5.1,49.3,17,63.6,25.1c-10.3-9.7-30.4-25.7-59.5-32.7
	c-15.3-3.7-28.4-3.7-35.7-3.4c-20.9,0.9-36.5,6.8-42.7,9.3c-30.1,12.4-47.6,34.2-55.1,45.1c-8.1-2.6-50.9-15.7-94.1,7.6
	c-0.9,0.5-2.4,1.3-4.2,2.4c-2.7,1.6-46.2,28.4-54.9,80.8c-0.9,5.5-1.9,14-1.3,24.7c-6,2-36.9,13.1-53.4,46.4
	c-1.6,3.3-17.8,37.2-3.2,74.7c1.4,3.6,7.2,17.9,20.2,31c36.8,37.1,95.1,28.9,103.8,27.5c-3.6,0.2-60.4,2.2-89.8-41.5
	c-25.4-37.6-17.9-89.5,9.2-117.1c8.7-8.9,18.3-14.1,25.7-17.2c6.1,0.3,13.7,1.2,22.3,3.6c8.2,2.3,15,5.3,20.2,8
	c-3.2-2.9-7.5-6.3-13-9.3c-4.4-2.4-8.4-4.1-11.9-5.2c0-3.3,0.2-7.6,0.9-12.7c6.3-44.2,47.6-96.2,101.4-97.9
	c34.8-1.1,60.6,18.6,69.6,26.3c-3.8-4.4-8.7-9.4-15-14.4c-5.1-4-10-7.1-14.3-9.6c7.5-9.6,27.1-32.5,55.3-44.9
	C297.8,39.5,309.1,34.7,324.5,34z"/>
<g>
	<rect x="115.1" y="264" class="st2" width="284.4" height="176.3"/>
	<path class="st3" d="M422.1,370H92.6c-8.8,0-16,7.2-16,16v66c0,8.8,7.2,16,16,16h329.5c8.8,0,16-7.2,16-16v-66
		C438.1,377.1,430.9,370,422.1,370z"/>
	<path class="st3" d="M422.1,245H92.6c-8.8,0-16,7.2-16,16v66c0,8.8,7.2,16,16,16h329.5c8.8,0,16-7.2,16-16v-66
		C438.1,252.2,430.9,245,422.1,245z"/>
	<path class="st4" d="M384.3,313.5h-84.9c-10.4,0-18.8-8.4-18.8-18.8v-1.4c0-10.4,8.4-18.8,18.8-18.8h84.9
		c10.4,0,18.8,8.4,18.8,18.8v1.4C403.1,305.1,394.7,313.5,384.3,313.5z"/>
	<path class="st4" d="M384.3,438.4h-84.9c-10.4,0-18.8-8.4-18.8-18.8v-1.4c0-10.4,8.4-18.8,18.8-18.8h84.9
		c10.4,0,18.8,8.4,18.8,18.8v1.4C403.1,430,394.7,438.4,384.3,438.4z"/>
	<path class="st5" d="M250.4,327.1c-0.4,9.2-8.7,16-17.8,16h-140c-8.8,0-16-7.2-16-16v-66c0-8.8,7.2-16,16-16h112.7
		c9.7,0,17.4,8,17,17.8c-0.5,9.1-8.7,16-17.9,16h-14c-8,0-14.1,6.9-14.1,15.1c0,0.1,0,0.1,0,0.3v0.1c0,8.2,6.1,15.1,14.1,15.1h43.2
		C243.3,309.3,250.9,317.3,250.4,327.1z"/>
	<path class="st5" d="M250.4,452c-0.4,9.2-8.7,16-17.8,16h-140c-8.8,0-16-7.2-16-16v-66c0-8.8,7.2-16,16-16h112.7
		c9.7,0,17.4,8,17,17.8c-0.5,9.1-8.7,16-17.9,16h-14c-8,0-14.1,6.9-14.1,15.1c0,0.1,0,0.1,0,0.3v0.1c0,8.2,6.1,15.1,14.1,15.1h43.2
		C243.3,434.2,250.9,442.3,250.4,452z"/>
	<path class="st6" d="M131.8,438.4h-1.4c-10.4,0-18.8-8.4-18.8-18.8v-1.4c0-10.4,8.4-18.8,18.8-18.8h1.4c10.4,0,18.8,8.4,18.8,18.8
		v1.4C150.5,430,142.1,438.4,131.8,438.4z"/>
	<path class="st6" d="M131.7,313.5h-1.4c-10.4,0-18.8-8.4-18.8-18.8v-1.4c0-10.4,8.4-18.8,18.8-18.8h1.4c10.4,0,18.8,8.4,18.8,18.8
		v1.4C150.5,305.1,142.1,313.5,131.7,313.5z"/>
</g>
</svg>
