<?xml version="1.0" encoding="utf-8"?>
<!-- Generator: Adobe Illustrator 22.0.1, SVG Export Plug-In . SVG Version: 6.00 Build 0)  -->
<svg version="1.1" id="Capa_1" xmlns="http://www.w3.org/2000/svg" xmlns:xlink="http://www.w3.org/1999/xlink" x="0px" y="0px"
	 viewBox="0 0 509.3 509.3" style="enable-background:new 0 0 509.3 509.3;" xml:space="preserve">
<style type="text/css">
	.st0{fill:#383938;}
	.st1{fill:#CACACA;}
	.st2{fill:#ECEFF1;}
	.st3{opacity:0.15;}
	.st4{fill:#FFFFFF;}
	.st5{opacity:0.75;}
	.st6{fill:#50BE96;}
	.st7{fill:#EFA437;}
	.st8{fill:#E95454;}
	.st9{fill:#464646;}
	.st10{fill:#6F7070;}
	.st11{fill:#808080;}
	.st12{fill:#010101;}
	.st13{fill:#F7B142;}
	.st14{fill:#EA9228;}
	.st15{fill:#02C54C;}
	.st16{fill:#525252;}
	.st17{fill:#FDBC4B;}
</style>
<rect x="109.9" y="365" class="st0" width="284.4" height="84"/>
<g>
	<path class="st1" d="M308.9,192V26.9h-52.5c-8.1,0-14.6,8.2-14.6,18.2v235.3c0,10.1,6.5,18.2,14.6,18.2h147
		c8.1,0,14.6-8.1,14.6-18.2V192H308.9z"/>
	<path class="st2" d="M382.2,7.4H272.1c-8.1,0-14.6,8.1-14.6,18.2v235.3c0,10,6.5,18.2,14.6,18.2h147c8.1,0,14.6-8.2,14.6-18.2V71.6
		L382.2,7.4z"/>
	<path class="st1" d="M382.2,46.7c0.3,2.4,1.5,6.2,4.3,10.3c0,0,2.6,3.8,7,7c10.9,7.9,31.9,7.8,33.5,7.8c2.2,0,4.5-0.1,6.7-0.1
		c-17.2-21.4-34.3-42.8-51.5-64.2C381.8,12.6,380.5,32.2,382.2,46.7z"/>
	<g class="st3">
		<path class="st4" d="M389.8,36.6c-3,2.6-3.3,7.2-0.7,10.3l10,11.5c2.6,3,7.3,3.3,10.3,0.7s3.3-7.2,0.7-10.3l-10-11.5
			C397.4,34.2,392.8,33.9,389.8,36.6z"/>
	</g>
	<g class="st5">
		<path class="st1" d="M360,39.7c0-4-2.8-7.3-6.3-7.3h-74c-3.5,0-6.3,3.3-6.3,7.3s2.8,7.3,6.3,7.3h74C357.2,47,360,43.7,360,39.7z"
			/>
	</g>
	<g class="st5">
		<path class="st1" d="M373.7,73.3c0-4-3.3-7.3-7.3-7.3h-85.7c-4,0-7.3,3.3-7.3,7.3s3.3,7.3,7.3,7.3h85.7
			C370.4,80.6,373.7,77.3,373.7,73.3z"/>
	</g>
	<g class="st5">
		<path class="st1" d="M404.3,222.5c0-4-2.8-7.3-6.3-7.3h-74c-3.5,0-6.3,3.3-6.3,7.3s2.8,7.3,6.3,7.3h74
			C401.5,229.8,404.3,226.5,404.3,222.5z"/>
	</g>
	<g class="st5">
		<path class="st1" d="M418,256.1c0-4-3.3-7.3-7.3-7.3H325c-4,0-7.3,3.3-7.3,7.3s3.3,7.3,7.3,7.3h85.7
			C414.7,263.4,418,260.1,418,256.1z"/>
	</g>
</g>
<g>
	<path class="st6" d="M318,129.1c-2.6-3.5-7.1-3.9-10.1-0.9l-20.9,20.4c-1.6,1.6-2.5,3.9-2.5,6.3c0,2.4,0.9,4.7,2.5,6.3l20.9,20.4
		c3,2.9,7.6,2.5,10.1-1c2.6-3.5,2.2-8.7-0.8-11.6l-14.4-14.1l14.4-14.1C320.1,137.8,320.5,132.6,318,129.1z"/>
	<path class="st6" d="M404.3,148.5l-20.9-20.4c-3-3-7.6-2.5-10.1,0.9c-2.6,3.5-2.2,8.7,0.8,11.6l14.4,14.1l-14.4,14.1
		c-3,2.9-3.4,8.2-0.8,11.6c2.6,3.5,7.1,3.9,10.1,1l20.9-20.4c1.6-1.6,2.5-3.9,2.5-6.3C406.8,152.4,405.9,150.1,404.3,148.5z"/>
	<path class="st6" d="M365.8,111.2c-3.5-2.2-7.9-0.6-9.7,3.4l-33.7,72.7c-1.9,4-0.5,9,3,11.1c3.5,2.1,7.8,0.7,9.7-3.4l33.7-72.7
		C370.7,118.4,369.3,113.4,365.8,111.2z"/>
</g>
<g>
	<path class="st7" d="M258.7,112.9H215v37.7h-85.9v-37.7H80.9c-4.3,0-7.8,3.5-7.8,7.8v157.4c0,4.3,3.5,7.8,7.8,7.8h177.9
		c4.3,0,7.8-3.5,7.8-7.8V120.7C266.6,116.4,263.2,112.9,258.7,112.9z"/>
	<g>
		<path class="st7" d="M129.3,112.9H80.5c-4.8,0-9.3,2.2-12.2,5.9l-22.4,27.8c-1.1,1.3-1.7,3.2-1.7,4.9v30.7
			c0,7.5,9.3,10.8,13.9,4.9L73,168.6v-25l56.3,0.4V112.9L129.3,112.9z"/>
		<path class="st7" d="M293.7,146.5l-22.4-27.8c-2.9-3.7-7.5-5.9-12.2-5.9h-44v31.6l51.5,0.4v23.7l14.9,18.5
			c4.6,5.7,13.9,2.4,13.9-4.9v-30.7C295.6,149.6,295,147.9,293.7,146.5z"/>
	</g>
	<path class="st8" d="M258.7,112.9H215v37.7h-85.9v-37.7H80.9c-4.3,0-7.8,3.5-7.8,7.8v61.4h193.5v-61.4
		C266.6,116.4,263.2,112.9,258.7,112.9z"/>
	<g>
		<polygon class="st9" points="106.3,260.1 96.8,250.5 87.3,260.1 93,260.1 93,275.9 100.6,275.9 100.6,260.1 		"/>
		<polygon class="st9" points="127.7,260.1 118.2,250.5 108.5,260.1 114.4,260.1 114.4,275.9 122,275.9 122,260.1 		"/>
	</g>
	<path class="st10" d="M247,124.6v-23.4l-18.6-5.5c-1.2-4.3-2.9-8.2-5-12.1l9.3-17l-16.5-16.5l-17,9.3c-3.8-2.1-7.8-3.7-12.1-5
		l-5.5-18.6h-23.5l-5.5,18.6c-4.2,1.2-8.2,2.9-12.1,5l-17-9.3L107,66.6l9.3,17c-2.1,3.8-3.7,7.8-5,12.1l-18.6,5.5v23.4l18.6,5.5
		c1.2,4.3,2.9,8.3,5,12.1l-9.3,17l16.5,16.6l17-9.3c3.8,2.1,7.8,3.8,12.1,5l5.5,18.7h23.5l5.5-18.7c4.2-1.2,8.2-2.9,12.1-5l17,9.3
		l16.5-16.6l-9.3-17c2.1-3.8,3.7-7.8,5-12.1L247,124.6z M169.8,143.6c-17,0-30.7-13.7-30.7-30.7s13.7-30.7,30.7-30.7
		s30.7,13.7,30.7,30.7S186.8,143.6,169.8,143.6z"/>
	<path class="st11" d="M153.8,156.8c-19-6.4-31.7-24.1-31.7-44c0-25.7,20.9-46.5,46.5-46.5c11.1,0,22,4,30.5,11.4
		c1.7,1.5,2,4.2,0.4,5.9c-1.5,1.7-4.2,2-5.9,0.4c-7-6-15.8-9.3-25-9.3c-21,0-38.2,17.1-38.2,38.2c0,16.4,10.4,30.9,25.9,36.2
		c2.2,0.7,3.3,3.1,2.6,5.3C158.3,156.3,156,157.5,153.8,156.8z"/>
	<g class="st3">
		<rect x="73.1" y="197.5" class="st12" width="193.5" height="25.4"/>
	</g>
	<path class="st13" d="M65.1,217.7h209.5c5.4,0,9.2-5.3,7.5-10.4L266.7,162H73.1l-15.4,45.3C55.9,212.4,59.7,217.7,65.1,217.7z"/>
	<path class="st14" d="M181.7,167.9c0,3.2-2.6,5.9-5.9,5.9H168c-2.7,0-4.9,2.2-4.9,4.9v0.1c0,0.1,0,0.2,0,0.4
		c-0.1,2.7,2,4.9,4.6,4.9h13.1c3.2,0,6,2.3,6.1,5.5c0.1,3.3-2.4,6.1-5.9,6.1h-5.9c-2.7,0-4.9,2.2-4.9,4.9v0.4v0.1
		c0,2.8,2.3,5.1,5.1,5.1h1.2c3.2,0,6,2.3,6.1,5.5c0.1,3.3-2.3,5.9-5.5,6.1h-112c-5.4,0-9.2-5.3-7.5-10.4L73,162.1h102.7
		C179.1,162,181.7,164.7,181.7,167.9z"/>
</g>
<path class="st9" d="M416.8,296.5H87.3c-8.8,0-16,7.2-16,16v66c0,8.8,7.2,16,16,16h329.5c8.8,0,16-7.2,16-16v-66
	C432.8,303.6,425.6,296.5,416.8,296.5z"/>
<path class="st15" d="M379,365h-84.9c-10.4,0-18.8-8.4-18.8-18.8v-1.4c0-10.4,8.4-18.8,18.8-18.8H379c10.4,0,18.8,8.4,18.8,18.8v1.4
	C397.8,356.5,389.4,365,379,365z"/>
<path class="st16" d="M245.1,378.5c-0.4,9.2-8.7,16-17.8,16h-140c-8.8,0-16-7.2-16-16v-66c0-8.8,7.2-16,16-16H200
	c9.7,0,17.4,8,17,17.8c-0.5,9.1-8.7,16-17.9,16h-14c-8,0-14.1,6.9-14.1,15.1c0,0.1,0,0.1,0,0.3v0.1c0,8.2,6.1,15.1,14.1,15.1h43.2
	C238,360.8,245.6,368.8,245.1,378.5z"/>
<path class="st17" d="M126.4,365H125c-10.4,0-18.8-8.4-18.8-18.8v-1.4c0-10.4,8.4-18.8,18.8-18.8h1.4c10.4,0,18.8,8.4,18.8,18.8v1.4
	C145.2,356.5,136.8,365,126.4,365z"/>
<path class="st9" d="M414.9,411.4H85.4c-8.8,0-16,7.2-16,16v66c0,8.8,7.2,16,16,16h329.5c8.8,0,16-7.2,16-16v-66
	C430.9,418.5,423.7,411.4,414.9,411.4z"/>
<path class="st15" d="M377.1,479.9h-84.9c-10.4,0-18.8-8.4-18.8-18.8v-1.4c0-10.4,8.4-18.8,18.8-18.8h84.9
	c10.4,0,18.8,8.4,18.8,18.8v1.4C395.9,471.4,387.5,479.9,377.1,479.9z"/>
<path class="st16" d="M243.2,493.4c-0.4,9.2-8.7,16-17.8,16h-140c-8.8,0-16-7.2-16-16v-66c0-8.8,7.2-16,16-16h112.7
	c9.7,0,17.4,8,17,17.8c-0.5,9.1-8.7,16-17.9,16h-14c-8,0-14.1,6.9-14.1,15.1c0,0.1,0,0.1,0,0.3v0.1c0,8.2,6.1,15.1,14.1,15.1h43.2
	C236.1,475.7,243.7,483.7,243.2,493.4z"/>
<path class="st17" d="M124.5,479.9h-1.4c-10.4,0-18.8-8.4-18.8-18.8v-1.4c0-10.4,8.4-18.8,18.8-18.8h1.4c10.4,0,18.8,8.4,18.8,18.8
	v1.4C143.3,471.4,134.9,479.9,124.5,479.9z"/>
</svg>
