<?xml version="1.0" encoding="utf-8"?>
<!-- Generator: Adobe Illustrator 22.0.1, SVG Export Plug-In . SVG Version: 6.00 Build 0)  -->
<svg version="1.1" id="Capa_1" xmlns="http://www.w3.org/2000/svg" xmlns:xlink="http://www.w3.org/1999/xlink" x="0px" y="0px"
	 viewBox="0 0 509.1 509.1" style="enable-background:new 0 0 509.1 509.1;" xml:space="preserve">
<style type="text/css">
	.st0{fill:#FDBC4B;}
	.st1{fill:#EC9922;}
	.st2{opacity:0.25;}
	.st3{fill:#FFFFFF;}
	.st4{fill:#E48D25;}
	.st5{fill:#FFB954;}
	.st6{fill:#FEA02C;}
	.st7{fill:#FEDA9B;}
	.st8{fill:#383938;}
	.st9{fill:#464646;}
	.st10{fill:#525252;}
	.st11{fill:#FEE218;}
	.st12{fill:#F89E62;}
</style>
<circle class="st0" cx="246.2" cy="248.9" r="223.9"/>
<circle class="st1" cx="246.2" cy="248.9" r="161.8"/>
<g class="st2">
	<path class="st3" d="M155.3,438.5C82.8,403.7,36,329.3,36,248.9C36,133,130.3,38.7,246.2,38.7c51.8,0,101.6,19,140.2,53.6
		c6.7,6,7.3,16.3,1.3,23s-16.3,7.3-23,1.3C332.1,87.3,290,71.2,246.2,71.2c-98,0-177.7,79.7-177.7,177.7
		c0,68,39.6,130.9,100.9,160.3c8.1,3.9,11.5,13.6,7.6,21.7C173.1,439.1,163.4,442.4,155.3,438.5z"/>
</g>
<path class="st4" d="M84.4,248.9c0,68.1,42.1,126.3,101.7,150.2H202c12.4,0,22.5-10.1,22.5-22.5s-10.1-22.5-22.5-22.5h-30.1
	c-10.4,0-18.9-8.5-18.8-18.9V335c0-0.5,0-0.9,0-1.4c-0.6-10.2,7.5-18.9,17.8-18.9h39.8c12.2,0,23.1-9.1,23.7-21.3
	c0.7-13-9.6-23.7-22.4-23.7h-12.3c-10.5,0-18.9-8.5-18.9-19v-1.3v-0.3c-0.1-11,8.9-20,19.9-20h15.9c12.2,0,23.1-9.1,23.7-21.3
	c0.7-13-9.6-23.7-22.4-23.7h-57.5c-10.9,0-19-9.1-18.8-20c0-0.1,0-0.2,0-0.3s0-0.2,0-0.3c-0.1-10.9,8-20,18.8-20H179
	c12.2,0,23.1-9.1,23.7-21.3c0.6-11.4-7.3-21-17.9-23.2C125.9,123.4,84.4,181.3,84.4,248.9z"/>
<path class="st3" d="M236.1,322v-60.7c-18.9-5.4-32.8-13.6-41.6-24.5s-13.2-24.3-13.2-39.9c0-15.8,5-29.1,15-39.9
	c10-10.8,23.3-17,39.9-18.6v-14.3h21v14.3c15.3,1.8,27.6,7.1,36.6,15.7c9.1,8.6,14.9,20.2,17.4,34.7l-36.6,4.8
	c-2.2-11.4-8-19.1-17.4-23.2V227c23.2,6.3,38.9,14.4,47.3,24.4s12.6,22.8,12.6,38.4c0,17.5-5.3,32.2-15.8,44.1
	c-10.6,12-25.3,19.3-44.1,22v17.7h-21v-17c-16.7-2-30.3-8.2-40.7-18.7c-10.4-10.4-17.1-25.1-20-44.1l37.8-4c1.5,7.7,4.4,14.4,8.7,20
	C226.1,315.4,230.9,319.5,236.1,322z M236.1,170c-5.7,1.9-10.2,5.2-13.6,9.8c-3.4,4.6-5.1,9.7-5.1,15.3c0,5.1,1.5,9.9,4.6,14.3
	c3.1,4.4,7.8,7.9,14,10.6v-50L236.1,170L236.1,170z M257.1,324c7.2-1.3,13.1-4.7,17.7-10.1s6.8-11.6,6.8-18.9c0-6.5-1.9-12-5.7-16.7
	c-3.8-4.7-10.1-8.3-18.7-10.8L257.1,324L257.1,324z"/>
<g>
	<g>
		<path class="st5" d="M46.2,237.4H170c9.8,0,18.1,8.3,18.1,18.1l0,0c0,9.8-8.3,18.1-18.1,18.1H46.2c-9.8,0-18.1-8.3-18.1-18.1l0,0
			C27.3,244.9,35.6,237.4,46.2,237.4z"/>
		<path class="st5" d="M72.6,309.8h123.8c9.8,0,18.1,8.3,18.1,18.1l0,0c0,9.8-8.3,18.1-18.1,18.1H72.6c-9.8,0-18.1-8.3-18.1-18.1
			l0,0C54.5,318.1,62.8,309.8,72.6,309.8z"/>
	</g>
	<path class="st6" d="M72.6,346h123.8c9.8,0,18.1,8.3,18.1,18.1l0,0c0,9.8-8.3,18.1-18.1,18.1H72.6c-9.8,0-18.1-8.3-18.1-18.1l0,0
		C54.5,354.4,62.8,346,72.6,346z"/>
	<path class="st5" d="M72.6,383h123.8c9.8,0,18.1,8.3,18.1,18.1l0,0c0,9.8-8.3,18.1-18.1,18.1H72.6c-9.8,0-18.1-8.3-18.1-18.1l0,0
		C54.5,390.6,62.8,383,72.6,383z"/>
	<g>
		<path class="st6" d="M72.6,419.3h123.8c9.8,0,18.1,8.3,18.1,18.1l0,0c0,9.8-8.3,18.1-18.1,18.1H72.6c-9.8,0-18.1-8.3-18.1-18.1
			l0,0C54.5,427.6,62.8,419.3,72.6,419.3z"/>
		<path class="st6" d="M105.8,273.6h123.8c9.8,0,18.1,8.3,18.1,18.1l0,0c0,9.8-8.3,18.1-18.1,18.1H105.8c-9.8,0-18.1-8.3-18.1-18.1
			l0,0C86.9,281.9,95.2,273.6,105.8,273.6z"/>
	</g>
	<circle class="st5" cx="195.6" cy="401.9" r="80.8"/>
	<circle class="st7" cx="195.6" cy="401.9" r="60.4"/>
	<path d="M195.6,377c6,0,11.3,4.5,11.3,9.8c0,3,2.3,5.3,5.3,5.3s5.3-2.3,5.3-5.3c0-9.1-6.8-17.4-15.8-18.9v-2.3c0-3-2.3-5.3-5.3-5.3
		s-5.3,2.3-5.3,5.3v2.3c-9.1,2.3-15.8,9.8-15.8,18.9c0,10.6,9.8,19.6,21.1,19.6c6,0,11.3,4.5,11.3,9.8s-5.3,9.8-11.3,9.8
		s-12.1-4.5-12.1-9.8c0-3-2.3-5.3-5.3-5.3s-5.3,2.3-5.3,5.3c0,9.1,6.8,17.4,15.8,18.9v2.3c0,3,2.3,5.3,5.3,5.3s5.3-2.3,5.3-5.3v-2.3
		c9.1-2.3,15.8-9.8,15.8-18.9c0-10.6-9.8-19.6-21.1-19.6c-6,0-11.3-4.5-11.3-9.8C184.3,381.5,189.5,377,195.6,377z"/>
	<path d="M250.7,366.4c-6.8-10.6-15.8-18.9-27.2-24.1c-2.3-1.5-5.3,0-6.8,2.3s0,5.3,2.3,6.8c18.9,9.1,31.7,28.7,31.7,49.8
		c0,9.1-2.3,18.1-6.8,26.4c-1.5,2.3,0,5.3,2.3,6.8c0.8,0.8,1.5,0.8,2.3,0.8c1.5,0,3.8-0.8,4.5-3c5.3-9.1,7.5-20.4,7.5-30.9
		C261.2,389.1,257.5,377,250.7,366.4z"/>
	<path d="M203.1,346L203.1,346L203.1,346c3,0,5.3-2.3,5.3-5.3s-2.3-5.3-5.3-5.3l0,0c-3,0-5.3,2.3-5.3,5.3S200.1,346,203.1,346z"/>
	<path d="M171.4,452.5c-18.9-9.1-31.7-28.7-31.7-49.8c0-9.1,2.3-18.1,6.8-26.4c1.5-2.3,0-5.3-2.3-6.8s-5.3,0-6.8,2.3
		c-5.3,9.1-7.5,20.4-7.5,30.9c0,12.8,3.8,24.9,10.6,35.5s15.8,18.9,27.2,24.1c0.8,0,1.5,0.8,2.3,0.8c1.5,0,3.8-0.8,4.5-3
		C175.2,456.2,173.7,453.2,171.4,452.5z"/>
	<path d="M188,457.7L188,457.7c-3,0-5.3,2.3-5.3,5.3s2.3,5.3,5.3,5.3l0,0c3,0,5.3-2.3,5.3-5.3S191.1,457.7,188,457.7z"/>
	<path d="M218.2,318.9c-0.8-1.5-1.5-3-2.3-3.8h13.6c12.8,0,23.4-10.6,23.4-23.4s-10.6-23.4-23.4-23.4h-40.8
		c2.3-3.8,3.8-8.3,3.8-12.8c0-12.8-10.6-23.4-23.4-23.4h-123c-12.8,0-23.4,10.6-23.4,23.4c0,12.8,10.6,23.4,23.4,23.4h40
		c-2.3,3.8-3.8,8.3-3.8,12.8s1.5,9.1,3.8,12.8H73.3c-12.8,0-23.4,10.6-23.4,23.4c0,7.5,3.8,13.6,9.1,18.1
		c-5.3,4.5-9.1,10.6-9.1,18.1s3.8,13.6,9.1,18.1c-5.3,4.5-9.1,10.6-9.1,18.1s3.8,13.6,9.1,18.1c-5.3,4.5-9.1,10.6-9.1,18.1
		c0,12.8,10.6,23.4,23.4,23.4h59.6c15.8,16.6,37.7,27.2,62.6,27.2c47.5,0,86-38.5,86-86C281.6,362.7,254.4,329.4,218.2,318.9z
		 M32.6,255.5c0-7.5,6-12.8,12.8-12.8h123.8c7.5,0,12.8,6,12.8,12.8c0,6.8-5.3,12.8-12.1,12.8H46.2
		C38.6,268.3,32.6,262.3,32.6,255.5z M92.2,291.7c0-7.5,6-12.8,12.8-12.8h124.5c7.5,0,12.8,6,12.8,12.8s-6,12.8-12.8,12.8H197h-91.3
		C98.2,304.5,92.2,299.3,92.2,291.7z M59.7,327.9c0-7.5,6-12.8,12.8-12.8h123.8c2.3,0,3.8,0.8,6,1.5c-2.3,0-4.5,0-7.5,0
		c-23.4,0-45.3,9.8-61.1,25.7H71.8C65.8,341.5,59.7,335.5,59.7,327.9z M59.7,364.9c0-7.5,6-12.8,12.8-12.8h52.8
		c-6,7.5-9.8,16.6-12.8,26.4h-40C65.8,377.7,59.7,371.7,59.7,364.9z M59.7,401.1c0-7.5,6-12.8,12.8-12.8h37.7
		c-0.8,4.5-1.5,9.1-1.5,14.3c0,3.8,0,8.3,0.8,12.1h-37C65.8,414,59.7,407.9,59.7,401.1z M73.3,450.2c-7.5,0-12.8-6-12.8-12.8
		c0-7.5,6-12.8,12.8-12.8h39.2c2.3,9.8,6.8,18.1,12.1,26.4H73.3V450.2z M195.6,478.1c-41.5,0-76.2-34-76.2-76.2s34-76.2,76.2-76.2
		s76.2,34,76.2,76.2S237.1,478.1,195.6,478.1z"/>
</g>
<g>
	<rect x="250.1" y="266" class="st8" width="226" height="164.5"/>
	<g>
		<path class="st9" d="M486,394.8H240c-11.4,0-20.6,9.2-20.6,20.6V452c0,11.4,9.2,20.6,20.6,20.6h246c11.4,0,20.6-9.2,20.6-20.6
			v-36.6C506.6,404,497.3,394.8,486,394.8z"/>
		<path class="st9" d="M486,305.1H240c-11.4,0-20.6,9.2-20.6,20.6v36.6c0,11.4,9.2,20.6,20.6,20.6h246c11.4,0,20.6-9.2,20.6-20.6
			v-36.6C506.6,314.3,497.3,305.1,486,305.1z"/>
		<path class="st9" d="M486,215.4H240c-11.4,0-20.6,9.2-20.6,20.6v36.6c0,11.4,9.2,20.6,20.6,20.6h246c11.4,0,20.6-9.2,20.6-20.6
			V236C506.6,224.6,497.3,215.4,486,215.4z"/>
	</g>
	<g>
		<path class="st10" d="M357.5,280.6c-0.3,7.4-6.8,12.7-14.1,12.7H240.1c-11.5,0-20.6-9.1-20.6-20.6V236c0-11.5,9.1-20.6,20.6-20.6
			h81.5c7.8,0,13.8,6.3,13.5,14.1c-0.4,7.3-6.8,12.7-14.2,12.7h-11.1c-6.3,0-11.2,5.5-11.2,11.9c0,0.1,0,0.1,0,0.2v0.1
			c0,6.5,4.9,11.9,11.2,11.9h34.3C351.7,266.4,357.9,272.8,357.5,280.6z"/>
		<path class="st10" d="M357.5,317.8c0.4,7.8-5.7,14.1-13.4,14.1h-34.3c-6.3,0-11.2,5.5-11.2,11.9v0.1c0,0.1,0,0.1,0,0.2
			c0,6.5,4.9,11.9,11.2,11.9h11.1c7.4,0,13.8,5.4,14.2,12.7c0.3,7.8-5.8,14.1-13.5,14.1h-81.4c-11.5,0-20.6-9.2-20.6-20.6v-36.5
			c0-11.3,9.1-20.6,20.6-20.6h103.2C350.5,305.1,357.1,310.5,357.5,317.8z"/>
		<path class="st10" d="M357.5,459.9c-0.3,7.4-6.8,12.8-14.1,12.8H240.1c-11.5,0-20.6-9.2-20.6-20.6v-36.7
			c0-11.3,9.1-20.6,20.6-20.6h81.5c7.8,0,13.8,6.3,13.5,14.1c-0.4,7.4-6.8,12.7-14.2,12.7h-11.1c-6.3,0-11.2,5.5-11.2,11.9
			c0,0.1,0,0.1,0,0.2v0.1c0,6.5,4.9,11.9,11.2,11.9h34.3C351.7,445.8,357.9,452.2,357.5,459.9z"/>
	</g>
	<path class="st11" d="M262.7,269.7L262.7,269.7c-8.5,0-15.5-6.9-15.5-15.5l0,0c0-8.5,6.9-15.5,15.5-15.5l0,0
		c8.5,0,15.5,6.9,15.5,15.5l0,0C278.1,262.9,271.3,269.7,262.7,269.7z"/>
	<g>
		<path class="st12" d="M463.3,269.7H397c-8.5,0-15.5-6.9-15.5-15.5l0,0c0-8.5,6.9-15.5,15.5-15.5h66.4c8.5,0,15.5,6.9,15.5,15.5
			l0,0C478.8,262.9,471.9,269.7,463.3,269.7z"/>
		<path class="st12" d="M463.3,359.4H397c-8.5,0-15.5-6.9-15.5-15.5l0,0c0-8.5,6.9-15.5,15.5-15.5h66.4c8.5,0,15.5,6.9,15.5,15.5
			l0,0C478.8,352.6,471.9,359.4,463.3,359.4z"/>
		<path class="st12" d="M463.3,449.2H397c-8.5,0-15.5-6.9-15.5-15.5l0,0c0-8.5,6.9-15.5,15.5-15.5h66.4c8.5,0,15.5,6.9,15.5,15.5
			l0,0C478.8,442.2,471.9,449.2,463.3,449.2z"/>
	</g>
	<g>
		<path class="st11" d="M262.8,359.4L262.8,359.4c-8.5,0-15.5-6.9-15.5-15.5l0,0c0-8.5,6.9-15.5,15.5-15.5l0,0
			c8.5,0,15.5,6.9,15.5,15.5l0,0C278.2,352.6,271.3,359.4,262.8,359.4z"/>
		<path class="st11" d="M262.8,449.2L262.8,449.2c-8.5,0-15.5-6.9-15.5-15.5l0,0c0-8.5,6.9-15.5,15.5-15.5l0,0
			c8.5,0,15.5,6.9,15.5,15.5l0,0C278.2,442.3,271.3,449.2,262.8,449.2z"/>
	</g>
</g>
</svg>
