<?xml version="1.0" encoding="utf-8"?>
<!-- Generator: Adobe Illustrator 22.0.1, SVG Export Plug-In . SVG Version: 6.00 Build 0)  -->
<svg version="1.1" id="Capa_1" xmlns="http://www.w3.org/2000/svg" xmlns:xlink="http://www.w3.org/1999/xlink" x="0px" y="0px"
	 viewBox="0 0 512 512" style="enable-background:new 0 0 512 512;" xml:space="preserve">
<style type="text/css">
	.st0{fill:#E5E5E5;}
	.st1{fill:#4B9FD8;}
	.st2{fill:#3789C9;}
	.st3{fill:#ED6362;}
	.st4{fill:#FDBC4B;}
	.st5{fill:#8BD5EC;}
	.st6{fill:#787878;}
	.st7{fill:#383938;}
	.st8{fill:#464646;}
	.st9{fill:#525252;}
</style>
<g>
	<rect x="244" y="34.1" class="st0" width="24" height="443.7"/>
	
		<rect x="34.1" y="244" transform="matrix(0.7071 -0.7071 0.7071 0.7071 -106.036 255.9967)" class="st0" width="443.8" height="24"/>
	<rect x="34.1" y="244" class="st0" width="443.7" height="24"/>
	
		<rect x="244" y="34.1" transform="matrix(0.7071 -0.7071 0.7071 0.7071 -106.0403 256.0014)" class="st0" width="24" height="443.8"/>
</g>
<circle class="st1" cx="256" cy="256" r="123.5"/>
<path class="st2" d="M254.9,239.8h33.5c10,0,19-7.5,19.5-17.5c0.6-10.7-7.9-19.5-18.5-19.5h-67.6c-8.9,0-15.6-7.5-15.5-16.4
	c0-0.1,0-0.1,0-0.2s0-0.1,0-0.2c-0.1-8.9,6.6-16.4,15.5-16.4h15.3c10,0,19-7.5,19.5-17.5c0.5-9-5.5-16.6-13.7-18.8
	c-62,6.5-110.4,59-110.4,122.7c0,68.2,55.3,123.5,123.5,123.5c10.2,0,18.5-8.3,18.5-18.5s-8.3-18.5-18.5-18.5h-24.7
	c-8.5,0-15.5-7-15.5-15.5v-0.2c0-0.4,0-0.8,0-1.1c-0.5-8.4,6.2-15.5,14.6-15.5H270c10,0,19-7.5,19.5-17.5
	c0.6-10.7-7.9-19.5-18.5-19.5h-16.9c-8.6,0-15.6-7-15.5-15.6v-1.1v-0.2C238.5,247.2,245.9,239.8,254.9,239.8z"/>
<g>
	<circle class="st3" cx="256" cy="34.1" r="34.1"/>
</g>
<g>
	<circle class="st4" cx="412.9" cy="99.1" r="34.1"/>
	<circle class="st4" cx="99.1" cy="412.9" r="34.1"/>
</g>
<g>
	<circle class="st5" cx="34.1" cy="256" r="34.1"/>
</g>
<g>
	<circle class="st6" cx="412.9" cy="412.9" r="34.1"/>
	<circle class="st6" cx="99.1" cy="99.1" r="34.1"/>
</g>
<g>
	<rect x="247.8" y="297" class="st7" width="230.3" height="182.1"/>
	<path class="st8" d="M496.5,422.2H229.6c-7.2,0-13,5.8-13,13v53.5c0,7.2,5.8,13,13,13h266.9c7.2,0,13-5.8,13-13v-53.5
		C509.5,427.9,503.7,422.2,496.5,422.2z"/>
	<path class="st8" d="M496.5,326.2H229.6c-7.2,0-13,5.8-13,13v53.5c0,7.2,5.8,13,13,13h266.9c7.2,0,13-5.8,13-13v-53.5
		C509.5,332,503.7,326.2,496.5,326.2z"/>
	<path class="st3" d="M465.9,381.8h-68.8c-8.4,0-15.3-6.9-15.3-15.3v-1.1c0-8.4,6.9-15.3,15.3-15.3h68.8c8.4,0,15.3,6.9,15.3,15.3
		v1.1C481.1,374.9,474.3,381.8,465.9,381.8z"/>
	<path class="st3" d="M465.9,477.5h-68.8c-8.4,0-15.3-6.9-15.3-15.3v-1.1c0-8.4,6.9-15.3,15.3-15.3h68.8c8.4,0,15.3,6.9,15.3,15.3
		v1.1C481.1,470.8,474.3,477.5,465.9,477.5z"/>
	<path class="st9" d="M357.5,392.8c-0.3,7.5-7.1,13-14.4,13H229.6c-7.2,0-13-5.8-13-13v-53.5c0-7.2,5.8-13,13-13h91.3
		c7.9,0,14.1,6.4,13.8,14.4c-0.4,7.4-7.1,13-14.5,13h-11.3c-6.4,0-11.4,5.6-11.4,12.3c0,0.1,0,0.1,0,0.2v0.1c0,6.6,5,12.3,11.4,12.3
		h35C351.6,378.3,357.9,384.8,357.5,392.8z"/>
	<path class="st9" d="M357.5,488.6c-0.3,7.5-7.1,13-14.4,13H229.6c-7.2,0-13-5.8-13-13v-53.5c0-7.2,5.8-13,13-13h91.3
		c7.9,0,14.1,6.4,13.8,14.4c-0.4,7.4-7.1,13-14.5,13h-11.3c-6.4,0-11.4,5.6-11.4,12.3c0,0.1,0,0.1,0,0.2v0.1c0,6.6,5,12.3,11.4,12.3
		h35C351.6,474.2,357.9,480.7,357.5,488.6z"/>
	<path class="st4" d="M261.4,477.5h-1.1c-8.4,0-15.3-6.9-15.3-15.3v-1.1c0-8.4,6.9-15.3,15.3-15.3h1.1c8.4,0,15.3,6.9,15.3,15.3v1.1
		C276.5,470.8,269.7,477.5,261.4,477.5z"/>
	<path class="st4" d="M261.3,381.8h-1.1c-8.4,0-15.3-6.9-15.3-15.3v-1.1c0-8.4,6.9-15.3,15.3-15.3h1.1c8.4,0,15.3,6.9,15.3,15.3v1.1
		C276.5,374.9,269.7,381.8,261.3,381.8z"/>
	<path class="st8" d="M496.5,232H229.6c-7.2,0-13,5.8-13,13v53.5c0,7.2,5.8,13,13,13h266.9c7.2,0,13-5.8,13-13V245
		C509.5,237.8,503.7,232,496.5,232z"/>
	<path class="st3" d="M465.9,287.5h-68.8c-8.4,0-15.3-6.9-15.3-15.3V271c0-8.4,6.9-15.3,15.3-15.3h68.8c8.4,0,15.3,6.9,15.3,15.3
		v1.1C481.1,280.7,474.3,287.5,465.9,287.5z"/>
	<path class="st9" d="M357.5,298.5c-0.3,7.5-7.1,13-14.4,13H229.6c-7.2,0-13-5.8-13-13V245c0-7.2,5.8-13,13-13h91.3
		c7.9,0,14.1,6.4,13.8,14.4c-0.4,7.4-7.1,13-14.5,13h-11.3c-6.4,0-11.4,5.6-11.4,12.3c0,0.1,0,0.1,0,0.2v0.1c0,6.6,5,12.3,11.4,12.3
		h35C351.6,284.1,357.9,290.6,357.5,298.5z"/>
	<path class="st4" d="M261.3,287.5h-1.1c-8.4,0-15.3-6.9-15.3-15.3V271c0-8.4,6.9-15.3,15.3-15.3h1.1c8.4,0,15.3,6.9,15.3,15.3v1.1
		C276.5,280.7,269.7,287.5,261.3,287.5z"/>
</g>
</svg>
