<?xml version="1.0" encoding="utf-8"?>
<!-- Generator: Adobe Illustrator 22.0.1, SVG Export Plug-In . SVG Version: 6.00 Build 0)  -->
<svg version="1.1" id="Capa_1" xmlns="http://www.w3.org/2000/svg" xmlns:xlink="http://www.w3.org/1999/xlink" x="0px" y="0px"
	 viewBox="0 0 512 512" style="enable-background:new 0 0 512 512;" xml:space="preserve">
<style type="text/css">
	.st0{fill:#2196F3;}
	.st1{fill:#383938;}
	.st2{fill:#464646;}
	.st3{fill:#FF6D00;}
	.st4{fill:#525252;}
	.st5{fill:#FDBC4B;}
</style>
<path class="st0" d="M291.3,145.9c-0.2,0.2-0.4,0.2-0.6,0.3c1,4.3,0.7,8.9-0.1,13.3c2.7,3,1.5,9.1-3.8,9.1c-7.5-0.1-15-0.1-22.5-0.1
	c18.3,50.3,43,103.1,55.3,155.2c5.9-22.7,13.9-44.9,17.6-68.1c6.3-38.2-4-64-14.7-99.6c-5.9-19.3-3.8-35.7,7.7-47.9
	c-35.8-23.8-76.2-36-120.2-28.5c-28,4.6-53,16.1-75,33.9c-8.6,7-15.9,14.8-24.4,21.3c12.9,0,25.8,0.4,38.6,0.7c3.8,0.2,5.9,3,6,6.1
	c1.1,0.8,1.9,2.1,2.1,4c0,0.5,0.1,1,0.1,1.4c0.3,5.5,0,11.1-0.2,16.5c-0.1,2.7-2.4,5.5-5.4,5.4c-5.9-0.4-11.7-1.3-17.6-2.2
	c21.1,47.6,38.5,97.6,57.9,146.1c1.1-3,2.3-6.1,3.4-9.1c6-25.8,13.3-52.3,23.9-75.5c-9.5-19-17.1-41-20.9-61.5
	c-7.4-0.6-14.8-1.2-22.1-2.2c-2.9-0.4-4.1-3-3.5-5.1c-0.3-0.6-0.6-1.2-0.6-2c-0.5-3.7-0.9-7.2-1-10.9c-0.1-1.2-0.1-2.4-0.1-3.6
	c0-3.1,2.2-4.7,4.5-5.1c0.3-0.8,0.9-1.5,1.8-1.7c20.8-3.4,41.9-2.2,62.9-2c14,0.2,37.2-4,50.1,2.2c3.4,1.6,3.5,6.5,1.2,9
	C291.6,145.6,291.5,145.8,291.3,145.9z M383.5,96c64.1,57.9,77,152,44.3,230.1C392.9,409.4,310,441.8,225,448.3
	c-1.8,0.2-3-0.4-3.9-1.3c-93.2-2-173.5-71-189.3-164.7C17.2,196,58.3,110,131.4,63C216.8,8.1,310.9,30.4,383.5,96z M332.3,375.4
	c51.7-50.1,79-109.6,61.5-182.1C373.6,254,353.4,315,332.3,375.4z M287.5,401.4c-10-18.4-16.1-39.2-23.6-58.6
	c-8.4-21.9-17.2-43.7-25.1-65.7c-15.2,43.7-30.1,87.7-48.1,130c17.6,2.7,35.1,4.6,52.9,3.4C259.2,409.4,273,405.2,287.5,401.4z
	 M156.5,389.3c-25.7-69.2-54.4-137.9-77.4-208C40.7,260.1,84.1,346,156.5,389.3z"/>
<g>
	<rect x="251.5" y="311.7" class="st1" width="221.8" height="114.2"/>
	<path class="st2" d="M491,371.1H234c-6.9,0-12.5,5.6-12.5,12.5v51.5c0,6.9,5.6,12.5,12.5,12.5h257c6.9,0,12.5-5.6,12.5-12.5v-51.5
		C503.5,376.6,497.9,371.1,491,371.1z"/>
	<path class="st2" d="M491,278.7H234c-6.9,0-12.5,5.6-12.5,12.5v51.5c0,6.9,5.6,12.5,12.5,12.5h257c6.9,0,12.5-5.6,12.5-12.5v-51.5
		C503.5,284.3,497.9,278.7,491,278.7z"/>
	<path class="st3" d="M461.5,332.2h-66.2c-8.1,0-14.7-6.6-14.7-14.7v-1.1c0-8.1,6.6-14.7,14.7-14.7h66.2c8.1,0,14.7,6.6,14.7,14.7
		v1.1C476.2,325.6,469.6,332.2,461.5,332.2z"/>
	<path class="st3" d="M461.5,424.4h-66.2c-8.1,0-14.7-6.6-14.7-14.7v-1.1c0-8.1,6.6-14.7,14.7-14.7h66.2c8.1,0,14.7,6.6,14.7,14.7
		v1.1C476.2,417.9,469.6,424.4,461.5,424.4z"/>
	<path class="st4" d="M357.1,342.8c-0.3,7.2-6.8,12.5-13.9,12.5H234c-6.9,0-12.5-5.6-12.5-12.5v-51.5c0-6.9,5.6-12.5,12.5-12.5h87.9
		c7.6,0,13.6,6.2,13.3,13.9c-0.4,7.1-6.8,12.5-14,12.5h-10.9c-6.2,0-11,5.4-11,11.8c0,0.1,0,0.1,0,0.2v0.1c0,6.4,4.8,11.8,11,11.8
		H344C351.5,328.9,357.5,335.1,357.1,342.8z"/>
	<path class="st4" d="M357.1,435.1c-0.3,7.2-6.8,12.5-13.9,12.5H234c-6.9,0-12.5-5.6-12.5-12.5v-51.5c0-6.9,5.6-12.5,12.5-12.5h87.9
		c7.6,0,13.6,6.2,13.3,13.9c-0.4,7.1-6.8,12.5-14,12.5h-10.9c-6.2,0-11,5.4-11,11.8c0,0.1,0,0.1,0,0.2v0.1c0,6.4,4.8,11.8,11,11.8
		H344C351.5,421.2,357.5,427.5,357.1,435.1z"/>
	<path class="st5" d="M264.6,424.4h-1.1c-8.1,0-14.7-6.6-14.7-14.7v-1.1c0-8.1,6.6-14.7,14.7-14.7h1.1c8.1,0,14.7,6.6,14.7,14.7v1.1
		C279.1,417.9,272.6,424.4,264.6,424.4z"/>
	<path class="st5" d="M264.5,332.2h-1.1c-8.1,0-14.7-6.6-14.7-14.7v-1.1c0-8.1,6.6-14.7,14.7-14.7h1.1c8.1,0,14.7,6.6,14.7,14.7v1.1
		C279.1,325.6,272.6,332.2,264.5,332.2z"/>
</g>
</svg>
