<?xml version="1.0" encoding="utf-8"?>
<!-- Generator: Adobe Illustrator 22.0.1, SVG Export Plug-In . SVG Version: 6.00 Build 0)  -->
<svg version="1.1" id="Capa_1" xmlns="http://www.w3.org/2000/svg" xmlns:xlink="http://www.w3.org/1999/xlink" x="0px" y="0px"
	 viewBox="0 0 512 512" style="enable-background:new 0 0 512 512;" xml:space="preserve">
<style type="text/css">
	.st0{fill:#3789C9;}
	.st1{fill:#65B1EF;}
	.st2{fill:#F3F3F3;}
	.st3{fill:#FEE218;}
	.st4{fill:#F8D41F;}
	.st5{fill:#212121;}
	.st6{font-family:'Arial-Black';}
	.st7{font-size:79.7486px;}
</style>
<circle class="st0" cx="255.6" cy="255.6" r="247.6"/>
<g>
	<path class="st1" d="M236.3,100.7c0,1-1,3-2,3c0,0,0,0-1,1c-1,2-2,4-3,5v1c0,1,1,2,1,3c-1,1-2,2-3,3c-4,3-8.9,5-12.9,5
		c-1,0-2,1-3,2c-2,3-4,3-5.9,5c-1,1-3,1-4,1c-1,0-1,1-2,1c0,0,0,0,0,1c-3,5-5,9.9-7.9,14.9c-1-1-1-2-2-3c-1,0-1-1-2,0c-2,1-3,0-4-2
		s-2-4-3-5.9c1-1,1-2,2-3c-2,0-3,0-3-4c0-1,1-3,2-4c1-1,3-4,3,0c1-4,3-6.9,1-8.9c0,2-2,4-2,4c-1,4-2,2-3,2c0,0,0-1-1-2c1-1,1-2,2-2
		s1,0,2,0c0-1-1-2-1-3c-1,1-1,1-2,2c1,1,0,1,0-2c1-5.9,0-9.9-3-9.9c-3,0-6.9,1-8.9,1c-3,0-5-1-5-5.9c4-2,7.9-3,11.9-5c-1,1-2,1-3,1
		c1-1,2-2,3-3c-2,2-4,3-5.9,4c-2,1-4,2-5.9,3c-2,1-4,0-6.9,4c-1,1-1,1-2,2c-1,0-1,1-2,1c-3,4-4,3-5.9,4c0,0,1,0,1,1c0,0,1,1,1,2
		c-2,1-4,3-5,2c-1-1-3,0-4,0l0,0c-1,1-3,3-3,4c0,1-1,1-1,2c0,0,1,0,1-1c3-4,5-4,6.9-5c0,0,1,0,0,1c-1,4,1,2,2,2c-1-1-1-1-2-2
		c0,0,0-1,1-1c2-1,4-1,5,0c1,1,2,2,3,3h1c1,0,3-1,2,1c2,0,3,1,5,1c0,3,0,4-1,5c1,1,2,1,3,2c1,0,1,0,2,1c1,0,1,1,2,1l1,1c0,1-1,1-1,1
		c-1,0-3,4-5,3c-1-1-2-2-3-3c-2,5,1,4,2,5.9c-1,1-1,3-2,4c-1,0-2-1-2-1v1c-1,1-2,2-2,2c-3-1-5.9-2-6.9-5c0-1-2,0-3,0
		c3-3,5-5.9,7.9-8.9c-2-1-3-1-5-2c-1-1-2-1-2-2c-1-2-3,0-4,0c-1,0-2,1-4,2c0,1,1,1,1,2c-1,1-1,1-2,1c0,1,1,1,1,2c-2,2-4,3-5.9,5
		c0,0,0,1-1,1c2,2,4,4,5.9,5c1,1,3,0,5,0c1,0,3,1,4,1c0,0,0,1,1,1c3,1,3,1,1,6.9c2,0,3,0,5,0c1,0,1-1,2-1c2-3,3-3,4-1c1,2,1,4,2,5.9
		c0,0-1,2-1,3c1,1,3,1,5,3c1,1,2,2,3,4c0,1,0,3-1,4c0,1-1,1-2,1c-2,1-3,2-5,3c-1,1-2,1-3,1c-3,1-5.9,1-8.9,2c-2,0-3,2-5,4
		c3,0,6.9-5,8.9,0c-1,1-2,1-2,2c0,5.9,3,6.9,6.9,2c0,1,1,1,1,2c-4,2-7.9,4-11.9,6.9c1-2,1-3,2-4l0,0c-2-1-8.9,4-10.9,6.9
		c-1,1-1,3-2,4l-1,1c-1,1-2,1-4,2c-2,2-4,3-5,5.9c-1,1-1,4-2,5.9c-2-1-3,1-4,2c-4,3-6.9,6.9-6.9,11.9c-3-1-6.9-2-9.9-2c-1,0-3,1-5,1
		c-1,0-2-1-3-1c-1,1-3,1-4,2c-2,1-4,3-5,5c-4,2-3,5.9-4,9.9c0,2,0,4,0,5c0,5,3,7.9,5,9.9c1,1,3,1,4,0c1-1,2-3,3-4c0-1,1-2,1-3
		c5,2,4,2,4,5.9c0,2,0,4,0,6.9c1,0,3,0,4,0c2,0,3,1,5,2c0,0,1,1,1,2c0,2,0,5,0,6.9c0,3,3,6.9,5,6.9c1,0,2-1,4-1c1,0,2,0,3,1
		c-1,1,1,1,1-2c1-2,4-5.9,5.9-5c0,0,1,1,1,2s1,3,1,5c1-1,1-2,1-2c1-1-1-4,2-4c1,0,2-1,4,1h1c1,0,2,0,2,0c2,3,4,1,5-1c1,2,2,3,3,4
		c0,0,0,0-1,1c1,1,2,1,3,1c1,1,3,1,4,3c2,4,4,5,6.9,5c4,0,6.9,4,7.9,8.9c0,2,2,4,0,5.9c-1,1-2,3-3,5c1,1,2,3,2,3c2-1,5,1,5.9-3
		c1-2,1-2,2-1c1,1,2,2,4,3c-1,1-1,1-1,2c0,0,0,0,0,1c1,0,1,1,2,1s2-1,3-1s2-1,3,0c2,1,3,2,5,3c2,1,3,4,5,3l1,1c2,3,1,8.9,0,11.9
		c-2,3-3,5.9-4,8.9c0,1,0,2,0,4c1,6.9,0,12.9-1,18.8c-1,4-4,3-5,5c-1,1-2,2-4,3c-2,1-2,3-1,6.9c1,4,0,6.9-2,7.9l0,0c-1,3-2,5-2,7.9
		c0,2,0,5-1,5c-3,0-5-2-5.9-5c-1,0-2-1-3-1h-1c0,1,1,1,1,2c1,1,2,2,3,3c1,1,2,2,3,3c0,1,0,1-1,2c0,1,1,1,1,2c1,3,1,4,0,5
		c-2,0-4,1-5.9,1c1,1,1,2,1,3s0,2-1,2c0,0-1,0-2-1c1,1,1,3,2,4c0,0,0,0,1,1c-1,3-1,5.9-1,8.9c1,1,2,2,4,4c-1,2-1,4-2,5.9
		c0,1,0,3,2,5l-1,1c2,2,4,4,5.9,5.9c0,3-2,3-6.9-3c1,0,1-1,2-1c-1-1-2-2-3-2c1,3,0,4-1,2c-1-1-2-3-3-5c-1-2-2-4-3-5c-2-2-3-5-1-5
		c-1-1-1-2-2-4c-1,0-1-1-1-1c-1-4-1-7.9-1-10.9c-2,0-3-2-4-5c0-1,0-2-1-3c-1-2-1-4-1-5.9c0-3,0-5.9-1-9.9c-2-6.9-2-11.9-4-17.8
		c-1-5.9-2-10.9-3-16.8c-1-4-4-5-5.9-6.9c-2-2-5-4-6.9-6.9c-3-4-5-7.9-6.9-11.9c-2-3-4-5.9-5-9.9c-1-1-1-3-1-5c0-1,1-3,1-4
		c-1-1-1-1-1-2c-1-3,0-6.9,2-7.9c3-3,4-7.9,3-12.9c0-2-2-5-4-5.9c0-1-2,0-3,1c-1,1-2,2-3,0c-2-2-4-3-5.9-5c-4-5-5-6.9-5.9-8.9l-1-1
		c-4-1-7.9-3-10.9-6.9c-1-1-2-1-4-1c-2,0-4-1-5.9-2c-2-1-4-2-5.9-3c-1-1-3-2-4-3c-1-1-1-3-1-5c0-4-2-5-3-6.9c-1-1-1-2-2-3
		c-2-2-3-5-4-6.9c-1-1-1-3-1-4c-1-1-2-2-3-4l-1,1c1,3,2,6.9,4,9.9c0,1,0,2,0,3c-1,0-1,0-2-1c-3-3-3-7.9-4-11.9c-1-3-1-5.9-4-5
		c0,0-1,0-1-1c-1-3-1-5-2-7.9c0-1-1-2-1-3c0-4,1-8.9,4-13.9c1-2,1-4,2-5.9c1-3-1-2-1-3c-1-1-1-2-2-3c0,0,0,0,1,0c0-1,0-2,0-3v-1
		c5-12.9,10.9-24.8,17.8-36.7c2,0,5.9-3,8.9-5h1c1,1,4,0,7.9-1c2-1,3,0,4,0c1,0,2,0,3-1c0-1,0-1,0-2c0-1,1-1,2-2c-1,0-1,0-2,0
		c1-2,2-3,3-5c-6.9,5.9-8.9,6.9-10.9,5c-1,0,0-2,2-4c0,0,1-1,2-1c1,0,1-1,2-1s3-1,4-1c1,0,1,0,1,0c2,0,4,1,6.9,1c1,0,4-2,3,1
		c3-4,5.9-5.9,6.9-5c-3,3-3,5.9,0,6.9c-1,1-2,3-3,4c-1,0-2,1-2,0c-1-1-3,0-5,2c2,0,4,1,6.9,1c3,0,5.9-2,8.9-2c0,0,0-1,1-1
		c-1,0-1,0-2,0c0,0,0,0,0-1c1,0,2-1,2-1c1,0,2,0,0,3c-1,1-1,3-1,3c0,1,1-1,2-2c1-2,3-3,5-4v-1c-1,0-2,1-2,0c0,0-1-1,0-2
		c-1-2,0-3,0-4c2-1,3-3,3-4c0,0,2-3,3-3c1-1,1,0,2-1c1,0,2,0,3-1c1,0,1,0,1,1c-1,1-2,2-3,3c-1,0-1,0-2,1c-1,0-2,1-3,2c-1,3,2,2,0,5
		c1,1,1,2,2,2c1-1,1-2,3-3c0,2-1,3-1,4c0,1,1,2,2,0c1-1,3-3,3-5c1-1,2-1,2-1c-1,0-1-1-2-1c-1,0-2,1-3,2c0,0,0,0,0-1l0,0c1-1,0-2-1-3
		c2-1,3-5,5-6.9c-1,0-2,0-4,0c0,0-1,0,0,0c2-4,0-3-2-2c-1,1-2,1-1-2c2,0,5-1,5.9,0c0,1,1,2,4,0c1-1,1,1,2,0c2-1,5-2,6.9-3
		c-1,0-3,0-4,0c-1,0-2,1-3,1s0-2,1-4c2-2,4-3,5.9-5c0-1-1-1-1-2c1,0,3-1,4-1c-2-2-5.9,2-7.9-1c1-1,2-1,2-1c1,0,4-2,5-2c0,0,2-1,4-2
		c5-2,9.9-5,12.9-4c1,0,2-1,3-1s2,0,3,0c2,0,4-1,5.9-1c1,0,1,1,2,1c-1,1-2,2-2,2s0,0,0,1c1,0,3,0,4-1c4-4,6.9-3,9.9-4c2-1,4,1,6.9-2
		c1-1,3-1,4-3c2-2,2,0,1,3c0-1,1-2,1-3c2-2,4-1,5,0l0,0c2-1,3-2,5-3h1c4,0,7.9,0,12.9,0c1,0,3,0,4,1c0,0,0,2,1,3c1,0,2,0,3-1
		c3,0,5.9,0,8.9-1c0,0,0,0,1,1c-4,2-8.9,5-13.9,8.9c1,1,1,1,2,2c-1,1-1,2-2,3C235.3,97.7,237.3,96.7,236.3,100.7z"/>
	<path class="st1" d="M462.2,192.8c0,1-1,2-2,2c-1,1-4-1-4-3c0-3-2-2-3-3s-2-2-3-2c-3-1-4,1-5.9,3c-1-2-1-3-2-4c-3,1-2,5.9-6.9,3
		c0,1-1,2-1,3c4,4,6.9,3,9.9,0c1-1,3,0,4,0c0,0,0,1,1,1c-1,1-1,1-2,2c0,1-1,2-1,3c2,2,4,3,6.9,5c-1,1-1,1-2,1h1c3,1,5.9,4,5.9,6.9
		c0,3,0,5.9-1,7.9c-1,3-3,5-5,7.9c0,1-2,0-3,0c0,2,0,3-2,4c-2,0-3,2-5,1l-1,2c-2,0-2,1-2,2c-1,3,0,5,3,5.9c3,2,5.9,4,7.9,7.9
		c1,2,1,4,0,6.9c-1,3-3,1-5,0c-1,0-1-1-2-1c0,1,1,2,1,3c0,0,0,1,1,1v1c-3-2-5.9-3-8.9-5c0-1,0-1,0-2c-1,0-1,0-2,0v2c2,2,1,4,1,6.9
		c0,1,0,2,0,2c2,2,3,6.9,5.9,7.9c3,1,6.9,6.9,7.9,10.9c-4-1-7.9-3-9.9-8.9c0-1-2-3-3-3c-3-1-4-5-4-6.9c0-3-1-5-3-6.9c-1-1-2-3-3-5
		c-1-2-2-3-4-3c-2,0-4,1-5-3c0-1-2-2-4-3h-1c-2-2-4-4-5.9-5.9c0,1,1,2,1,4c0,0,0,0-1,0c-1-2-2-4-3-5.9c-1,0-1,1-2,1c0,2,1,4,1,5.9
		c0,0,0,0,1,0c0,2-1,3-1,5c-2,5-3,9.9-5,13.9c-1,2-1,2,0,4c3,5,2,8.9,1,13.9l0,0c0,1-1,2-1,3c-1-1-2-2-3-3c-3-5-6.9-8.9-9.9-13.9
		c-3-4-5-8.9-5.9-13.9c0-1-1-1-1-2c0,2,0,4,0,4c-1,0-3,0-4-1v-1c0-1,1-2,2-4c-1,0-3,1-4,1v-1c0-1,0-1,0-2c-2-1-4-1-6.9-2
		c-3,1-5.9,2-9.9,3c-1,0-2,0-3,1c-1,0-3,1-4-2c0-1-2-1-2,0c-2,2-3,2-5.9,1c-3-1-5-3-6.9-5c-1-1-3-3-4-1c-1-1-1-2-2-3c-1-1-3-3-4-1
		c0,1-1,1-2,1v1c1,0,3,1,4,1s3,0,3,2c0,1,1,2,2,3c2,2,4,3,5.9,5.9c1,1,3,3,5,4c2,1,4-1,4-5c0-1,0-2,1-3c1,1,1,2,2,3c1,2,2,3,4,3
		c1,0,3,2,4,3c0,0,0,2,0,3s-1,2-1,3c1,3,0,3-2,3c1,3,0,5-1,5.9c-1,1-3,2-3,5c0,1-1,1-1,1c-3,4-6.9,6.9-9.9,9.9c-1,1-1,1-2,1
		c1,4,3,5.9,5.9,4c3-2,5.9-4,8.9-5.9c1,3,1,4,1,5.9c0,5-1,10.9-2,15.9c-1,5.9-3,9.9-6.9,12.9c1,0,1,1,3,1c-1,2-2,4-2,5.9s0,4,0,5.9
		c-1,6.9,3,11.9,5,16.8c2,4,4,7.9,4,11.9c1,5-1,7.9-3,8.9c-2,2-2,5.9-3,8.9c0,0,0,1,0,2c1,2,2,4,3,5.9c1,3,1,5-1,5.9c-2,1-2,3-1,5.9
		c0,1,0,2,0,3c-1,6.9-2,13.9-5,17.8c-2,2-3,4-5.9,4c-1,0-2,1-3,2c-2,2-4,0-5-4c-1-3-3-5.9-5-7.9c-3-3-5-6.9-6.9-11.9
		c-2-5.9-5-9.9-8.9-13.9c-1-1-2-3-2-4c-1-4-1-7.9-1-11.9c0-1,0-3-1-4c-2-3-3-6.9-5-9.9c-2-4-5-6.9-7.9-9.9c-2-2-4-5-4-8.9
		c0-3-2-5-3-7.9c-1-2-4-3-5.9-1c-1,1-2,1-3-1c-1-2-5-2-6.9-1c-2,1-3,3-4,5c-1,1-2,2-4,2c-2,0-4,1-5.9,3c-2,2-4,2-5.9,1c-2-1-4-2-5-3
		c-2-1-4-3-5-5c-2-3-4-5-6.9-6.9c-4-3-5.9-6.9-4-10.9c0-2,0-3-1-5c0-1-1-2-1-3c-1-2-3-3-3-4c-1-2-1-5-1-6.9c0-4,2-6.9,2-10.9
		c0-3,2-5,2-6.9c0-1,1-3,1-5c-1-5,0-6.9,1-9.9c1-1,1-3,1-5c0-1,1-2,1-1c4,1,6.9-2,9.9-5c1-1,3-3,4-3c3-1,5-2,7.9-3c1,0,2-1,3-1
		c2,2,3,5,2,6.9c3,2,5,3,7.9,2c1,0,2,0,3,1c3,3,5.9,0,8.9,3c0,0,2-2,1-3c-1-2-1-3,0-4c1-1,3-2,4-2c5,2,9.9,1,14.9,1
		c5.9,0,7.9-7.9,4-15.9c0-1,0-1-1-3c-1,1-2,2-4,3c-2,1-5,1-6.9,2c-2,1-5.9-2-7.9-5.9c-1-1-1-2-1-3c-1,0-2-1-3,0c-1,1-1,2-2,4
		c1,2,1,3,2,5c1,3,0,4-2,2c-3-3-5.9-4-7.9-9.9c0-1-3-2-4-3c-2-1-4-2-5.9-3c-1,0-1,0-2,0c-3-3-3-3-4,1c4,3,8.9,5,12.9,7.9
		c1,2,1,4,2,5.9c-3-2-5-4-6.9-5c-2-1-4-2-6.9-3c0,0-1,0-1-1c-3-3-5-2-6.9,1c0,1-2,1-2,1c-2,0-3,0-2,4c0,1,0,3-1,3c-1,1-2,3-2,5.9
		c0,4-1,6.9-3,7.9c-1,0-1,1-1,1c-1,1-2,3-4,1c-1-1-2,0-4,1c-2-5-4-9.9-5-14.9c-1-3,1-3,2-4c3-1,5-1,7.9-2c1,0,1-1,2-2c1-2-1-5-2-6.9
		c-2-3-4-3-5.9-4v-1c1,0,2-1,2-1c1-1,1-2,2-2c2-1,3-5,5-5.9c2-1,3-3,5-4l1-1c0-4,3-5,5-6.9c1-1,2-3,4-3c1,0,2,0,3,0c1-2,2-5.9,5.9-4
		c1,1,2-2,4-3c-1-2-3-4-2-5.9c1-2,2,0,4,1c0-2,0-5-2-6.9c2-1,2-5,5-1c1-1,2-3,2-4c-3,0-5.9,0-7.9,2c-2,2-5,0-6.9-4c0-1,0-2,0-2
		c0-1,1-2,1-4c0-1,1-2,2-4c-1,0-3-1-3-1c-1,1-4,0-3,5c0,1-1,3-2,4c-2,3-2,5,2,7.9c-1,1-2,1-2,2c1,1,2,2,2,3c0,2,0,3,1,5c1,3,0,2-1,3
		v1c0,1-1,1-1,1l-1-1c0-2-1-3-2-4c-1-1-3-3-4-5c-1,2-2,3-3,5c-6.9,9.9-7.9,9.9-9.9,7.9c-1-2-3-4-3-6.9c0-1,0-2,0-2c2-2,4-4,5.9-5
		c1-1,2-1,0-3c0-2,0-3,1-5c0-1,0-3,1-3c2-1,1-5.9,4-5.9c0,0,0,0,0-1c0-4,2-3,3-4c1-1,2-2,4-3c1-1,3-1,4-1c1,0,2-1,3-1s2,0,3,0
		c0,1-1,1-1,2l0,0c2,0,4,0,5.9,0c3-1,6.9,0,10.9,0c1,0,3,1,4,2c0,1,0,2,0,3c2-1,3-3,5,0c0,0,0-2,0-3c1-2,5.9,3,4-3c3-1,5-3,7.9-4
		c3-1,5.9-2,8.9-3l-1-1c0-1,0-2,0-2c2,0,4,0,5.9,0c1,0,2,0,3,0s3,1,5,1c-3-2-5-4-6.9-5c0-2,0-4,0-5c1-1,3-1,5-1c3,4,4,6.9,7.9,9.9
		c1,3,0,5-3,5c6.9,1,7.9-2,5-5.9c1,0,2-1,3,0c1,0,3,2,2,0c-3-2-4-2-5-1c-1,0-2,1-4-2c0-1-2-2-3-3c1,0,1-2,4,0c1,1,2-1,3-2
		c1,0,2,0,3,0h1c2,0,4,1,7.9,4c-2-4-3-5.9-3-6.9c-3-1-4,1-7.9-4c2,0,5.9,0,7.9-2c0-1-1-3,0-3c1-1,3-1,4-2c0,0,1,0,1-1c1,0,3,0,4-1h1
		c1,0,2,0,3-1c1,0,2-1,2-2c0-2,2-2,5.9-1c2,1,3,0,5,0c2,0,4,0,5.9,0c1,0,2,1,4,1l1,1c-2,1-4,3-5,4c0,0,1,0,1,1c2,0,3-1,5-1
		c1-1,2-2,5.9,1c-3-3,1-2,2-2c1,0,3,0,5,0c1,0,3,1,3,1c2,0,3-1,4-1s3,0,5,1c3,1,5.9,2,9.9,3c2,1,2,0,1-1c1,0,2,0,2,0c2,0,4,0,5.9,0
		c2,0,3,0,2-2c-1-2,2-2,4-1c2,0,2-1,5.9,1h1c1-1,2-1,5.9,0l0,0c5.9,6.9,10.9,14.9,14.9,22.8c-1,2-2,5-3,6.9c3,2,5.9,3,6.9,1l0,0
		c4,6.9,7.9,14.9,10.9,22.8c-1,1-2,1-3,1c-3,0-3,1-3,4c0,1,0,2-1,3c0,1-1,1-1,2c2,1,4,3,5.9,4C460.2,189.9,462.2,191.9,462.2,192.8z
		"/>
</g>
<path class="st2" d="M255.6,21.9c-128.8,0-233.6,104.8-233.6,233.6s104.8,233.6,233.6,233.6s233.6-104.8,233.6-233.6
	S384.4,21.9,255.6,21.9z M473.4,247.8h-76.8c-0.9-43.7-9-84.4-22.5-118.8c12.9-7.7,25.2-16.6,36.5-26.7
	C447.9,140,471.4,191.2,473.4,247.8z M259.7,37.7c38.7,2.2,73,34.8,95.3,84.5c-29.2,15-61.7,23.1-95.3,23.7L259.7,37.7L259.7,37.7z
	 M244.2,38.3v107.2c-31-1.6-60.9-9.4-88.1-23.4C177,75.6,208.5,43.9,244.2,38.3z M244.2,161v86.8H130c0.8-41,8.1-79.1,20.3-111.4
	C179.3,151.2,211.2,159.4,244.2,161z M244.2,263.3v87c-33,1.6-64.9,9.9-93.9,24.6c-12.2-32.3-19.5-70.5-20.4-111.6H244.2z
	 M244.2,365.7v107.1c-35.7-5.6-67.1-37.2-88-83.7C183.4,375.1,213.3,367.3,244.2,365.7z M259.7,473.4v-108
	c33.5,0.6,66,8.7,95.2,23.7C332.6,438.7,298.3,471.2,259.7,473.4z M259.7,349.9v-86.7h121.5c-0.8,41.1-8.2,79.3-20.4,111.6
	C329.7,359.1,295.3,350.6,259.7,349.9z M259.7,247.8v-86.5c35.6-0.6,70.1-9.1,101.2-24.9c12.2,32.2,19.5,70.4,20.3,111.4
	L259.7,247.8L259.7,247.8z M399.3,91.8c-9.8,8.6-20.2,16.3-31.3,23c-13.1-28.5-30-51.9-49.5-68.1C348.7,55.8,376.1,71.4,399.3,91.8z
	 M143.1,114.7c-11-6.7-21.4-14.4-31.3-23c23.2-20.3,50.5-35.9,80.8-45.1C173.1,62.8,156.2,86.2,143.1,114.7z M100.5,102.3
	c11.4,10.2,23.6,19.1,36.5,26.7c-13.5,34.5-21.6,75.1-22.5,118.8H37.7C39.7,191.2,63.2,140,100.5,102.3z M37.7,263.3h76.8
	c0.9,43.8,9,84.5,22.5,119c-12.9,7.6-25.1,16.5-36.5,26.7C63.2,371.3,39.7,320,37.7,263.3z M112,419.5c9.8-8.6,20.2-16.3,31.2-22.9
	c13.1,28.4,30,51.7,49.4,67.9C162.5,455.3,135.2,439.8,112,419.5z M367.9,396.6c11,6.6,21.4,14.3,31.2,22.9
	c-23.1,20.3-50.5,35.8-80.6,44.9C337.9,448.3,354.8,425,367.9,396.6z M410.5,409c-11.4-10.1-23.6-19.1-36.5-26.7
	c13.5-34.5,21.7-75.3,22.5-119h76.8C471.4,320,447.9,371.3,410.5,409z"/>
<rect x="122.8" y="191.6" class="st3" width="265.4" height="127.9"/>
<path class="st4" d="M122.8,191.6v60.5c0,11,8.9,19.9,19.9,19.9c11,0,19.9-8.9,19.9-19.9v-18.9c0-9.2,7.5-16.7,16.7-16.6h0.2
	c0.4,0,0.8,0,1.2,0c9.1-0.5,16.7,6.6,16.7,15.7v36.8c0,10.8,8.1,20.4,18.8,21c11.5,0.6,20.9-8.5,20.9-19.8v-20.2
	c0-9.2,7.5-16.7,16.8-16.7h1.1h0.2c9.7-0.1,17.7,7.8,17.7,17.6v4c0,10.8,8.1,20.4,18.8,21c11.5,0.6,20.9-8.5,20.9-19.8v-33
	c0-9.6,8.1-16.8,17.7-16.7c0.1,0,0.2,0,0.2,0s0.2,0,0.2,0c9.6-0.1,17.7,7,17.7,16.7v8.7c0,10.8,8.1,20.4,18.8,21
	c11.5,0.6,20.9-8.5,20.9-19.8v-41.3H122.8L122.8,191.6z"/>
<text transform="matrix(0.9557 0 0 1 141.54 285.2139)" class="st5 st6 st7">.COM</text>
</svg>
