<?xml version="1.0" encoding="iso-8859-1"?>
<!-- Generator: Adobe Illustrator 19.0.0, SVG Export Plug-In . SVG Version: 6.00 Build 0)  -->
<svg version="1.1" id="Capa_1" xmlns="http://www.w3.org/2000/svg" xmlns:xlink="http://www.w3.org/1999/xlink" x="0px" y="0px"
	 viewBox="0 0 512.002 512.002" style="enable-background:new 0 0 512.002 512.002;" xml:space="preserve">
<path style="fill:#242C35;" d="M143.586,220.569v159.592c0,0.862-0.041,1.724-0.122,2.565
	c-1.288,15.624-14.377,27.891-30.335,27.891H96.492c-16.82,0-30.456-13.636-30.456-30.456V220.569
	c0-14.914,10.727-27.334,24.89-29.939c1.805-0.345,3.67-0.517,5.566-0.517h16.637C129.95,190.112,143.586,203.749,143.586,220.569z"
	/>
<path style="fill:#424C59;" d="M143.586,220.569v159.592c0,0.862-0.041,1.724-0.122,2.565c-1.805,0.345-3.66,0.517-5.556,0.517
	h-16.648c-16.82,0-30.456-13.636-30.456-30.456V193.194c0-0.862,0.041-1.724,0.122-2.565c1.805-0.345,3.67-0.517,5.566-0.517h16.637
	C129.95,190.112,143.586,203.749,143.586,220.569z"/>
<path style="fill:#242C35;" d="M398.867,190.115h16.645c16.82,0,30.455,13.635,30.455,30.456v159.592
	c0,16.82-13.635,30.456-30.455,30.456h-16.645c-16.82,0-30.456-13.635-30.456-30.456V220.572
	C368.411,203.752,382.047,190.115,398.867,190.115z"/>
<path style="fill:#424C59;" d="M445.968,220.572v159.592c0,0.862-0.041,1.724-0.122,2.565c-1.805,0.345-3.66,0.517-5.556,0.517
	h-16.648c-16.82,0-30.456-13.636-30.456-30.456V193.197c0-0.862,0.041-1.724,0.122-2.565c1.805-0.345,3.67-0.517,5.566-0.517h16.637
	C432.332,190.115,445.968,203.752,445.968,220.572z"/>
<path style="fill:#D8401D;" d="M66.036,220.528v159.673H44.41c-20.328,0-36.803-16.475-36.803-36.803v-86.057
	c0-15.755,9.905-29.209,23.826-34.461c4.035-1.521,8.415-2.352,12.977-2.352L66.036,220.528L66.036,220.528z"/>
<path style="fill:#F9572B;" d="M66.036,220.528v133.799c-19.78-0.618-35.617-16.85-35.617-36.783v-86.057
	c0-2.971,0.355-5.85,1.014-8.608c4.035-1.521,8.415-2.352,12.977-2.352L66.036,220.528L66.036,220.528z"/>
<path style="fill:#D8401D;" d="M504.399,257.341v86.057c0,20.328-16.485,36.803-36.813,36.803H445.97V220.528h21.616
	C487.914,220.528,504.399,237.013,504.399,257.341z"/>
<g>
	<path style="fill:#F9572B;" d="M504.399,257.341v40.21c0,20.328-16.485,36.813-36.813,36.813H445.97V220.528h21.616
		C487.914,220.528,504.399,237.013,504.399,257.341z"/>
	<path style="fill:#F9572B;" d="M377.709,95.299h-0.095c-12.52,0-24.626-4.164-34.718-11.573
		C318.558,65.856,288.512,55.302,256,55.302c-32.502,0-62.548,10.554-86.886,28.424c-10.092,7.409-22.197,11.573-34.718,11.573
		h-0.103c-16.028,0-24.218-19.392-12.91-30.751C155.783,29.998,203.392,8.614,256,8.614c52.457,0,99.946,21.261,134.327,55.641
		c0.094,0.094,0.189,0.189,0.282,0.283C401.924,75.9,393.744,95.299,377.709,95.299z"/>
</g>
<path style="fill:#FCC63F;" d="M267.797,455.704h23.791c13.167,0,23.841,10.674,23.841,23.841l0,0
	c0,13.167-10.674,23.841-23.841,23.841h-23.791c-13.167,0-23.841-10.674-23.841-23.841l0,0
	C243.956,466.378,254.63,455.704,267.797,455.704z"/>
<path d="M467.587,212.926h-14.016v-14.345c0-108.941-88.63-197.571-197.572-197.571c-108.941,0-197.571,88.63-197.571,197.571
	v14.345H44.413C19.923,212.926,0,232.85,0,257.338v86.058c0,24.489,19.923,44.413,44.413,44.413h14.788
	c3.549,17.335,18.92,30.415,37.288,30.415h16.645c20.986,0,38.06-17.073,38.06-38.06v-43.075c0-4.199-3.405-7.604-7.604-7.604
	s-7.604,3.405-7.604,7.604v43.075c0,12.6-10.251,22.852-22.852,22.852H96.488c-12.6,0-22.851-10.251-22.851-22.852V220.572
	c0-12.6,10.251-22.851,22.851-22.851h16.645c12.6,0,22.852,10.251,22.852,22.851v91.168c0,4.199,3.405,7.604,7.604,7.604
	s7.604-3.405,7.604-7.604v-91.168c0-20.986-17.073-38.059-38.06-38.059H96.488c-8.476,0-16.312,2.787-22.644,7.49
	c1.778-38.196,15.363-73.354,37.178-101.909c4.274,9.16,13.079,14.809,23.27,14.809h0.104c14.03,0,27.591-4.512,39.218-13.048
	c24.011-17.63,52.5-26.948,82.385-26.948c17.768,0,35.072,3.295,51.431,9.793c3.901,1.55,8.324-0.357,9.874-4.26
	c1.55-3.903-0.357-8.323-4.26-9.874c-18.152-7.211-37.345-10.867-57.045-10.867c-33.146,0-64.747,10.338-91.386,29.898
	c-8.998,6.606-19.448,10.098-30.217,10.098h-0.104c-6.507,0-9.082-4.981-9.716-6.507c-0.574-1.381-2.031-5.93,1.24-10.172
	c33.12-33.793,79.241-54.798,130.184-54.798c50.945,0,97.067,21.006,130.187,54.802c3.265,4.244,1.809,8.791,1.235,10.171
	c-0.634,1.526-3.208,6.504-9.809,6.504c-10.77,0-21.219-3.492-30.217-10.098c-3.968-2.914-8.121-5.666-12.344-8.184
	c-3.608-2.151-8.275-0.97-10.425,2.638c-2.15,3.607-0.97,8.275,2.638,10.425c3.807,2.27,7.552,4.753,11.131,7.38
	c11.626,8.536,25.187,13.048,39.312,13.048c10.191,0,18.996-5.65,23.269-14.809c21.815,28.556,35.401,63.714,37.178,101.91
	c-6.333-4.703-14.169-7.49-22.645-7.49h-16.645c-20.986,0-38.06,17.073-38.06,38.059v159.592c0,20.986,17.073,38.06,38.06,38.06
	h16.645c8.569,0,16.483-2.849,22.852-7.646v1.2c0,46.32-37.684,84.004-84.005,84.004h-35.852c2.871-4.743,4.527-10.3,4.527-16.238
	c0-17.339-14.106-31.445-31.445-31.445h-23.791c-17.339,0-31.445,14.107-31.445,31.445c0,17.339,14.106,31.446,31.445,31.446h86.561
	c54.706,0,99.212-44.507,99.212-99.212v-23.97h14.016c24.489,0,44.413-19.923,44.413-44.413v-86.059
	C512,232.85,492.077,212.926,467.587,212.926z M15.208,343.396v-86.058c0-16.103,13.101-29.205,29.205-29.205h14.016v22.855V372.6
	H44.413C28.309,372.601,15.208,359.499,15.208,343.396z M251.56,479.545c0-8.953,7.285-16.237,16.237-16.237h23.791
	c8.953,0,16.237,7.285,16.237,16.237c0,8.953-7.285,16.238-16.237,16.238h-23.791C258.845,495.782,251.56,488.499,251.56,479.545z
	 M415.512,403.015h-16.645c-12.6,0-22.852-10.251-22.852-22.852V220.571c0-12.6,10.251-22.851,22.852-22.851h16.645
	c12.6,0,22.852,10.251,22.852,22.851v159.592C438.364,392.764,428.112,403.015,415.512,403.015z M496.792,343.396
	c0,16.103-13.101,29.205-29.205,29.205h-14.016V250.99v-22.855h14.016c16.103,0,29.205,13.101,29.205,29.205V343.396z"/>
<g>
</g>
<g>
</g>
<g>
</g>
<g>
</g>
<g>
</g>
<g>
</g>
<g>
</g>
<g>
</g>
<g>
</g>
<g>
</g>
<g>
</g>
<g>
</g>
<g>
</g>
<g>
</g>
<g>
</g>
</svg>
