<?xml version="1.0" encoding="utf-8"?>
<!-- Generator: Adobe Illustrator 22.0.1, SVG Export Plug-In . SVG Version: 6.00 Build 0)  -->
<svg version="1.1" id="Layer_1" xmlns="http://www.w3.org/2000/svg" xmlns:xlink="http://www.w3.org/1999/xlink" x="0px" y="0px"
	 viewBox="0 0 485 485" style="enable-background:new 0 0 485 485;" xml:space="preserve">
<style type="text/css">
	.st0{fill:#F8B64C;}
	.st1{fill:#ACB3BA;}
	.st2{fill:#FFD15C;}
	.st3{fill:#40596B;}
	.st4{fill:#FF7058;}
	.st5{fill:#8FE5AD;}
	.st6{fill:#02C54C;}
	.st7{fill:#FFFFFF;}
</style>
<g>
	<path class="st0" d="M199,260.4c8.1,10.8,19.8,16.2,32.5,16.2c12.6,0,25.3-6.3,32.5-16.2c0.9-0.9,0.9-1.8,1.8-2.7l-8.1-2.7l0,0l0,0
		l0,0c-6.3,8.1-15.3,12.6-25.3,12.6c-9,0-18.9-4.5-25.3-12.6l0,0l0,0l0,0l0,0l-9,2.7C198.1,258.6,198.1,260.4,199,260.4z"/>
	<g>
		<path class="st1" d="M231.5,268.6L231.5,268.6L231.5,268.6z"/>
		<path class="st1" d="M231.5,268.6L231.5,268.6L231.5,268.6z"/>
	</g>
	<g>
		<path class="st0" d="M206.2,255L206.2,255L206.2,255z"/>
		<path class="st0" d="M256.7,255L256.7,255L256.7,255z"/>
		
			<ellipse transform="matrix(0.9962 -8.719920e-02 8.719920e-02 0.9962 -17.2347 18.0579)" class="st0" cx="198.1" cy="206.3" rx="8.1" ry="11.7"/>
		
			<ellipse transform="matrix(8.719920e-02 -0.9962 0.9962 8.719920e-02 36.2588 452.1971)" class="st0" cx="264.9" cy="206.3" rx="11.7" ry="8.1"/>
	</g>
	<path class="st2" d="M197.2,173c-2.7,4.5-3.6,9.9-3.6,16.2v11.7c0,2.7,0,5.4,0.9,9l0,0c1.8,14.4,8.1,28,18,39.7l3.6,3.6
		c3.6,3.6,8.1,5.4,12.6,5.4h5.4c4.5,0,9.9-1.8,12.6-5.4l3.6-3.6c9.9-10.8,16.2-24.4,18-39.7c0-2.7,0.9-5.4,0.9-9v-11.7
		c0-5.4-0.9-10.8-3.6-16.2L197.2,173L197.2,173z"/>
	<path class="st0" d="M250.4,248.7l-3.6,3.6c-3.6,3.6-8.1,5.4-12.6,5.4h-5.4c-4.5,0-9.9-1.8-12.6-5.4l-3.6-3.6
		c-2.7-2.7-4.5-5.4-6.3-8.1V255l25.3,34.3l25.3-34.3v-14.4C254.9,243.3,253.1,246,250.4,248.7z"/>
	<path class="st3" d="M194.5,209l4.5,1.8c-0.9-4.5,0-10.8,1.8-14.4c0,0-2.7-21.6,13.5-19.8c0,0,12.6,4.5,36.1,0c0,0,9.9-0.9,8.1,9.9
		c0,0,0,11.7,5.4,14.4v9.9l5.4-0.9c0.9-3.6,0-28.9,0-28.9c-3.6-18-25.3-28-25.3-28c1.8-2.7,5.4-1.8,5.4-1.8c-28-17.1-46-0.9-46-0.9
		c-19.8,18-9,38.8-9,38.8C192.7,197.3,193.6,204.5,194.5,209z"/>
	<path class="st4" d="M145.8,324.5h172.3V301c0-11.7-6.3-21.6-17.1-26.2L257.6,255l0,0l0,0l0,0c-6.3,8.1-15.3,12.6-25.3,12.6
		c-9,0-18.9-4.5-25.3-12.6l0,0l0,0l0,0l0,0l-43.3,19.8c-9.9,4.5-17.1,15.3-17.1,26.2v23.4L145.8,324.5L145.8,324.5z"/>
	<path class="st3" d="M447.9,262.2v-77.6l-40.6-17.1c-2.7-9.9-7.2-19.8-11.7-28.9l16.2-41.5l-55-54.1l-40.6,16.2
		c-9-4.5-18.9-9-28.9-11.7L270.3,7h-77.6l-17.1,40.6c-9.9,3.6-19.8,7.2-28.9,11.7l-40.6-16.2l-55,55l17.1,41.5
		c-4.5,9-9,18.9-11.7,28.9L15,184.7v77.6l40.6,17.1c3.6,9.9,7.2,19.8,11.7,28.9l-16.2,40.6l55,55l41.5-16.2c9,4.5,18.9,9,28.9,11.7
		l17.1,40.6h77.6l17.1-40.6c9.9-3.6,19.8-7.2,28.9-11.7l40.6,16.2l55-55l-16.2-40.6c4.5-9,9-18.9,11.7-28.9L447.9,262.2z M231.5,320
		c-53.2,0-96.5-43.3-96.5-96.5s43.3-96.5,96.5-96.5s96.5,43.3,96.5,96.5S284.7,320,231.5,320z"/>
	<path class="st0" d="M162.9,292c-37.9-37.9-37.9-99.2,0-136.2c37.9-37.9,99.2-37.9,136.2,0l0,0L328,127l0,0
		c-53.2-53.2-140.7-53.2-193.9,0s-53.2,140.7,0,193.9l0,0L162.9,292L162.9,292z"/>
	<path class="st2" d="M328.9,320.9c53.2-53.2,53.2-140.7,0-193.9L300,155.8c37.9,37.9,37.9,99.2,0,136.2
		c-37.9,37.9-99.2,37.9-136.2,0L135,320.9C188.2,374.1,274.8,374.1,328.9,320.9z"/>
</g>
<g>
	<path class="st5" d="M428.1,275.7V339c0,57.6-39.1,107.8-95,122c-55.8-14.1-94.9-64.4-94.9-122v-63.3c43.9-4.9,68.8-21.7,94.9-41.2
		C359.3,254.1,384.2,270.8,428.1,275.7z"/>
	<path class="st6" d="M333.2,436c-42.1-13.4-71-52.4-71-97v-42.9c29.5-6.4,51.3-18.3,71-31.9c20.1,14,41.4,25.6,71,32V339
		C404.1,383.6,375.2,422.6,333.2,436z"/>
	<polygon class="st7" points="317.4,386.5 294,363.1 305.9,351.2 317.4,362.7 360.4,319.7 372.3,331.6 	"/>
</g>
</svg>
