<?xml version="1.0" encoding="utf-8"?>
<!-- Generator: Adobe Illustrator 22.0.0, SVG Export Plug-In . SVG Version: 6.00 Build 0)  -->
<svg version="1.1" id="Layer_1" xmlns="http://www.w3.org/2000/svg" xmlns:xlink="http://www.w3.org/1999/xlink" x="0px" y="0px"
	 viewBox="0 0 2043 882" style="enable-background:new 0 0 2043 882;" xml:space="preserve">
<style type="text/css">
	.st0{display:none;fill:#F5DE33;}
	.st1{fill:#27437A;}
	.st2{fill:#303545;}
	.st3{fill:#FFFFFF;}
	.st4{fill:#E6E7E8;stroke:#231F20;stroke-linecap:round;stroke-miterlimit:10;}
	.st5{fill:#F5DE33;}
	.st6{fill:#F2F2F2;}
	.st7{fill:#E3C79E;}
	.st8{fill:#BD9E7A;}
	.st9{fill:#0C0C0C;}
	.st10{fill:#232E47;}
	.st11{fill:#383833;}
	.st12{fill:url(#SVGID_1_);}
	.st13{fill:#A5A23A;}
	.st14{fill:#E6E7E8;}
	.st15{fill:#F8D94A;}
	.st16{fill:#785C3A;}
</style>
<rect x="-192" y="-144" class="st0" width="2520" height="1262"/>
<g>
	<path class="st1" d="M908.3,429.3c-10.2-23.8-15.4-48.9-15.4-75s5.1-51.2,15.4-75c10.2-23.8,24-44.4,41.2-61.6
		c17.2-17.2,37.8-31,61.6-41.2c23.8-10.2,48.8-15.4,75-15.4c26.2,0,51.2,5.1,75,15.4c23.8,10.2,44.4,24,61.6,41.2
		c17.2,17.3,31,37.8,41.2,61.6c10.2,23.8,15.4,48.8,15.4,75s-5.1,51.2-15.4,75c-10.2,23.8-24,44.4-41.2,61.6
		c-17.3,17.3-37.8,31-61.6,41.2c-23.8,10.2-48.9,15.4-75,15.4c-26.2,0-51.2-5.1-75-15.4c-23.8-10.2-44.4-24-61.6-41.2
		C932.3,473.6,918.5,453.1,908.3,429.3z M922.5,285.2c-9.4,22-14.1,45-14.1,69c0,24,4.7,47.1,14.1,69c9.4,22,22,40.9,37.9,56.8
		c15.9,15.9,34.8,28.5,56.8,37.9c22,9.4,45,14.1,69,14.1c24,0,47.1-4.7,69-14.1c22-9.4,40.9-22,56.8-37.9
		c15.9-15.9,28.5-34.8,37.9-56.8c9.4-22,14.1-45,14.1-69c0-24-4.7-47.1-14.1-69c-9.4-22-22-40.9-37.9-56.8
		c-15.9-15.9-34.8-28.5-56.8-37.9c-22-9.4-45-14.1-69-14.1c-24,0-47.1,4.7-69,14.1c-22,9.4-40.9,22-56.8,37.9
		S931.8,263.2,922.5,285.2z M945.6,435.6c-14.5-24.9-21.8-52-21.8-81.4c0-29.3,7.3-56.5,21.8-81.4c14.5-24.9,34.2-44.6,59.2-59.2
		c24.9-14.5,52-21.8,81.4-21.8c29.3,0,56.5,7.3,81.4,21.8c24.9,14.5,44.6,34.2,59.2,59.2c14.5,24.9,21.8,52,21.8,81.4
		c0,29.3-7.3,56.5-21.8,81.4c-14.5,24.9-34.2,44.6-59.2,59.2c-24.9,14.5-52,21.8-81.4,21.8c-29.3,0-56.5-7.3-81.4-21.8
		C979.9,480.2,960.2,460.5,945.6,435.6z M950.9,297.1c-7.7,18.2-11.6,37.2-11.6,57.1c0,19.9,3.9,38.9,11.6,57.1
		c7.7,18.2,18.1,33.8,31.2,46.9s28.7,23.5,46.9,31.2c18.2,7.7,37.2,11.6,57.1,11.6c19.9,0,38.9-3.9,57.1-11.6
		c18.2-7.7,33.8-18.1,46.9-31.2c13.1-13.1,23.5-28.7,31.2-46.9c7.7-18.2,11.6-37.2,11.6-57.1c0-19.9-3.9-38.9-11.6-57.1
		c-7.7-18.2-18.1-33.8-31.2-46.9c-13.1-13.1-28.7-23.5-46.9-31.2c-18.2-7.7-37.2-11.6-57.1-11.6c-19.9,0-38.9,3.9-57.1,11.6
		c-18.2,7.7-33.8,18.1-46.9,31.2C969,263.3,958.6,278.9,950.9,297.1z M972.4,420.1c-11.7-20.2-17.6-42.2-17.6-65.9
		c0-23.8,5.9-45.7,17.6-65.9c11.7-20.2,27.7-36.1,47.9-47.9c20.2-11.7,42.2-17.6,65.9-17.6c23.8,0,45.7,5.9,65.9,17.6
		c20.2,11.7,36.1,27.7,47.9,47.9c11.7,20.2,17.6,42.2,17.6,65.9c0,23.8-5.9,45.7-17.6,65.9c-11.7,20.2-27.7,36.1-47.9,47.9
		c-20.2,11.7-42.2,17.6-65.9,17.6c-23.8,0-45.7-5.9-65.9-17.6C1000.1,456.3,984.1,440.3,972.4,420.1z M985.8,296
		c-10.4,17.8-15.6,37.1-15.6,58.2s5.2,40.4,15.6,58.2c10.4,17.8,24.4,31.8,42.2,42.2c17.7,10.4,37.1,15.6,58.2,15.6
		c21,0,40.4-5.2,58.2-15.6c17.7-10.4,31.8-24.4,42.2-42.2c10.4-17.7,15.6-37.1,15.6-58.2s-5.2-40.4-15.6-58.2
		c-10.4-17.7-24.4-31.8-42.2-42.2c-17.8-10.4-37.1-15.6-58.2-15.6c-21,0-40.4,5.2-58.2,15.6C1010.2,264.2,996.2,278.3,985.8,296z
		 M993.6,393.2c-5.3-12.4-7.9-25.4-7.9-39c0-13.6,2.6-26.6,7.9-39c5.3-12.4,12.5-23.1,21.5-32.1c9-9,19.7-16.2,32.1-21.5
		c12.4-5.3,25.4-7.9,39-7.9c13.6,0,26.6,2.7,39,7.9c12.4,5.3,23.1,12.5,32.1,21.5c9,9,16.2,19.7,21.5,32.1c5.3,12.4,7.9,25.4,7.9,39
		c0,13.6-2.7,26.6-7.9,39c-5.3,12.4-12.5,23.1-21.5,32.1c-9,9-19.7,16.2-32.1,21.5c-12.4,5.3-25.4,7.9-39,7.9
		c-13.6,0-26.6-2.6-39-7.9c-12.4-5.3-23.1-12.5-32.1-21.5C1006.1,416.3,998.9,405.6,993.6,393.2z M1026.1,294.1
		c-16.6,16.6-24.9,36.6-24.9,60.1c0,23.5,8.3,43.5,24.9,60.1c16.6,16.6,36.6,24.9,60.1,24.9c23.5,0,43.5-8.3,60.1-24.9
		c16.6-16.6,24.9-36.6,24.9-60.1c0-23.5-8.3-43.5-24.9-60.1c-16.6-16.6-36.6-24.9-60.1-24.9C1062.7,269.2,1042.7,277.5,1026.1,294.1
		z"/>
	<path class="st1" d="M1380.1,501.5l86.1-325.1h16.1L1388.1,532H1372l-94-355.6h16.1L1380.1,501.5z M1390.9,422.7l-7.3,30.5
		l-73.4-276.8h15.9L1390.9,422.7z M1407,363.2l-7.9,29.6l-56.9-216.4h15.7L1407,363.2z M1423.1,301.6l-8.2,30.1l-41-155.2h16.1
		L1423.1,301.6z M1420.1,532h-15.9l94.3-355.6h15.7L1420.1,532z M1452.1,532h-15.9l94-355.6h15.9L1452.1,532z M1484.3,532h-16.1
		l94-355.2l-0.2-0.4h16.3v0.4l41.9,144.3l38.4-144.7h16.1L1580.5,532h-16.1l-42.1-144.1L1484.3,532z M1530.4,357.7l41.7,145.2
		l8.2-30.7l-41.9-144.7L1530.4,357.7z M1546.3,297.1l41.9,144.7l8.2-30.3l-41.9-144.9L1546.3,297.1z M1562.2,237l42.1,144.7
		l7.9-30.5l-41.7-145.2L1562.2,237z M1612.5,532h-15.9l94.3-355.6h15.7L1612.5,532z M1644.5,532h-15.9l94-355.6h15.9L1644.5,532z
		 M1676.7,532h-16.1l94-355.6h16.1L1676.7,532z"/>
	<path class="st1" d="M1799.9,176.4h15.5V532h-15.5V176.4z M1830.8,176.4h15.5V532h-15.5V176.4z M1861.8,176.4h15.5V532h-15.5V176.4
		z M1892.7,176.4h15.5v278.3h123.7v15.5h-123.7v15.5h123.7v15.5h-123.7v15.5h123.7V532h-139.1V176.4z"/>
</g>
<g>
	<path class="st1" d="M1040.6,580.4v152.5h-19.7V580.4H1040.6z"/>
	<path class="st1" d="M1075,732.9V580.4h21.5l48.9,77.1c11.3,17.9,20.1,33.9,27.4,49.5l0.5-0.2c-1.8-20.4-2.3-38.9-2.3-62.7v-63.8
		h18.5v152.5h-19.9l-48.4-77.4c-10.6-17-20.8-34.4-28.5-50.9l-0.7,0.2c1.1,19.2,1.6,37.6,1.6,62.9v65.1H1075z"/>
	<path class="st1" d="M1252.8,597.2h-46.4v-16.7h112.9v16.7h-46.6v135.7h-19.9V597.2z"/>
	<path class="st1" d="M1415.2,661.4h-59.3v55h66.1v16.5h-85.7V580.4h82.3V597h-62.7v48.2h59.3V661.4z"/>
	<path class="st1" d="M1447.5,582.5c10-2,24.2-3.2,37.8-3.2c21,0,34.6,3.8,44.1,12.4c7.7,6.8,12,17.2,12,29
		c0,20.1-12.7,33.5-28.7,38.9v0.7c11.8,4.1,18.8,14.9,22.4,30.8c5,21.3,8.6,36,11.8,41.8h-20.4c-2.5-4.3-5.9-17.4-10.2-36.4
		c-4.5-21-12.7-29-30.5-29.6h-18.5v66.1h-19.7V582.5z M1467.2,651.9h20.1c21,0,34.4-11.5,34.4-29c0-19.7-14.3-28.3-35.1-28.5
		c-9.5,0-16.3,0.9-19.5,1.8V651.9z"/>
	<path class="st1" d="M1569.2,732.9V580.4h21.5l48.9,77.1c11.3,17.9,20.1,33.9,27.4,49.5l0.5-0.2c-1.8-20.4-2.3-38.9-2.3-62.7v-63.8
		h18.5v152.5h-19.9l-48.4-77.4c-10.6-17-20.8-34.4-28.5-50.9l-0.7,0.2c1.1,19.2,1.6,37.6,1.6,62.9v65.1H1569.2z"/>
	<path class="st1" d="M1797,661.4h-59.3v55h66.1v16.5h-85.7V580.4h82.3V597h-62.7v48.2h59.3V661.4z"/>
	<path class="st1" d="M1861.9,597.2h-46.4v-16.7h112.9v16.7h-46.6v135.7h-19.9V597.2z"/>
</g>
<g>
	<circle class="st2" cx="444.8" cy="445.8" r="417.3"/>
	<g>
		<path class="st3" d="M42.5,445.8c0-11.2,0.4-22.4,1.3-33.6c0.4-5.1,0.9-10.1,1.5-15.2c0.2-1.4,0.3-2.7,0.5-4.1
			c0.5-4.5-0.5,3,0.2-1.5c0.5-3.2,0.9-6.3,1.4-9.5c3.4-20.9,8.5-41.6,15-61.8c3.2-9.7,6.7-19.4,10.6-28.8c0.1-0.3,1.9-4.4,0.5-1.3
			c0.5-1.2,1-2.4,1.6-3.7c1.1-2.4,2.2-4.9,3.3-7.3c2.2-4.8,4.5-9.6,6.9-14.3c9.3-18.4,20.1-36.1,32-53c2.8-3.9,5.7-7.8,8.6-11.6
			c2.6-3.5-1.8,2.3,0.9-1.1c0.8-1,1.6-2.1,2.4-3.1c1.9-2.4,3.8-4.8,5.8-7.1c6.4-7.7,13.2-15.2,20.2-22.4
			c7.3-7.5,14.9-14.8,22.7-21.8c3.6-3.2,7.2-6.3,10.9-9.4c2-1.7,4.1-3.3,6.1-5c1-0.8,2.1-1.6,3.1-2.4c2.5-2-1.7,1.2,1.1-0.9
			c16.4-12.5,33.7-23.8,51.7-33.8c9.3-5.1,18.7-9.9,28.4-14.3c2.4-1.1,4.8-2.2,7.3-3.2c-0.1,0,3.9-1.7,1.9-0.8c-2,0.9,2-0.8,1.9-0.8
			c5.3-2.2,10.7-4.3,16.2-6.3c19.9-7.2,40.3-12.9,61-17c4.9-1,9.8-1.9,14.8-2.6c2.7-0.4,5.4-0.8,8.1-1.2c4.5-0.6-3.1,0.3,1.5-0.2
			c1.4-0.2,2.7-0.3,4.1-0.5c11.1-1.3,22.2-2.1,33.3-2.5c21.9-0.8,43.9,0.1,65.6,2.7c1.4,0.2,2.7,0.3,4.1,0.5
			c-3.4-0.4,1.1,0.2,1.5,0.2c2.3,0.3,4.5,0.7,6.8,1c5.8,0.9,11.7,2,17.5,3.2c10.2,2.1,20.3,4.5,30.2,7.4c10.3,2.9,20.5,6.3,30.6,10
			c4.6,1.7,9.1,3.5,13.7,5.3c0.3,0.1,4.4,1.9,1.3,0.5c1.2,0.5,2.4,1,3.7,1.6c2.4,1.1,4.9,2.2,7.3,3.3c19,8.7,37.3,18.9,54.8,30.4
			c8.6,5.7,17,11.6,25.1,17.9c-2.6-2,0.8,0.7,1.1,0.9c1,0.8,2.1,1.6,3.1,2.5c1.7,1.4,3.4,2.8,5.1,4.2c4.4,3.6,8.7,7.4,12.9,11.2
			c15.2,13.8,29.5,28.6,42.6,44.5c1.4,1.7,2.8,3.4,4.1,5.1c0.8,1,1.6,2.1,2.4,3.1c2.7,3.4-1.8-2.4,0.9,1.1c3.2,4.2,6.3,8.4,9.3,12.7
			c6.1,8.6,11.8,17.4,17.2,26.5c5.3,8.9,10.3,18,14.9,27.2c2.3,4.5,4.5,9.1,6.6,13.7c0.9,2,1.8,4,2.7,6.1c0.5,1.2,1.1,2.4,1.6,3.7
			c-1.3-3.1,0.8,2,1,2.6c7.9,19.5,14.4,39.6,19.2,60c2.5,10.6,4.6,21.3,6.3,32.1c0.4,2.3,0.7,4.5,1,6.8c0.6,4.5-0.3-3.1,0.2,1.5
			c0.2,1.4,0.3,2.7,0.5,4.1c0.6,5.5,1.2,11,1.6,16.5c1.7,22.1,1.6,44.4-0.2,66.5c-0.4,5.3-1,10.6-1.6,15.8c-0.2,1.4-0.3,2.7-0.5,4.1
			c0.4-2.8,0.1-0.5,0,0.1c-0.5,3.2-0.9,6.3-1.4,9.5c-1.8,10.7-3.9,21.4-6.5,32c-5,20.4-11.7,40.4-19.6,59.9
			c-1.7,4.1,1.2-2.7-0.6,1.3c-0.4,0.8-0.7,1.6-1.1,2.4c-1.1,2.4-2.2,4.9-3.3,7.3c-2.2,4.8-4.5,9.6-6.9,14.3
			c-4.8,9.4-9.9,18.7-15.4,27.7c-5.3,8.8-11,17.4-17,25.8c-2.9,4.1-5.9,8.1-9,12.1c2-2.6-0.7,0.8-0.9,1.1c-0.5,0.7-1.1,1.4-1.6,2.1
			c-1.9,2.4-3.8,4.8-5.8,7.1c-13.2,15.8-27.5,30.5-42.8,44.2c-3.8,3.3-7.6,6.6-11.4,9.8c-1.9,1.5-3.7,3.1-5.6,4.6
			c-1,0.8-2.1,1.6-3.1,2.4c-1.4,1.1-1.4,1.1-0.1,0.1c-0.7,0.5-1.4,1.1-2.1,1.6c-8,6.1-16.3,11.9-24.7,17.4
			c-17.5,11.4-35.9,21.5-55,30.2c-2.2,1-4.4,2-6.7,3c-0.3,0.1-4.4,1.9-1.3,0.6c-1.2,0.5-2.5,1-3.7,1.5c-4.9,2-9.9,3.9-14.9,5.7
			c-10.1,3.7-20.3,6.9-30.7,9.8c-10,2.8-20.1,5.2-30.3,7.2c-5.4,1.1-10.7,2-16.1,2.9c-2.3,0.4-4.5,0.7-6.8,1
			c-4.5,0.6,3.1-0.3-1.5,0.2c-1.8,0.2-3.7,0.4-5.5,0.7c-21.8,2.5-43.8,3.2-65.7,2.3c-10.9-0.5-21.7-1.4-32.5-2.7
			c-1.1-0.1-2.3-0.3-3.4-0.4c3.4,0.4-1.1-0.2-1.5-0.2c-2.7-0.4-5.4-0.8-8.1-1.2c-5.4-0.9-10.8-1.9-16.1-3c-20.7-4.2-41-10-60.8-17.4
			c-5-1.9-10-3.8-14.9-5.8c-0.5-0.2-2.7-1.1-0.1,0c-1.2-0.5-2.4-1-3.7-1.6c-2.8-1.2-5.7-2.5-8.5-3.8c-9.2-4.3-18.2-8.9-27.1-13.8
			c-9.2-5.1-18.2-10.6-27-16.4c-4-2.7-8-5.4-11.9-8.2c-2.1-1.5-4.3-3.1-6.4-4.6c-1.1-0.8-2.1-1.6-3.2-2.4c-0.4-0.3-3.9-3-2.7-2
			c1.7,1.3-1.7-1.3-1.6-1.3c-1-0.8-2.1-1.6-3.1-2.5c-2-1.6-4.1-3.3-6.1-5c-4-3.4-8-6.8-11.9-10.3c-7.8-7-15.3-14.3-22.5-21.9
			c-6.9-7.3-13.6-14.8-20-22.5c-1.7-2-3.3-4.1-5-6.1c-0.8-1-1.6-2.1-2.4-3.1c2,2.6-0.6-0.8-0.9-1.1c-3.2-4.2-6.3-8.4-9.3-12.7
			c-11.9-16.9-22.5-34.7-31.7-53.2c-2.2-4.3-4.3-8.7-6.3-13.2c-1.1-2.4-2.2-4.8-3.2-7.3c-0.1-0.3-1.9-4.4-0.6-1.3
			c-0.6-1.4-1.2-2.9-1.8-4.3c-3.9-9.7-7.5-19.6-10.7-29.5c-6.5-20.2-11.4-41-14.6-61.9c-0.4-2.7-0.8-5.4-1.2-8.2
			c0.5,3.4-0.1-1.1-0.2-1.5c-0.2-1.4-0.3-2.7-0.5-4.1c-0.6-5.1-1-10.1-1.4-15.2C42.9,467.3,42.5,456.5,42.5,445.8
			c0-7.8-6.9-15.4-15-15c-8.1,0.4-15,6.6-15,15c0.1,89.2,27.8,177.6,79.8,250.2c51.1,71.3,122.6,126.1,205,156.2
			c84.5,31,179.1,34.1,265.7,9.5c83.8-23.8,160-73.5,215.2-140.9c56.6-69,90.9-153.8,97.7-242.9c6.8-89.1-14.8-179.7-61.2-256.1
			C770,148.2,702.9,88,624.3,52.4c-83.6-37.8-177.5-48.4-267.4-30c-85.3,17.4-164.6,61.8-224.6,124.7C72,210.2,31.1,291.6,17.9,378
			c-3.4,22.4-5.3,45-5.4,67.8c0,7.8,6.9,15.4,15,15C35.6,460.4,42.5,454.2,42.5,445.8z"/>
	</g>
</g>
<path class="st3" d="M238.1,169c-7.7-1.3-15.4-2.5-23.2-3.8c0.1-0.1,0.1-0.1,0.2-0.1c3.7-2.2,7.5-4.4,11.2-6.6
	c2.8-1.6,5.5-3.3,8.3-4.9c0.1-0.1,0.1-0.1,0.1-0.3c-1.2-7.5-2.3-14.9-3.5-22.4c0-0.1,0-0.1,0-0.2c0.1,0.1,0.1,0.1,0.2,0.2
	c3.5,3.3,7.1,6.6,10.6,9.9c2,1.9,4.1,3.8,6.1,5.7c0.1,0.1,0.2,0.1,0.3,0c6.8-3.5,13.6-7.1,20.4-10.6c0.1,0,0.1-0.1,0.2-0.1
	c-0.2,0.4-0.4,0.9-0.6,1.3c-2.9,6.7-5.8,13.3-8.7,20c-0.1,0.2,0,0.2,0.1,0.3c5.6,5.2,11.2,10.4,16.7,15.6c0.1,0.1,0.1,0.1,0.2,0.2
	c-0.1,0-0.2,0-0.2,0c-7.5-0.6-15-1.3-22.6-1.9c-0.2,0-0.2,0-0.3,0.2c-3.4,6.7-6.8,13.5-10.1,20.2c0,0.1-0.1,0.1-0.1,0.2
	C241.6,184.2,239.9,176.6,238.1,169z"/>
<path class="st3" d="M498.1,118c-7.7-1.3-15.4-2.5-23.2-3.8c0.1-0.1,0.1-0.1,0.2-0.1c3.7-2.2,7.5-4.4,11.2-6.6
	c2.8-1.6,5.5-3.3,8.3-4.9c0.1-0.1,0.1-0.1,0.1-0.3c-1.2-7.5-2.3-14.9-3.5-22.4c0-0.1,0-0.1,0-0.2c0.1,0.1,0.1,0.1,0.2,0.2
	c3.5,3.3,7.1,6.6,10.6,9.9c2,1.9,4.1,3.8,6.1,5.7c0.1,0.1,0.2,0.1,0.3,0c6.8-3.5,13.6-7.1,20.4-10.6c0.1,0,0.1-0.1,0.2-0.1
	c-0.2,0.4-0.4,0.9-0.6,1.3c-2.9,6.7-5.8,13.3-8.7,20c-0.1,0.2,0,0.2,0.1,0.3c5.6,5.2,11.2,10.4,16.7,15.6c0.1,0.1,0.1,0.1,0.2,0.2
	c-0.1,0-0.2,0-0.2,0c-7.5-0.6-15-1.3-22.6-1.9c-0.2,0-0.2,0-0.3,0.2c-3.4,6.7-6.8,13.5-10.1,20.2c0,0.1-0.1,0.1-0.1,0.2
	C501.6,133.2,499.9,125.6,498.1,118z"/>
<path class="st3" d="M722.1,674c-7.7-1.3-15.4-2.5-23.2-3.8c0.1-0.1,0.1-0.1,0.2-0.1c3.7-2.2,7.5-4.4,11.2-6.6
	c2.8-1.6,5.5-3.3,8.3-4.9c0.1-0.1,0.1-0.1,0.1-0.3c-1.2-7.5-2.3-14.9-3.5-22.4c0-0.1,0-0.1,0-0.2c0.1,0.1,0.1,0.1,0.2,0.2
	c3.5,3.3,7.1,6.6,10.6,9.9c2,1.9,4.1,3.8,6.1,5.7c0.1,0.1,0.2,0.1,0.3,0c6.8-3.5,13.6-7.1,20.4-10.6c0.1,0,0.1-0.1,0.2-0.1
	c-0.2,0.4-0.4,0.9-0.6,1.3c-2.9,6.7-5.8,13.3-8.7,20c-0.1,0.2,0,0.2,0.1,0.3c5.6,5.2,11.2,10.4,16.7,15.6c0.1,0.1,0.1,0.1,0.2,0.2
	c-0.1,0-0.2,0-0.2,0c-7.5-0.6-15-1.3-22.6-1.9c-0.2,0-0.2,0-0.3,0.2c-3.4,6.7-6.8,13.5-10.1,20.2c0,0.1-0.1,0.1-0.1,0.2
	C725.6,689.2,723.9,681.6,722.1,674z"/>
<path class="st3" d="M792.1,438c-7.7-1.3-15.4-2.5-23.2-3.8c0.1-0.1,0.1-0.1,0.2-0.1c3.7-2.2,7.5-4.4,11.2-6.6
	c2.8-1.6,5.5-3.3,8.3-4.9c0.1-0.1,0.1-0.1,0.1-0.3c-1.2-7.5-2.3-14.9-3.5-22.4c0-0.1,0-0.1,0-0.2c0.1,0.1,0.1,0.1,0.2,0.2
	c3.5,3.3,7.1,6.6,10.6,9.9c2,1.9,4.1,3.8,6.1,5.7c0.1,0.1,0.2,0.1,0.3,0c6.8-3.5,13.6-7.1,20.4-10.6c0.1,0,0.1-0.1,0.2-0.1
	c-0.2,0.4-0.4,0.9-0.6,1.3c-2.9,6.7-5.8,13.3-8.7,20c-0.1,0.2,0,0.2,0.1,0.3c5.6,5.2,11.2,10.4,16.7,15.6c0.1,0.1,0.1,0.1,0.2,0.2
	c-0.1,0-0.2,0-0.2,0c-7.5-0.6-15-1.3-22.6-1.9c-0.2,0-0.2,0-0.3,0.2c-3.4,6.7-6.8,13.5-10.1,20.2c0,0.1-0.1,0.1-0.1,0.2
	C795.6,453.2,793.9,445.6,792.1,438z"/>
<path class="st4" d="M617.5,291.5"/>
<path class="st5" d="M653,162c-25.6,16.9-38.9,47.1-34,77c5.2,31.7,30.1,57.2,62,63c30.8,5.6,62.2-8.3,79-35
	c-11.4,41.8-50.9,69.7-93.3,66.5c-41.6-3.2-78.5-35.8-81.9-79.8C581.5,211.7,610.3,172.1,653,162z"/>
<path class="st6" d="M41,445c19.3-33.1,37.9-58.6,51.5-76.1c37.1-47.5,65.2-82.9,114.2-107.2c5.9-2.9,29.6-14.3,62.9-22.1
	c10.1-2.4,36.5-8,71.1-8.2c11.5-0.1,34.4,0.5,62.9,5.8c16.2,3.1,34.5,6.6,57.1,16.3c24.2,10.4,40.7,22.3,46.6,26.8
	c12.6,9.5,20.3,17.5,34.9,32.6c15.6,16.2,25.2,26,34.9,39.6c18.3,25.4,26.5,48.6,32.6,66.4c2.9,8.4,13.3,39.8,16.3,82.7
	c0,0,2.1,31.1-2,65.3c-6.5,54.5-45,156.1-116,275c-39.1,7.5-103.9,14-178-7c-15.4-4.4-57.3-17.4-104.7-47.9
	C201.6,771.8,154.8,738,114,680c0,0-47.3-67.3-60-134c0,0,0,0,0-0.1c-0.1-0.5-0.4-2.3-0.9-4.8c-0.3-1.4-0.6-3.1-1-5.1
	c-2.1-10.1-3.2-15.1-4-19C46.7,510.7,44.5,492.9,41,445z"/>
<path class="st5" d="M46,505c27.7-50.7,55.8-90.2,77.9-118.4c54.2-69.2,85.2-86.6,100.2-94c5.1-2.5,25.9-12.6,55.2-19.4
	c8.9-2.1,32-7,62.3-7.2c10.1,0,30.2,0.4,55.2,5.1c14.2,2.7,30.2,5.8,50.1,14.3c21.2,9.1,35.7,19.6,40.9,23.5
	c11,8.3,17.8,15.4,30.7,28.6c13.7,14.2,22.1,22.8,30.7,34.7c16.1,22.3,23.2,42.6,28.6,58.3c2.6,7.4,11.7,34.9,14.3,72.6
	c0,0,1.8,27.4-1.8,57.3C584.4,607.8,543,716.6,468,851c-26.9,1.1-193,5.2-316-124C70.7,641.7,51.5,543.6,46,505z"/>
<path class="st5" d="M639,1017"/>
<g>
	<path class="st7" d="M278.5,620c4.3-3.6,9.8-7.5,16.5-11c3.4-1.8,6.7-3.2,9.8-4.4c5.6-1.4,13.2-2.8,22.2-3
		c3.1-0.1,12.6-0.2,24.8,2.5c12.3,2.7,21.3,6.9,28.9,10.5c4.1,1.9,2,1.1,15.8,8.2c14.3,7.3,18.3,9.1,23.2,10.7
		c5.2,1.8,9.1,2.7,14.4,3.9c7.7,1.7,12.9,2.9,19.8,3.3c1.4,0.1,7.2,0.3,15.5-0.8c3.8-0.5,20.4-2.9,40-13.1
		c14.6-7.6,23.6-15.8,25.6-17.5c7.8-7.2,12.6-13.7,14.1-15.7c1.1-1.6,5.3-7.5,9.4-16.2c3.6-7.7,5.4-14.5,8.9-28.2
		c3.1-11.9,4.7-17.9,5.6-25.2c1.2-9.4,1.2-17.4,1-23c7.3,2,17.8,4.7,30.5,7.1c19.3,3.6,21.2,2.4,21.6,1.5c2-4.1-17.8-17.2-20-18.7
		c-22.3-14.7-44.6-21.4-70.1-26.8c-43-9.1-76.8-10.6-88-11c-28.3-0.9-53.5,0.6-74.6,2.9C341.8,510.6,310.2,565.3,278.5,620z"/>
</g>
<g>
	<path class="st8" d="M-366.9,527.6"/>
	<path class="st8" d="M371.1,459.9c-19.2,37.2-40.6,74.5-64.6,111.7c-1.8,2.8-3.6,5.6-5.4,8.3c7-4.6,18.7-11,34-13
		c46.8-6.1,65.1,37.9,116,42c32.4,2.6,70.9-11.8,92-42c19-27.3,17.2-57.8,16-69C496.4,485.3,433.7,472.6,371.1,459.9z"/>
</g>
<g>
	<path class="st7" d="M279.2,619.6c1-5.5,1.6-12.2,1.4-19.7c-0.1-3.9-0.5-7.4-1-10.7c-1.6-5.6-4.1-12.8-8.4-20.7
		c-1.5-2.7-6.1-11-14.5-20.3c-8.5-9.4-16.6-15-23.5-19.9c-3.7-2.6-2-1.2-14.9-9.6c-13.4-8.8-17-11.4-20.9-14.8
		c-4.1-3.6-6.9-6.6-10.5-10.6c-5.3-5.8-9-9.8-12.7-15.6c-0.7-1.2-3.9-6.1-7-13.8c-1.5-3.6-7.6-19.1-8.5-41.2
		c-0.7-16.4,1.9-28.3,2.5-30.9c2.3-10.4,5.6-17.7,6.7-20.1c0.8-1.8,3.9-8.4,9.4-16.2c0.9-1.3,1.8-2.4,2.6-3.5
		c5.3-6.5,10.6-12.1,17.4-18.2c8.9-8,13.3-12,18.8-15.7c8.1-5.5,15.6-8.9,21-11c-18-20.5-25.4-28.9-26.1-29.7c0,0,0,0,0,0
		c-0.2-0.2-1-1.1-1.9-2.3c-1.8-2.3-8-10.1-6.6-11.9c2.7-3.8,23.1,6.5,26.2,8.1c23.8,12.1,40.7,28,58.1,47.5
		c29.3,32.8,47.4,61.4,53.3,70.9c14.9,24.1,26.1,46.7,34.5,66.1C342.7,510.3,310.9,565,279.2,619.6z"/>
</g>
<path class="st9" d="M326,477"/>
<path class="st1" d="M327,476"/>
<path class="st10" d="M356,418c3.7,6.4,7.4,13.4,11,21c2.6,5.5,4.9,10.9,7,16c13.7-0.7,27.3-1.3,41-2c-1.3,1.9-3.5,4.6-7,6
	c-3.8,1.6-5.9,0.3-10,1c-6.5,1-6.8,5.7-14,8c-6.3,2-12.5,4-18,1c-5.4-3-1.9-9.2-8-20c-3.9-6.9-6.8-7.2-8-12
	C348.2,430,352.2,422.9,356,418z"/>
<path class="st6" d="M342,507"/>
<path class="st11" d="M278,620c-1.8-2,15.3-32,47-40c21.8-5.5,40.8,1.9,46,4c10.3,4.2,11.1,7.2,32,19c14.3,8.1,21.5,12.1,30,15
	c25.2,8.6,48.5,3.1,57,1c8.6-2.1,35.4-9.9,57-35c8.6-10.1,13.9-19.9,17-27c0.9-1.1,1.7-2.2,2-2c0.2,0.1,0.1,0.8,0,1
	c-6,25.6-19,41-19,41c-4.3,5.1-18.8,21.4-44,33c-8.9,4.1-22.5,10.1-41,11c-15.2,0.7-27.1-2.7-35-5c-8.4-2.4-12.3-4.4-31-13
	c-25.9-11.9-38.9-17.8-44-19c-7.2-1.7-26.3-5.9-47,1C287.3,610.9,279.1,621.2,278,620z"/>
<g>
	<path class="st8" d="M699.9,1117"/>
	<path class="st8" d="M375,462c-20.3,35.3-40.7,70.7-61,106c-3.3,3.3-6.7,6.7-10,10c0.5-9,0.2-23-6.3-37.6
		c-19.2-43.3-67.2-33.8-96.7-76.7C178,430.1,181.3,386.5,191,363c5.4-13.1,15-23,15-23c13.8-15,29.7-21.4,38-24
		C287.7,364.7,331.3,413.3,375,462z"/>
</g>
<path class="st11" d="M277.1,620.6c2.6,0.6,20.6-28.9,12.2-60.5c-5.7-21.7-21.4-34.8-25.8-38.3c-8.6-7-11.7-6.2-32.1-18.8
	c-14-8.6-21-13-27.6-19c-19.7-17.9-26.2-41-28.5-49.4c-2.3-8.5-8.5-35.8,3-66.8c4.6-12.4,10.7-21.8,15.4-27.9
	c0.6-1.3,1.1-2.5,0.8-2.7c-0.2-0.1-0.7,0.3-0.9,0.5c-19.5,17.6-26.7,36.5-26.7,36.5c-2.4,6.2-9.6,26.8-7.6,54.5
	c0.7,9.7,2,24.6,10.2,41.2c6.7,13.6,15.5,22.4,21.3,28.2c6.2,6.2,9.8,8.6,26.4,20.8c22.9,16.9,34.4,25.4,37.9,29.3
	c4.9,5.5,17.8,20.1,21.9,41.6C280.6,608.1,275.4,620.3,277.1,620.6z"/>
<path class="st10" d="M313,443c16.7,10.7,34.1,21.3,52,32c15.2,9,30.2,17.7,45,26c-1.5,0.2-3.6,0.4-6.1,0.8
	c-11.4,1.6-20.4,4.2-23.9,5.2c-16.5,5.3-29.8,17.9-31,19c-10.7,10.3-17.5,14.1-35.1,35.4c-0.1,0.1-0.5,0.6-1.2,0.6
	c-0.7,0-1.4-0.3-1.6-1c-0.2-0.4-0.1-0.8,0-1c10.4-31.8,10.9-36.3,13-45c4.1-17.2,1.7-31.9,1-36c-0.1-0.5-0.4-2.3-1-5
	C321,460.6,316.6,450.2,313,443z"/>
<linearGradient id="SVGID_1_" gradientUnits="userSpaceOnUse" x1="325.7572" y1="506.2769" x2="354.4354" y2="522.8343">
	<stop  offset="0" style="stop-color:#666666"/>
	<stop  offset="1" style="stop-color:#FFFFFF"/>
</linearGradient>
<path class="st12" d="M334,492c9-4,18-8,27-12c0.7,9.3,1.3,18.7,2,28c-6.9,5.2-14.1,11.2-21.6,18.1c-8.5,7.9-16,15.6-22.4,22.9
	c3.2-8.8,6.3-18.4,9-29C330.6,510.1,332.5,500.7,334,492z"/>
<rect x="363.4" y="454.5" transform="matrix(0.9115 0.4113 -0.4113 0.9115 224.2124 -109.6306)" class="st10" width="7" height="23.5"/>
<path class="st10" d="M253.5,328.5c11.2,16.2,22.8,34.8,34,56c14.1,26.8,24.6,52.1,32.5,74.5c-6,4.9-23.5,17.8-48,17.5
	c-31.9-0.3-61.7-22.8-70.5-53C190.9,387.2,212.2,344.4,253.5,328.5z"/>
<path class="st10" d="M471.5,590.5c-29.8,1.9-66.1-13.4-77.9-45c-7.1-18.9-3-36.5-0.6-44.5c16.4-6.1,37.3-12.3,62-16
	c28.3-4.2,53-3.7,72-2c3,2.5,7.2,6.5,10.5,12.5c12.5,23.1,0.7,56.7-19.5,75.5C500.2,587.6,478.7,590,471.5,590.5z"/>
<path class="st13" d="M469,569.3c-22.7,2.4-47.3-10.2-56-32.4c-6.5-16.4-1.8-31.7,0.1-37c4.4-0.8,10-1.7,16.5-2.6
	c2.7-0.4,13.8-1.8,29-2.9c21.2-1.5,40.9-1.6,53.5-1.5c1.8,3.1,4.1,8,5.2,14.3c3.6,19.3-6.7,34.9-10.2,39.7
	C505,549.8,492,566.9,469,569.3z"/>
<path class="st13" d="M224.2,426.7c-10.7-19.7-8-43.8,4.8-60.7c13.9-18.4,34.7-21.5,39-22c7,14,14.1,28.6,21,43.9
	c8.3,18.3,15.8,36.2,22.6,53.4c-2.7,2.3-20.4,17.2-45.6,13.7C263.1,454.6,237.2,450.6,224.2,426.7z"/>
<path class="st7" d="M552,520"/>
<path class="st10" d="M432,492c-2.3,3.6-7.6,12.8-7,25c0.6,13.8,8.4,27,21,34c2.5,1.4,18.9,10.2,36,2c16.9-8.1,20.4-26.1,21-30
	c2.6-16-5.1-28.1-7-31c-14.3,0.3-28.7,0.7-43,1C446,492.7,439,492.3,432,492z"/>
<path class="st10" d="M277,359c-3.8,0-15.9,0.3-26.6,9c-10.1,8.2-17.1,22.3-14.4,37.3c3.1,17.6,18.1,26.1,21,27.7
	c14.6,7.9,28.9,4.1,33,3c14.3-4,22.4-13.6,25-17c-9.6-12.9-19.2-27.2-28.5-43.1C283.1,370.2,280,364.5,277,359z"/>
<circle class="st14" cx="473.5" cy="512.5" r="19"/>
<circle class="st14" cx="271" cy="391" r="19"/>
<path class="st15" d="M351,266c11.1,5.4,35.5,19.1,53.8,47.6c14.9,23.1,18.9,45.4,20.2,57.4c12.8-5,33.7-11.2,60-11.4
	c28.5-0.1,50.9,7,64,12.4c-12-17.8-38-51.1-83-76C417.8,269.3,372.7,266.1,351,266z"/>
<path class="st3" d="M425.4,371.5c16.1-6,45.3-14.3,81.6-10.5c21.8,2.3,39.6,8.3,52.2,13.8c5.1,7.2,10.9,16.8,15.8,28.9
	c5.5,13.4,8.1,25.6,9.4,35c-22-28.9-46.5-39.6-57.8-43.6c-21.1-7.5-39.8-7-61.6-6.5c-23.6,0.6-42.9,4.2-56.1,7.3
	c-5-14.7-13.4-35.6-27.1-59c-13.1-22.3-20.7-35.8-35.8-47.5c-8.6-6.7-30.2-20.9-67-21.4c6.1-3.3,15.4-7.6,27.5-9.8
	c5.7-1,21.7-2.6,38.8,1.2c25.5,5.6,40.6,28.1,53.7,47.7C407.2,319.2,419.4,340.8,425.4,371.5z"/>
<path class="st7" d="M401,410c11.8-4.4,29.7-9.6,52-11c21.9-1.3,50.7-3.1,78,14c29.5,18.4,40.4,48.2,44,60c-24.3-9.6-46-14.9-63-18
	c-31.7-5.7-56.5-5.4-74-5c-16.7,0.3-38.5,1.7-64,6C272.5,350.6,256.7,310.6,267,296c11.6-16.5,60.8-7.2,92,16
	C406.3,347.3,401.3,406.8,401,410z"/>
<path class="st16" d="M267,296c9.7-1.3,25-2.3,43,2c7.8,1.9,36.6,9.2,59,35c31.5,36.4,26,81.6,25,89c11.5-7.1,41.9-23.4,82-20
	c13.8,1.2,49.4,4.3,75,33c12,13.4,17.4,27.8,20,37c7.7,3.7,15.3,7.3,23,11c-0.4-7.9-1.9-19.3-7-32c-13.1-32.3-40-47.7-48-52
	c-32.5-17.4-64.8-14.2-87-12c-18.4,1.8-33.2,5.8-43,9c-1.1-9.9-9.6-79.3-63-112c-8.1-4.9-24.2-15.5-48-17c-25.9-1.7-45.6,8.2-54,13
	c3,1.9,6,3.9,9,6C257.9,289.3,262.5,292.7,267,296z"/>
<path class="st10" d="M382.4,506.1c-7.1-9.4-14.3-18.9-21.4-28.3l12.4-21c-1.5-0.3-2.9-0.6-4.4-0.8c54.1-9.3,98.5-6.8,128-3
	c42.7,5.5,75.5,16.5,104.2,34.6c11.6,7.3,27.1,18.7,25.4,22.4c-1.6,3.3-15.7-2.3-45.6-7.9c-3.3-0.6-27.2-5.1-53-7
	c-22.6-1.7-39.6-0.9-56,0C449.2,496.2,418.6,499,382.4,506.1z"/>
<path class="st10" d="M324.3,474.5c11.7,1.6,23.5,3.2,35.2,4.8l12.2-21.1c0.8-0.7,1.5-1.4,2.3-2.2c-19.3-48.1-42.3-83.8-59.7-107.4
	C288.8,314,263.6,289.8,232,273c-2.1-1.1-27-14.2-30-10c-1.9,2.6,6.6,9.9,28.4,36.5c15.4,18.7,24.3,31,32.1,42.7
	c12.6,18.9,20.2,34,27.5,48.8C300.1,411.4,312.7,439.5,324.3,474.5z"/>
<path class="st13" d="M527,540"/>
</svg>
