<?xml version="1.0" encoding="utf-8"?>
<!-- Generator: Adobe Illustrator 22.0.0, SVG Export Plug-In . SVG Version: 6.00 Build 0)  -->
<svg version="1.1" id="Layer_1" xmlns="http://www.w3.org/2000/svg" xmlns:xlink="http://www.w3.org/1999/xlink" x="0px" y="0px"
	 viewBox="0 0 495.3 495.3" style="enable-background:new 0 0 495.3 495.3;" xml:space="preserve">
<style type="text/css">
	.st0{fill:#02C54C;}
	.st1{fill:#FCEADE;}
	.st2{fill:#FF8A5B;}
	.st3{fill:#2B2D42;}
	.st4{fill:#303545;}
	.st5{fill:#FFFFFF;}
	.st6{fill:#E6E7E8;stroke:#231F20;stroke-linecap:round;stroke-miterlimit:10;}
	.st7{fill:#F5DE33;}
	.st8{fill:#F2F2F2;}
	.st9{fill:#E3C79E;}
	.st10{fill:#BD9E7A;}
	.st11{fill:#0C0C0C;}
	.st12{fill:#27437A;}
	.st13{fill:#232E47;}
	.st14{fill:#383833;}
	.st15{fill:url(#SVGID_1_);}
	.st16{fill:#A5A23A;}
	.st17{fill:#E6E7E8;}
	.st18{fill:#F8D94A;}
	.st19{fill:#785C3A;}
</style>
<path class="st0" d="M222.9,82.3c0,31.9,51.7,57.6,115.6,57.6v-8.2c0-50-40.7-90.6-90.8-90.6s-90.8,40.5-90.8,90.6
	C193.3,131.7,222.9,109.6,222.9,82.3z"/>
<path class="st1" d="M288.9,255.2h-3.6l0,0c-2.9,1.3-5.8,2.5-8.8,3.5c3-1,5.9-2.2,8.8-3.5c12.6-5.7,23.7-14.2,32.4-24.7
	c13-15.7,20.8-35.7,20.8-57.6v8.2h12.4c16,0,28.9-12.9,28.9-28.8s-12.9-28.8-28.9-28.8h-12.4v8.2v8.2c-63.9,0-115.6-25.8-115.6-57.6
	c0,27.3-29.5,49.4-66,49.4v-8.2h-12.4c-16,0-28.9,12.9-28.9,28.8s12.9,28.8,28.9,28.8h12.4v-8.2c0,36.6,21.8,68,53.1,82.3
	c2.9,1.3,5.8,2.5,8.8,3.5c-3-1-5.9-2.2-8.8-3.5l0,0h-3.6l41.3,82.3L288.9,255.2z M258.9,262.7c2.8-0.3,5.5-0.8,8.2-1.4
	C264.4,261.9,261.7,262.4,258.9,262.7z M267.8,261.1c2.9-0.7,5.8-1.5,8.6-2.4C273.6,259.7,270.8,260.5,267.8,261.1z M218.8,258.7
	c2.8,0.9,5.7,1.7,8.6,2.4C224.5,260.5,221.7,259.7,218.8,258.7z M228.2,261.3c2.7,0.6,5.4,1,8.2,1.4
	C233.6,262.4,230.9,261.9,228.2,261.3z M247.6,263.5c3.3,0,6.6-0.2,9.8-0.5C254.2,263.3,251,263.5,247.6,263.5s-6.6-0.2-9.8-0.5
	C241.1,263.3,244.3,263.5,247.6,263.5z"/>
<path class="st0" d="M99.1,370.5c0-18.2,14.8-32.9,33-32.9h82.5h33l-41.3-82.3h-33c-63.8,0-115.6,51.6-115.6,115.3v115.3h41.3V370.5
	z"/>
<path class="st2" d="M363.2,337.6h-82.6h-33h-33h-82.5c-18.2,0-33,14.7-33,32.9v115.3h297.2V370.5
	C396.2,352.3,381.5,337.6,363.2,337.6z M247.6,436.4c-13.7,0-24.8-11.1-24.8-24.7c0-13.6,11.1-24.7,24.8-24.7s24.8,11.1,24.8,24.7
	C272.4,425.3,261.3,436.4,247.6,436.4z"/>
<ellipse class="st1" cx="247.6" cy="411.7" rx="24.8" ry="24.7"/>
<path class="st0" d="M280.7,337.6h82.6c18.2,0,33,14.7,33,32.9v115.3h41.3V370.5c0-63.7-51.7-115.3-115.6-115.3h-33l-41.3,82.3
	H280.7z"/>
<g>
	<path class="st3" d="M214.6,172.9c4.6,0,8.3,3.7,8.3,8.2h16.5c0-13.6-11.1-24.7-24.8-24.7s-24.8,11.1-24.8,24.7h16.5
		C206.4,176.6,210.1,172.9,214.6,172.9z"/>
	<path class="st3" d="M280.7,172.9c4.6,0,8.3,3.7,8.3,8.2h16.5c0-13.6-11.1-24.7-24.8-24.7c-13.7,0-24.8,11.1-24.8,24.7h16.5
		C272.4,176.6,276.1,172.9,280.7,172.9z"/>
	<path class="st3" d="M247.6,378.7c-18.2,0-33,14.8-33,32.9c0,18.2,14.8,32.9,33,32.9s33-14.8,33-32.9
		C280.7,393.5,265.9,378.7,247.6,378.7z M247.6,428.1c-9.1,0-16.5-7.4-16.5-16.5c0-9.1,7.4-16.5,16.5-16.5c9.1,0,16.5,7.4,16.5,16.5
		C264.2,420.7,256.8,428.1,247.6,428.1z"/>
	<path class="st3" d="M445.8,477.5v-107c0-68.1-55.5-123.5-123.8-123.5h-9c2.9-2.6,5.7-5.3,8.3-8.2h8.9c22.8,0,41.3-18.5,41.3-41.2
		v-14.5c9.9-6.7,16.5-18,16.5-30.8c0-12.9-6.6-24.2-16.6-30.8C370.3,54.3,315.3,0,247.7,0S125,54.3,123.9,121.5
		c-10,6.6-16.6,18-16.6,30.8c0,20.4,16.7,37,37.1,37h5.6c3.9,22.8,15.6,43,32.3,57.6h-9c-68.3,0-123.8,55.4-123.8,123.5v107
		c0,1.2-0.1,6.6,4,11.2c4.8,5.4,11.4,5.3,12.4,5.2h361.1c1.2,0,8.8,0.1,14.3-6C445,483.9,445.6,479.3,445.8,477.5z M355,197.6
		c0,12.5-9.4,22.7-21.5,24.4c5.7-9.9,9.7-20.9,11.7-32.6h5.6c1.4,0,2.8-0.3,4.1-0.4V197.6z M371.5,152.3c0,11.3-9.3,20.6-20.6,20.6
		h-4.1v-41.2h4.1C362.2,131.7,371.5,141,371.5,152.3z M148.6,172.9h-4.1c-11.4,0-20.6-9.2-20.6-20.6c0-11.3,9.3-20.6,20.6-20.6h4.1
		V172.9z M144.5,115.3c-1.3,0-2.5,0.2-3.7,0.4c4.1-55.4,50.4-99.2,106.9-99.2c56.5,0,102.9,43.8,106.9,99.2
		c-1.2-0.1-2.5-0.4-3.7-0.4h-5.6c-7.9-46.7-48.6-82.3-97.6-82.3c-49,0-89.7,35.7-97.6,82.3H144.5z M330.2,131.5
		c-59.6-2.1-99.1-26.4-99.1-49.2c0-4.5-3.7-8.2-8.3-8.2s-8.3,3.7-8.3,8.2c0,20.6-21.3,37.6-49.1,40.6c4.4-41.3,39.5-73.6,82.1-73.6
		C293.1,49.4,330.1,86.2,330.2,131.5z M165.1,172.9v-33.4c25.8-2.2,47.7-14.6,58.6-32c17.3,22.8,57.6,38.9,106.5,40.5v24.9
		c0,18.5-6.3,35.6-16.7,49.4h-65.9v16.5H297c-4.7,3.5-9.8,6.6-15.3,9.1c-21.7,9.8-46.4,9.8-68.1,0
		C185.1,234.9,165.1,206.2,165.1,172.9z M222.1,268.3c8.2,2.2,16.7,3.4,25.5,3.4c8.8,0,17.4-1.3,25.5-3.4l-25.5,50.9L222.1,268.3z
		 M234.3,329.3h-14.6l-33-65.9h14.6L234.3,329.3z M294,263.5h14.6l-33,65.9H261L294,263.5z M90.8,370.5v107c-6.9,0-13.9,0-20.8,0
		c-0.4,0-1.6-0.2-2.7-1.3c-1.1-1.1-1.2-2.5-1.2-2.8c0-34.3,0-68.6,0-102.9c0-7.6,0.9-43.8,29.8-73.9c18.5-19.2,44.1-31.6,72.5-32.9
		l32.9,65.6h-69.2C109.3,329.3,90.8,347.8,90.8,370.5z M388,477.5H107.3v-107c0-13.6,11.1-24.7,24.8-24.7h231.1
		c13.7,0,24.8,11.1,24.8,24.7V477.5z M428.2,476.5c-1.3,1.3-2.9,1.1-3.1,1.1c-6.9,0-13.7,0-20.6,0c0-35.7,0-71.4,0-107
		c0-22.7-18.5-41.2-41.3-41.2H294l32.9-65.6c56.9,2.6,102.3,49.4,102.3,106.8c0,34.3,0,68.6,0,102.9
		C429.3,473.6,429.4,475.2,428.2,476.5z"/>
	<rect x="355" y="403.4" class="st3" width="16.5" height="57.6"/>
	<rect x="355" y="370.5" class="st3" width="16.5" height="16.5"/>
	<rect x="429.3" y="74.1" class="st3" width="16.5" height="16.5"/>
	<rect x="429.3" y="107" class="st3" width="16.5" height="16.5"/>
	<rect x="429.3" y="140" class="st3" width="16.5" height="16.5"/>
	<rect x="49.5" y="172.9" class="st3" width="16.5" height="16.5"/>
	<rect x="49.5" y="205.8" class="st3" width="16.5" height="16.5"/>
	<rect x="49.5" y="238.8" class="st3" width="16.5" height="16.5"/>
</g>
<g>
	<g>
		<circle class="st4" cx="247.6" cy="411.5" r="32.1"/>
		<g>
			<path class="st5" d="M216.7,411.5c0-0.9,0-1.7,0.1-2.6c0-0.4,0.1-0.8,0.1-1.2c0-0.1,0-0.2,0-0.3c0-0.3,0,0.2,0-0.1
				c0-0.2,0.1-0.5,0.1-0.7c0.3-1.6,0.7-3.2,1.2-4.8c0.2-0.7,0.5-1.5,0.8-2.2c0,0,0.1-0.3,0-0.1c0-0.1,0.1-0.2,0.1-0.3
				c0.1-0.2,0.2-0.4,0.3-0.6c0.2-0.4,0.3-0.7,0.5-1.1c0.7-1.4,1.5-2.8,2.5-4.1c0.2-0.3,0.4-0.6,0.7-0.9c0.2-0.3-0.1,0.2,0.1-0.1
				c0.1-0.1,0.1-0.2,0.2-0.2c0.1-0.2,0.3-0.4,0.4-0.5c0.5-0.6,1-1.2,1.6-1.7c0.6-0.6,1.1-1.1,1.7-1.7c0.3-0.2,0.6-0.5,0.8-0.7
				c0.2-0.1,0.3-0.3,0.5-0.4c0.1-0.1,0.2-0.1,0.2-0.2c0.2-0.2-0.1,0.1,0.1-0.1c1.3-1,2.6-1.8,4-2.6c0.7-0.4,1.4-0.8,2.2-1.1
				c0.2-0.1,0.4-0.2,0.6-0.2c0,0,0.3-0.1,0.1-0.1s0.2-0.1,0.1-0.1c0.4-0.2,0.8-0.3,1.2-0.5c1.5-0.6,3.1-1,4.7-1.3
				c0.4-0.1,0.8-0.1,1.1-0.2c0.2,0,0.4-0.1,0.6-0.1c0.3,0-0.2,0,0.1,0c0.1,0,0.2,0,0.3,0c0.9-0.1,1.7-0.2,2.6-0.2
				c1.7-0.1,3.4,0,5,0.2c0.1,0,0.2,0,0.3,0c-0.3,0,0.1,0,0.1,0c0.2,0,0.3,0.1,0.5,0.1c0.4,0.1,0.9,0.2,1.3,0.2
				c0.8,0.2,1.6,0.3,2.3,0.6c0.8,0.2,1.6,0.5,2.4,0.8c0.4,0.1,0.7,0.3,1.1,0.4c0,0,0.3,0.1,0.1,0c0.1,0,0.2,0.1,0.3,0.1
				c0.2,0.1,0.4,0.2,0.6,0.3c1.5,0.7,2.9,1.5,4.2,2.3c0.7,0.4,1.3,0.9,1.9,1.4c-0.2-0.2,0.1,0.1,0.1,0.1c0.1,0.1,0.2,0.1,0.2,0.2
				c0.1,0.1,0.3,0.2,0.4,0.3c0.3,0.3,0.7,0.6,1,0.9c1.2,1.1,2.3,2.2,3.3,3.4c0.1,0.1,0.2,0.3,0.3,0.4c0.1,0.1,0.1,0.2,0.2,0.2
				c0.2,0.3-0.1-0.2,0.1,0.1c0.2,0.3,0.5,0.6,0.7,1c0.5,0.7,0.9,1.3,1.3,2c0.4,0.7,0.8,1.4,1.1,2.1c0.2,0.3,0.3,0.7,0.5,1.1
				c0.1,0.2,0.1,0.3,0.2,0.5c0,0.1,0.1,0.2,0.1,0.3c-0.1-0.2,0.1,0.2,0.1,0.2c0.6,1.5,1.1,3,1.5,4.6c0.2,0.8,0.4,1.6,0.5,2.5
				c0,0.2,0.1,0.3,0.1,0.5c0,0.3,0-0.2,0,0.1c0,0.1,0,0.2,0,0.3c0,0.4,0.1,0.8,0.1,1.3c0.1,1.7,0.1,3.4,0,5.1c0,0.4-0.1,0.8-0.1,1.2
				c0,0.1,0,0.2,0,0.3c0-0.2,0,0,0,0c0,0.2-0.1,0.5-0.1,0.7c-0.1,0.8-0.3,1.6-0.5,2.5c-0.4,1.6-0.9,3.1-1.5,4.6
				c-0.1,0.3,0.1-0.2,0,0.1c0,0.1-0.1,0.1-0.1,0.2c-0.1,0.2-0.2,0.4-0.3,0.6c-0.2,0.4-0.3,0.7-0.5,1.1c-0.4,0.7-0.8,1.4-1.2,2.1
				c-0.4,0.7-0.8,1.3-1.3,2c-0.2,0.3-0.5,0.6-0.7,0.9c0.2-0.2-0.1,0.1-0.1,0.1c0,0.1-0.1,0.1-0.1,0.2c-0.1,0.2-0.3,0.4-0.4,0.5
				c-1,1.2-2.1,2.3-3.3,3.4c-0.3,0.3-0.6,0.5-0.9,0.8c-0.1,0.1-0.3,0.2-0.4,0.4c-0.1,0.1-0.2,0.1-0.2,0.2c-0.1,0.1-0.1,0.1,0,0
				c-0.1,0-0.1,0.1-0.2,0.1c-0.6,0.5-1.3,0.9-1.9,1.3c-1.3,0.9-2.8,1.7-4.2,2.3c-0.2,0.1-0.3,0.2-0.5,0.2c0,0-0.3,0.1-0.1,0
				c-0.1,0-0.2,0.1-0.3,0.1c-0.4,0.2-0.8,0.3-1.1,0.4c-0.8,0.3-1.6,0.5-2.4,0.8c-0.8,0.2-1.5,0.4-2.3,0.6c-0.4,0.1-0.8,0.2-1.2,0.2
				c-0.2,0-0.3,0.1-0.5,0.1c-0.3,0,0.2,0-0.1,0c-0.1,0-0.3,0-0.4,0.1c-1.7,0.2-3.4,0.2-5.1,0.2c-0.8,0-1.7-0.1-2.5-0.2
				c-0.1,0-0.2,0-0.3,0c0.3,0-0.1,0-0.1,0c-0.2,0-0.4-0.1-0.6-0.1c-0.4-0.1-0.8-0.1-1.2-0.2c-1.6-0.3-3.2-0.8-4.7-1.3
				c-0.4-0.1-0.8-0.3-1.1-0.4c0,0-0.2-0.1,0,0c-0.1,0-0.2-0.1-0.3-0.1c-0.2-0.1-0.4-0.2-0.7-0.3c-0.7-0.3-1.4-0.7-2.1-1.1
				c-0.7-0.4-1.4-0.8-2.1-1.3c-0.3-0.2-0.6-0.4-0.9-0.6c-0.2-0.1-0.3-0.2-0.5-0.4c-0.1-0.1-0.2-0.1-0.2-0.2c0,0-0.3-0.2-0.2-0.2
				c0.1,0.1-0.1-0.1-0.1-0.1c-0.1-0.1-0.2-0.1-0.2-0.2c-0.2-0.1-0.3-0.3-0.5-0.4c-0.3-0.3-0.6-0.5-0.9-0.8c-0.6-0.5-1.2-1.1-1.7-1.7
				c-0.5-0.6-1-1.1-1.5-1.7c-0.1-0.2-0.3-0.3-0.4-0.5c-0.1-0.1-0.1-0.2-0.2-0.2c0.2,0.2,0-0.1-0.1-0.1c-0.2-0.3-0.5-0.6-0.7-1
				c-0.9-1.3-1.7-2.7-2.4-4.1c-0.2-0.3-0.3-0.7-0.5-1c-0.1-0.2-0.2-0.4-0.2-0.6c0,0-0.1-0.3,0-0.1c0-0.1-0.1-0.2-0.1-0.3
				c-0.3-0.7-0.6-1.5-0.8-2.3c-0.5-1.6-0.9-3.2-1.1-4.8c0-0.2-0.1-0.4-0.1-0.6c0,0.3,0-0.1,0-0.1c0-0.1,0-0.2,0-0.3
				c0-0.4-0.1-0.8-0.1-1.2C216.7,413.2,216.7,412.3,216.7,411.5c0-0.6-0.5-1.2-1.2-1.2c-0.6,0-1.2,0.5-1.2,1.2
				c0,6.9,2.1,13.7,6.1,19.3c3.9,5.5,9.4,9.7,15.8,12c6.5,2.4,13.8,2.6,20.4,0.7c6.4-1.8,12.3-5.7,16.6-10.8
				c4.4-5.3,7-11.8,7.5-18.7c0.5-6.9-1.1-13.8-4.7-19.7c-3.4-5.7-8.6-10.3-14.7-13c-6.4-2.9-13.7-3.7-20.6-2.3
				c-6.6,1.3-12.7,4.8-17.3,9.6c-4.6,4.9-7.8,11.1-8.8,17.8c-0.3,1.7-0.4,3.5-0.4,5.2c0,0.6,0.5,1.2,1.2,1.2
				S216.7,412.1,216.7,411.5z"/>
		</g>
	</g>
	<path class="st5" d="M231.7,390.2c-0.6-0.1-1.2-0.2-1.8-0.3c0,0,0,0,0,0c0.3-0.2,0.6-0.3,0.9-0.5c0.2-0.1,0.4-0.3,0.6-0.4
		c0,0,0,0,0,0c-0.1-0.6-0.2-1.1-0.3-1.7c0,0,0,0,0,0c0,0,0,0,0,0c0.3,0.3,0.5,0.5,0.8,0.8c0.2,0.1,0.3,0.3,0.5,0.4c0,0,0,0,0,0
		c0.5-0.3,1-0.5,1.6-0.8c0,0,0,0,0,0c0,0,0,0.1,0,0.1c-0.2,0.5-0.4,1-0.7,1.5c0,0,0,0,0,0c0.4,0.4,0.9,0.8,1.3,1.2c0,0,0,0,0,0
		c0,0,0,0,0,0c-0.6,0-1.2-0.1-1.7-0.1c0,0,0,0,0,0c-0.3,0.5-0.5,1-0.8,1.6c0,0,0,0,0,0C232,391.4,231.9,390.8,231.7,390.2z"/>
	<path class="st5" d="M251.8,386.3c-0.6-0.1-1.2-0.2-1.8-0.3c0,0,0,0,0,0c0.3-0.2,0.6-0.3,0.9-0.5c0.2-0.1,0.4-0.3,0.6-0.4
		c0,0,0,0,0,0c-0.1-0.6-0.2-1.1-0.3-1.7c0,0,0,0,0,0c0,0,0,0,0,0c0.3,0.3,0.5,0.5,0.8,0.8c0.2,0.1,0.3,0.3,0.5,0.4c0,0,0,0,0,0
		c0.5-0.3,1-0.5,1.6-0.8c0,0,0,0,0,0c0,0,0,0.1,0,0.1c-0.2,0.5-0.4,1-0.7,1.5c0,0,0,0,0,0c0.4,0.4,0.9,0.8,1.3,1.2c0,0,0,0,0,0
		c0,0,0,0,0,0c-0.6,0-1.2-0.1-1.7-0.1c0,0,0,0,0,0c-0.3,0.5-0.5,1-0.8,1.6c0,0,0,0,0,0C252,387.4,251.9,386.9,251.8,386.3z"/>
	<path class="st5" d="M269,429.1c-0.6-0.1-1.2-0.2-1.8-0.3c0,0,0,0,0,0c0.3-0.2,0.6-0.3,0.9-0.5c0.2-0.1,0.4-0.3,0.6-0.4
		c0,0,0,0,0,0c-0.1-0.6-0.2-1.1-0.3-1.7c0,0,0,0,0,0c0,0,0,0,0,0c0.3,0.3,0.5,0.5,0.8,0.8c0.2,0.1,0.3,0.3,0.5,0.4c0,0,0,0,0,0
		c0.5-0.3,1-0.5,1.6-0.8c0,0,0,0,0,0c0,0,0,0.1,0,0.1c-0.2,0.5-0.4,1-0.7,1.5c0,0,0,0,0,0c0.4,0.4,0.9,0.8,1.3,1.2c0,0,0,0,0,0
		c0,0,0,0,0,0c-0.6,0-1.2-0.1-1.7-0.1c0,0,0,0,0,0c-0.3,0.5-0.5,1-0.8,1.6c0,0,0,0,0,0C269.3,430.2,269.1,429.6,269,429.1z"/>
	<path class="st5" d="M274.4,410.9c-0.6-0.1-1.2-0.2-1.8-0.3c0,0,0,0,0,0c0.3-0.2,0.6-0.3,0.9-0.5c0.2-0.1,0.4-0.3,0.6-0.4
		c0,0,0,0,0,0c-0.1-0.6-0.2-1.1-0.3-1.7c0,0,0,0,0,0c0,0,0,0,0,0c0.3,0.3,0.5,0.5,0.8,0.8c0.2,0.1,0.3,0.3,0.5,0.4c0,0,0,0,0,0
		c0.5-0.3,1-0.5,1.6-0.8c0,0,0,0,0,0c0,0,0,0.1,0,0.1c-0.2,0.5-0.4,1-0.7,1.5c0,0,0,0,0,0c0.4,0.4,0.9,0.8,1.3,1.2c0,0,0,0,0,0
		c0,0,0,0,0,0c-0.6,0-1.2-0.1-1.7-0.1c0,0,0,0,0,0c-0.3,0.5-0.5,1-0.8,1.6c0,0,0,0,0,0C274.6,412.1,274.5,411.5,274.4,410.9z"/>
	<path class="st6" d="M260.9,399.6"/>
	<path class="st7" d="M263.7,389.7c-2,1.3-3,3.6-2.6,5.9c0.4,2.4,2.3,4.4,4.8,4.8c2.4,0.4,4.8-0.6,6.1-2.7c-0.9,3.2-3.9,5.4-7.2,5.1
		c-3.2-0.2-6-2.8-6.3-6.1C258.2,393.5,260.4,390.4,263.7,389.7z"/>
	<path class="st8" d="M216.7,411.2c1.4-2.4,2.8-4.3,3.8-5.7c2.8-3.5,4.9-6.4,8.8-8.3c0.5-0.2,2.3-1.1,4.8-1.7
		c0.8-0.2,2.8-0.6,5.5-0.6c0.9,0,2.6,0,4.8,0.4c1.2,0.2,2.7,0.5,4.4,1.3c1.9,0.8,3.1,1.7,3.6,2.1c1,0.7,1.6,1.3,2.7,2.5
		c1.2,1.2,1.9,2,2.7,3c1.4,2,2,3.7,2.5,5.1c0.2,0.6,1,3.1,1.3,6.4c0,0,0.2,2.4-0.2,5c0,0.2,0,0.4-0.1,0.6c-0.7,4.6-3.8,11-3.8,11
		c-1.4,2.8-3,6.1-5.1,9.7c-1.5,0.2-3.5,0.5-5.8,0.4c-4.1-0.1-7.1-0.9-7.9-1.1c-1.2-0.3-4.4-1.3-8.1-3.7c-1.8-1.2-5.4-3.8-8.6-8.2
		c0,0-3.6-5.2-4.6-10.3c0,0,0,0,0,0c0,0,0-0.2-0.1-0.4c0-0.1,0-0.2-0.1-0.4c0-0.2-0.1-0.4-0.1-0.6c-0.1-0.4-0.2-0.8-0.2-0.8
		c-0.1-0.7-0.3-1.9-0.4-3.3C216.7,413,216.7,412.2,216.7,411.2z"/>
	<path class="st7" d="M217,416.1c2.1-3.9,4.3-6.9,6-9.1c4.2-5.3,6.6-6.7,7.7-7.2c0.4-0.2,2-1,4.2-1.5c0.7-0.2,2.5-0.5,4.8-0.6
		c0.8,0,2.3,0,4.2,0.4c1.1,0.2,2.3,0.4,3.9,1.1c1.6,0.7,2.7,1.5,3.1,1.8c0.8,0.6,1.4,1.2,2.4,2.2c1.1,1.1,1.7,1.8,2.4,2.7
		c1.2,1.7,1.8,3.3,2.2,4.5c0.2,0.6,0.9,2.7,1.1,5.6c0,0,0.1,2.1-0.1,4.4c-0.4,3.4-1.4,6-3.9,11.4c-1.4,3-3.2,6.6-5.4,10.7
		c-2.6,0.2-7,0.3-12-1.4c-6.1-2-10.2-5.6-12.4-7.9C218.8,426.5,217.4,418.9,217,416.1z"/>
	<g>
		<path class="st9" d="M234.9,424.9c0.3-0.3,0.8-0.6,1.3-0.8c0.3-0.1,0.5-0.2,0.8-0.3c0.4-0.1,1-0.2,1.7-0.2c0.2,0,1,0,1.9,0.2
			c0.9,0.2,1.6,0.5,2.2,0.8c0.3,0.1,0.2,0.1,1.2,0.6c1.1,0.6,1.4,0.7,1.8,0.8c0.4,0.1,0.7,0.2,1.1,0.3c0.6,0.1,1,0.2,1.5,0.3
			c0.1,0,0.6,0,1.2-0.1c0.3,0,1.6-0.2,3.1-1c1.1-0.6,1.8-1.2,2-1.3c0.6-0.6,1-1.1,1.1-1.2c0.1-0.1,0.4-0.6,0.7-1.2
			c0.3-0.6,0.4-1.1,0.7-2.2c0.2-0.9,0.4-1.4,0.4-1.9c0.1-0.7,0.1-1.3,0.1-1.8c0.6,0.2,1.4,0.4,2.3,0.5c1.5,0.3,1.6,0.2,1.7,0.1
			c0.2-0.3-1.4-1.3-1.5-1.4c-1.7-1.1-3.4-1.6-5.4-2.1c-3.3-0.7-5.9-0.8-6.8-0.8c-2.2-0.1-4.1,0-5.7,0.2
			C239.7,416.5,237.3,420.7,234.9,424.9z"/>
	</g>
	<path class="st10" d="M242,412.6c-1.5,2.9-3.1,5.7-5,8.6c-0.1,0.2-0.3,0.4-0.4,0.6c0.5-0.4,1.4-0.8,2.6-1c3.6-0.5,5,2.9,8.9,3.2
		c2.5,0.2,5.5-0.9,7.1-3.2c1.5-2.1,1.3-4.4,1.2-5.3C251.6,414.5,246.8,413.6,242,412.6z"/>
	<g>
		<path class="st9" d="M234.9,424.9c0.1-0.4,0.1-0.9,0.1-1.5c0-0.3,0-0.6-0.1-0.8c-0.1-0.4-0.3-1-0.6-1.6c-0.1-0.2-0.5-0.8-1.1-1.6
			c-0.7-0.7-1.3-1.2-1.8-1.5c-0.3-0.2-0.2-0.1-1.1-0.7c-1-0.7-1.3-0.9-1.6-1.1c-0.3-0.3-0.5-0.5-0.8-0.8c-0.4-0.4-0.7-0.8-1-1.2
			c-0.1-0.1-0.3-0.5-0.5-1.1c-0.1-0.3-0.6-1.5-0.7-3.2c-0.1-1.3,0.1-2.2,0.2-2.4c0.2-0.8,0.4-1.4,0.5-1.5c0.1-0.1,0.3-0.6,0.7-1.2
			c0.1-0.1,0.1-0.2,0.2-0.3c0.4-0.5,0.8-0.9,1.3-1.4c0.7-0.6,1-0.9,1.4-1.2c0.6-0.4,1.2-0.7,1.6-0.8c-1.4-1.6-2-2.2-2-2.3l0,0
			c0,0-0.1-0.1-0.1-0.2c-0.1-0.2-0.6-0.8-0.5-0.9c0.2-0.3,1.8,0.5,2,0.6c1.8,0.9,3.1,2.2,4.5,3.7c2.3,2.5,3.6,4.7,4.1,5.5
			c1.1,1.9,2,3.6,2.7,5.1C239.8,416.5,237.3,420.7,234.9,424.9z"/>
	</g>
	<path class="st11" d="M238.5,413.9"/>
	<path class="st12" d="M238.6,413.8"/>
	<path class="st13" d="M240.8,409.4c0.3,0.5,0.6,1,0.8,1.6c0.2,0.4,0.4,0.8,0.5,1.2c1.1-0.1,2.1-0.1,3.2-0.2
		c-0.1,0.1-0.3,0.4-0.5,0.5c-0.3,0.1-0.5,0-0.8,0.1c-0.5,0.1-0.5,0.4-1.1,0.6c-0.5,0.2-1,0.3-1.4,0.1c-0.4-0.2-0.1-0.7-0.6-1.5
		c-0.3-0.5-0.5-0.6-0.6-0.9C240.2,410.3,240.5,409.7,240.8,409.4z"/>
	<path class="st8" d="M239.7,416.2"/>
	<path class="st14" d="M234.8,424.9c-0.1-0.2,1.2-2.5,3.6-3.1c1.7-0.4,3.1,0.1,3.5,0.3c0.8,0.3,0.9,0.6,2.5,1.5
		c1.1,0.6,1.7,0.9,2.3,1.2c1.9,0.7,3.7,0.2,4.4,0.1c0.7-0.2,2.7-0.8,4.4-2.7c0.7-0.8,1.1-1.5,1.3-2.1c0.1-0.1,0.1-0.2,0.2-0.2
		c0,0,0,0.1,0,0.1c-0.5,2-1.5,3.2-1.5,3.2c-0.3,0.4-1.4,1.6-3.4,2.5c-0.7,0.3-1.7,0.8-3.2,0.8c-1.2,0.1-2.1-0.2-2.7-0.4
		c-0.6-0.2-0.9-0.3-2.4-1c-2-0.9-3-1.4-3.4-1.5c-0.6-0.1-2-0.5-3.6,0.1C235.5,424.2,234.9,425,234.8,424.9z"/>
	<g>
		<path class="st10" d="M242.3,412.7c-1.6,2.7-3.1,5.4-4.7,8.2c-0.3,0.3-0.5,0.5-0.8,0.8c0-0.7,0-1.8-0.5-2.9
			c-1.5-3.3-5.2-2.6-7.4-5.9c-1.8-2.6-1.5-5.9-0.8-7.8c0.4-1,1.2-1.8,1.2-1.8c1.1-1.2,2.3-1.6,2.9-1.8
			C235.6,405.3,238.9,409,242.3,412.7z"/>
	</g>
	<path class="st14" d="M234.7,425c0.2,0,1.6-2.2,0.9-4.7c-0.4-1.7-1.6-2.7-2-2.9c-0.7-0.5-0.9-0.5-2.5-1.4c-1.1-0.7-1.6-1-2.1-1.5
		c-1.5-1.4-2-3.2-2.2-3.8c-0.2-0.7-0.7-2.8,0.2-5.1c0.4-1,0.8-1.7,1.2-2.1c0-0.1,0.1-0.2,0.1-0.2c0,0-0.1,0-0.1,0
		c-1.5,1.4-2.1,2.8-2.1,2.8c-0.2,0.5-0.7,2.1-0.6,4.2c0.1,0.7,0.2,1.9,0.8,3.2c0.5,1,1.2,1.7,1.6,2.2c0.5,0.5,0.8,0.7,2,1.6
		c1.8,1.3,2.6,2,2.9,2.3c0.4,0.4,1.4,1.5,1.7,3.2C235,424,234.6,424.9,234.7,425z"/>
	<path class="st13" d="M237.5,411.3c1.3,0.8,2.6,1.6,4,2.5c1.2,0.7,2.3,1.4,3.5,2c-0.1,0-0.3,0-0.5,0.1c-0.9,0.1-1.6,0.3-1.8,0.4
		c-1.3,0.4-2.3,1.4-2.4,1.5c-0.8,0.8-1.3,1.1-2.7,2.7c0,0,0,0-0.1,0s-0.1,0-0.1-0.1c0,0,0-0.1,0-0.1c0.8-2.4,0.8-2.8,1-3.5
		c0.3-1.3,0.1-2.5,0.1-2.8c0,0,0-0.2-0.1-0.4C238.1,412.6,237.8,411.8,237.5,411.3z"/>
	
		<linearGradient id="SVGID_1_" gradientUnits="userSpaceOnUse" x1="238.4871" y1="130.1531" x2="240.6942" y2="131.4274" gradientTransform="matrix(1 0 0 1 0 286)">
		<stop  offset="0" style="stop-color:#666666"/>
		<stop  offset="1" style="stop-color:#FFFFFF"/>
	</linearGradient>
	<path class="st15" d="M239.1,415.1c0.7-0.3,1.4-0.6,2.1-0.9c0.1,0.7,0.1,1.4,0.2,2.2c-0.5,0.4-1.1,0.9-1.7,1.4
		c-0.7,0.6-1.2,1.2-1.7,1.8c0.2-0.7,0.5-1.4,0.7-2.2C238.9,416.4,239,415.7,239.1,415.1z"/>
	
		<rect x="240.7" y="412.8" transform="matrix(0.4113 -0.9115 0.9115 0.4113 -234.2577 463.4451)" class="st13" width="1.8" height="0.5"/>
	<path class="st13" d="M232.9,402.5c0.9,1.2,1.8,2.7,2.6,4.3c1.1,2.1,1.9,4,2.5,5.7c-0.5,0.4-1.8,1.4-3.7,1.3
		c-2.5,0-4.7-1.8-5.4-4.1C228.1,407,229.7,403.7,232.9,402.5z"/>
	<path class="st13" d="M249.7,422.6c-2.3,0.1-5.1-1-6-3.5c-0.5-1.5-0.2-2.8,0-3.4c1.3-0.5,2.9-0.9,4.8-1.2c2.2-0.3,4.1-0.3,5.5-0.2
		c0.2,0.2,0.6,0.5,0.8,1c1,1.8,0.1,4.4-1.5,5.8C251.9,422.4,250.3,422.6,249.7,422.6z"/>
	<path class="st16" d="M249.5,421c-1.7,0.2-3.6-0.8-4.3-2.5c-0.5-1.3-0.1-2.4,0-2.8c0.3-0.1,0.8-0.1,1.3-0.2c0.2,0,1.1-0.1,2.2-0.2
		c1.6-0.1,3.1-0.1,4.1-0.1c0.1,0.2,0.3,0.6,0.4,1.1c0.3,1.5-0.5,2.7-0.8,3.1C252.3,419.5,251.3,420.8,249.5,421z"/>
	<path class="st16" d="M230.7,410c-0.8-1.5-0.6-3.4,0.4-4.7c1.1-1.4,2.7-1.7,3-1.7c0.5,1.1,1.1,2.2,1.6,3.4c0.6,1.4,1.2,2.8,1.7,4.1
		c-0.2,0.2-1.6,1.3-3.5,1.1C233.7,412.2,231.7,411.9,230.7,410z"/>
	<path class="st9" d="M255.9,417.2"/>
	<path class="st13" d="M246.7,415.1c-0.2,0.3-0.6,1-0.5,1.9c0,1.1,0.6,2.1,1.6,2.6c0.2,0.1,1.5,0.8,2.8,0.2c1.3-0.6,1.6-2,1.6-2.3
		c0.2-1.2-0.4-2.2-0.5-2.4c-1.1,0-2.2,0.1-3.3,0.1C247.7,415.1,247.2,415.1,246.7,415.1z"/>
	<path class="st13" d="M234.7,404.8c-0.3,0-1.2,0-2,0.7c-0.8,0.6-1.3,1.7-1.1,2.9c0.2,1.4,1.4,2,1.6,2.1c1.1,0.6,2.2,0.3,2.5,0.2
		c1.1-0.3,1.7-1,1.9-1.3c-0.7-1-1.5-2.1-2.2-3.3C235.2,405.7,235,405.2,234.7,404.8z"/>
	<circle class="st17" cx="249.9" cy="416.6" r="1.5"/>
	<circle class="st17" cx="234.3" cy="407.3" r="1.5"/>
	<path class="st18" d="M240.4,397.7c0.9,0.4,2.7,1.5,4.1,3.7c1.1,1.8,1.5,3.5,1.6,4.4c1-0.4,2.6-0.9,4.6-0.9c2.2,0,3.9,0.5,4.9,1
		c-0.9-1.4-2.9-3.9-6.4-5.8C245.6,397.9,242.1,397.7,240.4,397.7z"/>
	<path class="st5" d="M246.2,405.8c1.2-0.5,3.5-1.1,6.3-0.8c1.7,0.2,3,0.6,4,1.1c0.4,0.6,0.8,1.3,1.2,2.2c0.4,1,0.6,2,0.7,2.7
		c-1.7-2.2-3.6-3-4.4-3.4c-1.6-0.6-3.1-0.5-4.7-0.5c-1.8,0-3.3,0.3-4.3,0.6c-0.4-1.1-1-2.7-2.1-4.5c-1-1.7-1.6-2.8-2.8-3.7
		c-0.7-0.5-2.3-1.6-5.2-1.6c0.5-0.3,1.2-0.6,2.1-0.8c0.4-0.1,1.7-0.2,3,0.1c2,0.4,3.1,2.2,4.1,3.7
		C244.8,401.8,245.7,403.4,246.2,405.8z"/>
	<path class="st9" d="M244.3,408.7c0.9-0.3,2.3-0.7,4-0.8c1.7-0.1,3.9-0.2,6,1.1c2.3,1.4,3.1,3.7,3.4,4.6c-1.9-0.7-3.5-1.1-4.8-1.4
		c-2.4-0.4-4.3-0.4-5.7-0.4c-1.3,0-3,0.1-4.9,0.5c-7.8-8.1-9-11.2-8.2-12.3c0.9-1.3,4.7-0.6,7.1,1.2
		C244.7,403.9,244.3,408.5,244.3,408.7z"/>
	<path class="st19" d="M234,400c0.7-0.1,1.9-0.2,3.3,0.2c0.6,0.1,2.8,0.7,4.5,2.7c2.4,2.8,2,6.3,1.9,6.8c0.9-0.5,3.2-1.8,6.3-1.5
		c1.1,0.1,3.8,0.3,5.8,2.5c0.9,1,1.3,2.1,1.5,2.8c0.6,0.3,1.2,0.6,1.8,0.8c0-0.6-0.1-1.5-0.5-2.5c-1-2.5-3.1-3.7-3.7-4
		c-2.5-1.3-5-1.1-6.7-0.9c-1.4,0.1-2.6,0.4-3.3,0.7c-0.1-0.8-0.7-6.1-4.8-8.6c-0.6-0.4-1.9-1.2-3.7-1.3c-2-0.1-3.5,0.6-4.2,1
		c0.2,0.1,0.5,0.3,0.7,0.5C233.3,399.5,233.6,399.7,234,400z"/>
	<path class="st13" d="M242.8,416.1c-0.5-0.7-1.1-1.5-1.6-2.2l1-1.6c-0.1,0-0.2,0-0.3-0.1c4.2-0.7,7.6-0.5,9.9-0.2
		c3.3,0.4,5.8,1.3,8,2.7c0.9,0.6,2.1,1.4,2,1.7c-0.1,0.3-1.2-0.2-3.5-0.6c-0.3,0-2.1-0.4-4.1-0.5c-1.7-0.1-3-0.1-4.3,0
		C248,415.4,245.6,415.6,242.8,416.1z"/>
	<path class="st13" d="M238.4,413.7c0.9,0.1,1.8,0.2,2.7,0.4l0.9-1.6c0.1-0.1,0.1-0.1,0.2-0.2c-1.5-3.7-3.3-6.4-4.6-8.3
		c-2-2.7-3.9-4.5-6.3-5.8c-0.2-0.1-2.1-1.1-2.3-0.8c-0.1,0.2,0.5,0.8,2.2,2.8c1.2,1.4,1.9,2.4,2.5,3.3c1,1.5,1.6,2.6,2.1,3.8
		C236.5,408.9,237.5,411,238.4,413.7z"/>
	<path class="st16" d="M254,418.7"/>
</g>
</svg>
