<?xml version="1.0" encoding="utf-8"?>
<!-- Generator: Adobe Illustrator 22.0.0, SVG Export Plug-In . SVG Version: 6.00 Build 0)  -->
<svg version="1.1" id="Layer_1" xmlns="http://www.w3.org/2000/svg" xmlns:xlink="http://www.w3.org/1999/xlink" x="0px" y="0px"
	 viewBox="0 0 714.3 495.3" style="enable-background:new 0 0 714.3 495.3;" xml:space="preserve">
<style type="text/css">
	.st0{fill:#02C54C;}
	.st1{fill:#F44336;}
	.st2{fill:#FFFFFF;}
</style>
<path class="st0" d="M629.7,212.7c0,33.2,0.7,66.4,0.7,99.6c-7.6,7.6-15.2,15.9-22.8,23.5c-155.7,0-311.4-0.7-467.1-0.7
	c-6.9-9-13.1-18-20.1-27c0.7-32.5,1.4-65,2.1-97.6c7.6-6.9,15.2-13.1,22.8-19.4c150.9-0.7,301.7-2.1,452.6-2.8
	C608.9,196.8,618.6,205.1,629.7,212.7z"/>
<g>
	<g>
		<path class="st0" d="M146.7,118.9c0,25.6,20.1,45.7,45.7,45.7s45.7-20.1,45.7-45.7S218,73.3,192.3,73.3
			C166.7,73.3,146.7,93.3,146.7,118.9z M164.7,118.9c0-15.9,12.5-27.7,27.7-27.7c15.9,0,27.7,11.8,27.7,27.7s-12.5,27.7-27.7,27.7
			C177.1,146.6,164.7,134.9,164.7,118.9z"/>
		<path d="M375.7,91.3h219.4c5.5,0,9-3.5,9-9s-3.5-9-9-9H375c-5.5,0-9,3.5-9,9S370.2,91.3,375.7,91.3z"/>
		<circle class="st1" cx="521.7" cy="155.6" r="9"/>
		<circle cx="485.1" cy="155.6" r="9"/>
		<circle class="st1" cx="449.1" cy="155.6" r="9"/>
		<circle class="st0" cx="412.4" cy="155.6" r="9"/>
		<circle class="st0" cx="375.7" cy="155.6" r="9"/>
		<path d="M292.7,118.9c0,5.5,3.5,9,9,9h183.4c5.5,0,9-3.5,9-9s-3.5-9-9-9H302.4C296.8,110,293.4,113.4,292.7,118.9z"/>
		<path class="st2" d="M146.7,265c0,25.6,20.1,45.7,45.7,45.7S238,290.6,238,265s-20.1-45.7-45.7-45.7S146.7,239.4,146.7,265z
			 M164.7,265c0-15.9,12.5-27.7,27.7-27.7c15.9,0,27.7,11.8,27.7,27.7s-12.5,27.7-27.7,27.7C177.1,292.6,164.7,280.9,164.7,265z"/>
		<path class="st2" d="M293.4,228.3c0,5.5,3.5,9,9,9h146.7c5.5,0,9-3.5,9-9s-3.5-9-9-9H302.4C296.8,219.3,293.4,223.4,293.4,228.3z"
			/>
		<circle cx="485.1" cy="301.6" r="9"/>
		<circle cx="449.1" cy="301.6" r="9"/>
		<circle cx="412.4" cy="301.6" r="9"/>
		<circle cx="375.7" cy="301.6" r="9"/>
		<circle cx="339" cy="301.6" r="9"/>
		<circle cx="302.4" cy="301.6" r="9"/>
		<path class="st2" d="M293.4,265.6c0,5.5,3.5,9,9,9h292.7c5.5,0,9-4.2,9-9.7s-3.5-9-9-9H302.4C296.8,256,293.4,260.1,293.4,265.6z"
			/>
		<path d="M128.7,192.3c-10.4,8.3-18,22.1-18,36.7v72.7c0,14.5,6.9,28.4,18,36.7c-10.4,8.3-18,22.1-18,36.7v73.4
			c0,25.6,20.1,45.7,45.7,45.7c146.2,0.2,292.5,0.5,438.7,0.7c25.6,0,45.7-20.1,45.7-45.7v-73.4c0-14.5-6.9-28.4-18-36.7
			c10.4-8.3,18-22.1,18-36.7V229c0-14.5-6.9-28.4-18-36.7c10.4-8.3,18-22.1,18-36.7V82.3c0-25.6-20.1-45.7-45.7-45.7H155.7
			c-25.6,0-45.7,20.1-45.7,45.7v73.4C110,170.2,117.6,184,128.7,192.3z M155.7,347.3h439.4c15.9,0,27.7,12.5,27.7,27.7v73.4
			c0,15.9-12.5,27.7-27.7,27.7H156.4c-15.9,0-27.7-12.5-27.7-27.7H128V375C128,359.1,140.4,347.3,155.7,347.3z M155.7,201.3h439.4
			c15.9,0,27.7,12.5,27.7,27.7v72.7c0,15.9-12.5,27.7-27.7,27.7H156.4c-15.9,0-27.7-12.5-27.7-27.7H128V229
			C128,213.1,140.4,201.3,155.7,201.3z M128,82.3c0-15.9,12.5-27.7,27.7-27.7h439.4c15.9,0,27.7,12.5,27.7,27.7v73.4
			c0,15.9-12.5,27.7-27.7,27.7H156.4c-15.9,0-27.7-12.5-27.7-27.7H128V82.3z"/>
		<path d="M146.7,411.7c0,25.6,20.1,45.7,45.7,45.7s45.7-20.1,45.7-45.7S218,366,192.3,366C166.7,366,146.7,386.1,146.7,411.7z
			 M164.7,411.7c0-15.9,12.5-27.7,27.7-27.7c15.9,0,27.7,12.5,27.7,27.7c0,15.9-12.5,27.7-27.7,27.7
			C177.1,439.3,164.7,427.6,164.7,411.7z"/>
		<path d="M423.1,375c0-5.5-3.5-9-9-9h-110c-5.5,0-9,3.5-9,9s3.5,9,9,9h110C419.6,384,423.1,380.5,423.1,375z"/>
		<circle class="st0" cx="448.4" cy="448.3" r="9"/>
		<circle class="st0" cx="411.7" cy="448.3" r="9"/>
		<circle class="st0" cx="375.1" cy="448.3" r="9"/>
		<circle class="st1" cx="339" cy="448.3" r="9"/>
		<circle class="st1" cx="302.4" cy="448.3" r="9"/>
		<path d="M293.4,411.7c0,5.5,3.5,9,9,9h292.7c5.5,0,9-3.5,9-9s-3.5-9-9-9H302.4C296.8,402.7,293.4,406.1,293.4,411.7z"/>
	</g>
</g>
<g>
	<circle class="st2" cx="581.1" cy="386.3" r="106"/>
	<g>
		<g>
			<path d="M519,475.2c49.1,34.8,117.2,23.2,152-25.9l-11.9-8.4c-24.3,34.1-67.9,48.5-107.7,35.5c-49.6-17.2-76.1-71-59.6-120.8
				c17.2-49.6,71-76.1,120.8-59.6c33.3,11.8,57.4,40.9,62.8,75.8l-31.2-10.5l-4.7,13.8l55.1,18.7l18.7-55.1l-13.8-4.7l-12.3,36.4
				c0.9-3.8,1.1-7.7,0.4-11.5c-9.3-35.5-35.8-64-70.5-75.9c-45.7-15.4-96,0.9-123.9,40.2C458.3,372.3,469.9,440.4,519,475.2z"/>
		</g>
	</g>
	<g>
		<g>
			<path d="M623.8,414.2l-38.4-23V328c0-4.7-3.8-8.5-8.5-8.5s-8.5,3.8-8.5,8.5v68c0,3,1.6,5.8,4.1,7.3l42.5,25.5
				c4,2.4,9.2,1.1,11.7-2.9C629.1,421.8,627.8,416.6,623.8,414.2z"/>
		</g>
	</g>
</g>
</svg>
