<?xml version="1.0" encoding="utf-8"?>
<!-- Generator: Adobe Illustrator 22.1.0, SVG Export Plug-In . SVG Version: 6.00 Build 0)  -->
<svg version="1.1" id="Capa_1" xmlns="http://www.w3.org/2000/svg" xmlns:xlink="http://www.w3.org/1999/xlink" x="0px" y="0px"
	 viewBox="0 0 704.7 716.4" style="enable-background:new 0 0 704.7 716.4;" xml:space="preserve">
<style type="text/css">
	.st0{fill:#02C54C;}
</style>
<path class="st0" d="M312.3,526.4l11-0.5V123.1l-21,30.4C208.4,289.2,64.8,495.4,54.1,506.6c-3.8,3.6-5,9-3.1,13.7
	c3.3,8.2,7.1,11.5,70.2,11.5C194.6,531.8,311.1,526.5,312.3,526.4z M82,508c39.7-53.6,162.6-230.7,218.3-311.1v307
	c-30.8,1.3-119.4,4.9-179.1,4.9C102.3,508.8,90,508.4,82,508z"/>
<path class="st0" d="M659.4,503.1c0.6-3,58.5-305.4-236.3-459.5L404.7,34v512.9l253-35L659.4,503.1z M636.2,489.4L429.9,518V76.1
	C664,210.5,643.4,441,636.2,489.4z"/>
<path class="st0" d="M161.9,653.5c-4.2-8.5-9.9-20.7-16.4-36.3l497.1-52.9c-13.4,14.8-26.8,29.7-40.2,44.6
	c-20.4,22.7-40.8,45.4-61.1,68.1c6.7,5.1,13.3,10.2,20,15.3c18.6-20.6,59.6-66.1,78.2-86.7c13.8-15.4,52.1-57.8,65.9-73.2
	l-597.2,63.4c12.4,27.6,24.9,55.2,37.3,82.8c3.2,4.3,8,6.6,12.7,5.8c6-0.9,8.9-6.5,9.1-6.9C170.7,670.9,166.6,663.1,161.9,653.5z"/>
<rect x="354.4" y="10.6" class="st0" width="25.2" height="572.9"/>
<path class="st0" d="M215.4,651.5c50.1,44.4,115.6,72.3,183,52.9c15.4-4.4,30.3-11,43.6-20c21.7-14.6,24.3-30,36.7-30.4
	c13.6-0.4,16.3,16.4,39.2,34.4c25.4,19.9,53.7,24,68,26c28.6,4.1,51.3-0.5,61.5-3c12.1-3,21.8-6.9,28.8-10.1
	c6.1-5.6,7.4-13.8,3.9-19.1c-2.9-4.5-8.3-5.4-9.5-5.6c-8.3,4.4-21.2,10.1-37.8,12.8c-6.7,1.1-52.7,7.9-91.8-19.8
	c-29.9-21.2-32.9-46.5-54.9-47.5c-12.3-0.5-21.6,5.8-32.3,15.7c-73,66.8-159.7,54.2-230.7-12.9c-6.2-5.9-14.7-4-19.5,2.5
	C152.5,698.3,72,691.2,5.4,647.9c-2.5-1.6-6,1.7-4.2,4.2C54.3,728.8,158.5,712.6,215.4,651.5z"/>
</svg>
