<?xml version="1.0" encoding="utf-8"?>
<!-- Generator: Adobe Illustrator 22.0.0, SVG Export Plug-In . SVG Version: 6.00 Build 0)  -->
<svg version="1.1" id="Layer_1" xmlns="http://www.w3.org/2000/svg" xmlns:xlink="http://www.w3.org/1999/xlink" x="0px" y="0px"
	 viewBox="0 0 714.3 495.3" style="enable-background:new 0 0 714.3 495.3;" xml:space="preserve">
<style type="text/css">
	.st0{fill:#CACECC;}
	.st1{fill:#02C54C;}
	.st2{fill:#FCDC48;}
	.st3{fill:#FFFFFF;stroke:#000000;stroke-width:4;stroke-miterlimit:10;}
	.st4{fill:#FFFFFF;}
	.st5{fill:none;stroke:#000000;stroke-width:14;stroke-miterlimit:10;}
</style>
<path class="st0" d="M619.2,469.1c-8.4,6.1-16.9,12.1-25.3,18.1c-148.9,0.1-297.8,0.1-446.7,0.2c-7.5-5.5-15-10.9-22.5-16.3
	c-2-10.1-4-20.1-6-30.3c13.1,0,26.3,0,39.5,0c1.3,1.8,15.7,23.5,43,24.2c28.9,0.8,44.9-23,45.7-24.2c124.8,0,249.4,0,374.2,0
	C620.4,450.3,619.8,459.7,619.2,469.1z"/>
<g>
	<path class="st1" d="M620.9,80.4c0.4,16,0.5,32.6,0.3,49.9c-0.2,16.7-0.8,32.7-1.7,48.2c-1.5,3.4-4.2,9-9.6,14.3
		c-4.6,4.6-9.5,7.2-12.7,8.6c-151.9,0-303.7-0.6-455.5-0.6c-3.4-2.1-8.3-6-12.8-12.2c-3.9-5.5-5.8-10.6-6.9-14.2
		c0.6-31.8,1.4-63.7,2-95.5c7.4-6.7,14.9-12.9,22.3-19c73.6-0.6,147.1-1.1,220.7-1.4c76.7-0.3,153.5-0.4,230.2-0.3
		C605.1,65.6,612.9,73,620.9,80.4z"/>
	<ellipse cx="512" cy="169.3" rx="8.8" ry="8.7"/>
	<ellipse cx="476.2" cy="169.3" rx="8.8" ry="8.7"/>
	<ellipse cx="441" cy="169.3" rx="8.8" ry="8.7"/>
	<ellipse cx="405.1" cy="169.3" rx="8.8" ry="8.7"/>
	<ellipse cx="369.2" cy="169.3" rx="8.8" ry="8.7"/>
	<ellipse cx="476.2" cy="312" rx="8.8" ry="8.7"/>
	<ellipse cx="441" cy="312" rx="8.8" ry="8.7"/>
	<ellipse cx="405.1" cy="312" rx="8.8" ry="8.7"/>
	<ellipse cx="369.2" cy="312" rx="8.8" ry="8.7"/>
	<ellipse cx="333.3" cy="312" rx="8.8" ry="8.7"/>
	<ellipse cx="297.5" cy="312" rx="8.8" ry="8.7"/>
	<ellipse class="st1" cx="422" cy="383.6" rx="8.8" ry="8.7"/>
	<ellipse class="st1" cx="386.1" cy="383.6" rx="8.8" ry="8.7"/>
	<ellipse class="st1" cx="350.2" cy="383.6" rx="8.8" ry="8.7"/>
	<ellipse class="st1" cx="301.9" cy="383.6" rx="8.8" ry="8.7"/>
	<ellipse class="st1" cx="266" cy="383.6" rx="8.8" ry="8.7"/>
</g>
<path d="M361.2,107.7h204.7c5.2,0,8.4-3.3,8.4-8.4s-3.3-8.4-8.4-8.4H360.7c-5.2,0-8.4,3.3-8.4,8.4
	C352.2,104.4,356,107.6,361.2,107.7z"/>
<path d="M283.7,133.5c0,5.2,3.3,8.4,8.4,8.4h171.1c5.2,0,8.4-3.3,8.4-8.4s-3.3-8.4-8.4-8.4H292.8C287.6,125,284.5,128.3,283.7,133.5
	z"/>
<path d="M284.4,240.7c0,5.2,3.3,8.4,8.4,8.4h136.9c5.2,0,8.4-3.3,8.4-8.4s-3.3-8.4-8.4-8.4H292.8C287.6,232.2,284.5,236,284.4,240.7
	z"/>
<path d="M284.4,275.5c0,5.2,3.3,8.4,8.4,8.4h273.1c5.2,0,8.4-3.9,8.4-9.1s-3.3-8.4-8.4-8.4H292.8
	C287.6,266.4,284.5,270.2,284.4,275.5z"/>
<path d="M574.3,385.6c0-5.2-3.3-8.4-8.4-8.4H463.2c-5.2,0-8.4,3.3-8.4,8.4s3.3,8.4,8.4,8.4h102.7C571,394,574.3,390.8,574.3,385.6z"
	/>
<path d="M284.4,419.9c0,5.2,3.3,8.4,8.4,8.4h273.1c5.2,0,8.4-3.3,8.4-8.4s-3.3-8.4-8.4-8.4H292.8
	C287.6,411.4,284.5,414.7,284.4,419.9z"/>
<path d="M134.5,204c-10,8-17.3,21.3-17.3,35.3v69.9c0,14,6.6,27.3,17.3,35.3c-10,8-17.3,21.3-17.3,35.3v70.7c0,24.7,19.3,44,44,44
	c140.8,0.2,281.6,0.4,422.4,0.6c24.7,0,44-19.3,44-44v-70.5c0-14-6.6-27.3-17.3-35.3c10-8,17.3-21.3,17.3-35.3v-70.5
	c0-14-6.6-27.3-17.3-35.3c10-8,17.3-21.3,17.3-35.3V98.4c0-24.7-19.3-44-44-44h-423c-24.7,0-44,19.3-44,44v70.5
	C116.6,182.8,123.8,196.2,134.5,204z M160.5,353.1h423.1c15.4,0,26.7,12,26.7,26.7v70.5c0,15.4-12,26.7-26.7,26.7H161.2
	c-15.4,0-26.7-12-26.7-26.7h-0.6v-70.5C133.9,364.5,145.9,353.1,160.5,353.1z M160.5,212.7h423.1c15.4,0,26.7,12,26.7,26.7v69.9
	c0,15.4-12,26.7-26.7,26.7H161.2c-15.4,0-26.7-12-26.7-26.7h-0.6v-69.9C133.9,224.1,145.9,212.7,160.5,212.7z M133.9,168.9
	l-0.1-70.5c0-15.4,12-26.7,26.7-26.7h423.1c15.4,0,26.7,12,26.7,26.7v70.5c0,15.4-12,26.7-26.7,26.7H161.2
	c-15.4,0-26.7-12-26.7-26.7H133.9L133.9,168.9z"/>
<g>
	<path class="st2" d="M697.3,365c-3.7,2.3-7.3,4.6-11,6.9c-28-0.3-56-0.7-84.1-1.1c-2.5-1.5-4.9-3-7.4-4.5
		c0.2-46.2,0.5-92.5,0.7-138.7c8.7-12.6,17.4-25.4,26.1-38.1c17.2,0.4,34.5,0.8,51.7,1.3c8.8,13,17.5,25.9,26.2,39
		C698.7,274.9,697.9,319.9,697.3,365z"/>
	<g>
		<path d="M699.6,371.9c-3.7,3.8-8.5,5.8-13.8,5.8l-78.7,0.4c-5.2,0-10.2-1.9-14-5.7c-3.7-3.6-5.7-8.6-5.7-13.8l-0.5-127.2
			c0-3.7,1.2-7.6,3.2-10.8l20-30.3c0.7-1,1.6-2,2.4-2.9c3.6-3.7,8.5-5.8,13.8-5.8l38.4-0.2c6.7,0,12.8,3.3,16.3,9l20.1,30
			c2.1,3.1,3.2,6.9,3.3,10.8c0.1,23.9,0.3,48.5,0.3,72.7c0,1.6-0.7,3.4-1.8,4.6c-1.2,1.2-2.8,2-4.5,1.9c-3.6,0-6.5-2.9-6.4-6.4
			c0-12.2-0.1-24.3-0.1-36.5c-0.1-12.1-0.1-24.2-0.1-36.3v-0.1c0-1.2-0.4-2.5-1.2-3.7l-20.1-30c-1.1-1.9-3.3-3-5.5-2.9l-38.4,0.2
			c-1.9-0.1-3.4,0.6-4.7,1.9c-0.3,0.3-0.7,0.7-0.9,1.1l-20.1,30.2c-0.8,1.1-1.2,2.4-1.2,3.7l0.5,127.1c0,3.6,3.1,6.6,6.7,6.7
			l78.7-0.4c1.8,0,3.4-0.8,4.7-2s2-2.9,2-4.7l-0.1-23.9c-0.2-2,0.5-4,1.9-5.4c1.1-1.1,2.5-1.8,4-2h0.1c1.9-0.1,3.7,0.6,5,2.1
			c1.3,1.4,2,3.1,1.7,5l0.1,24C705.2,363.2,703.2,368.3,699.6,371.9z"/>
		<path class="st3" d="M645.8,235.6c9,0,16.4-7.4,16.3-16.5c0-9-7.4-16.4-16.5-16.3c-9,0-16.4,7.4-16.3,16.5
			C629.4,228.3,636.7,235.7,645.8,235.6z"/>
	</g>
	<g>
		<path d="M652.8,263.3c0.9-0.1,1.6-0.7,1.9-1.3c0.4-0.7,0.5-1.4,0.5-2.3c0-1.9-0.6-2.8-1.5-2.9c-4.1,0-1.5,15.7-11.5,15.7
			c-6.3,0-9.4-5.3-9.4-12.8c0-7.2,4.2-11.9,9.1-12.1v8.6c-1,0.2-1.7,0.7-2.1,1.5c-0.5,0.7-0.7,1.7-0.7,2.6c0,2.2,0.7,3.7,2,3.7
			c4.2,0,1.4-15.7,11.7-15.7c5.8,0,8.7,5.1,8.7,11.8c0,7.6-3.9,11.1-8.6,11.6L652.8,263.3z"/>
		<path d="M633.4,272.3l27.3,9.8l-0.1,9.1l-27.4,9.8l0.1-9l3.6-1l0.1-9l-3.6-1.1L633.4,272.3z M652.5,286.6l-9.8-2.8v5.7
			L652.5,286.6z"/>
		<path d="M633.4,302.4h27.3l-0.1,9l-21-0.1v12.3h-6.4L633.4,302.4z"/>
		<path d="M633.4,325.8h27.3l-0.1,22.3h-6.4v-13.4h-3.9V346h-6.4v-11.3h-4.3v13.8h-6.4L633.4,325.8z"/>
	</g>
</g>
<path class="st4" d="M157.4,132.5c0,25.3,19.9,45.2,45.3,45.2s45.3-19.9,45.3-45.2s-19.8-45.2-45.3-45.2S157.4,107.2,157.4,132.5z
	 M175.2,132.5c0-15.7,12.3-27.4,27.4-27.4c15.7,0,27.4,11.7,27.4,27.4s-12.3,27.4-27.4,27.4C187.6,159.9,175.2,148.2,175.2,132.5z"
	/>
<path class="st1" d="M157.4,274c0,25.3,19.9,45.2,45.3,45.2S248,299.3,248,274s-19.8-45.2-45.3-45.2S157.4,248.7,157.4,274z
	 M175.2,274.1c0-15.7,12.3-27.4,27.4-27.4c15.7,0,27.4,11.7,27.4,27.4c0,15.7-12.3,27.4-27.4,27.4
	C187.6,301.5,175.2,289.8,175.2,274.1z"/>
<path d="M157.4,413c0,25.3,19.9,45.2,45.3,45.2S248,438.4,248,413c0-25.3-19.8-45.2-45.3-45.2S157.4,387.7,157.4,413z M175.2,413.1
	c0-15.7,12.3-27.4,27.4-27.4c15.7,0,27.4,12.3,27.4,27.4c0,15.7-12.3,27.4-27.4,27.4C187.6,440.5,175.2,428.8,175.2,413.1z"/>
<path class="st5" d="M546.9,71.1c1.7-24.5,16.3-46.2,38.1-56.4c24-11.2,53.5-6.9,72.5,11.5c1.6,1.6,21.1,21,18.8,47.3
	c-1.9,22.9-18.6,31.2-29.8,51.7c-9.9,18.1-16.3,47-0.8,94.7"/>
</svg>
