<?xml version="1.0" encoding="utf-8"?>
<!-- Generator: Adobe Illustrator 22.0.0, SVG Export Plug-In . SVG Version: 6.00 Build 0)  -->
<svg version="1.1" id="Layer_1" xmlns="http://www.w3.org/2000/svg" xmlns:xlink="http://www.w3.org/1999/xlink" x="0px" y="0px"
	 viewBox="0 0 100 100.2" style="enable-background:new 0 0 100 100.2;" xml:space="preserve">
<style type="text/css">
	.st0{fill:#02c54c;}
	.st1{fill:#FFFFFF;}
</style>
<path class="st0" d="M96.4,96.5V29.1H80.5V11.2h-16V0H35.2v11.2H19.5v17.9H3.6v67.4h-3.8v2.9H100v-2.9H96.4z M37.7,51.4v7.9H12.4
	l9.1-9.9h56.8l9,9.9H63.8v-7.9H37.7z M70.4,26.5v19.9H30.3V26.5H70.4z M77.6,14.1v32.4h-4.3V23.6h-8.8v-9.5
	C64.5,14.1,77.6,14.1,77.6,14.1z M61.6,2.9v20.7H38.1V2.9H61.6z M35.2,14.1v9.5h-7.9v22.9h-5V14.1H35.2z M6.5,32h13v15.2L6.9,60.9
	v10.4c0,2,1.7,3.7,3.8,3.7s3.8-1.6,3.8-3.7v-5.6h-2.9v5.6c0,0.4-0.4,0.7-0.9,0.7s-0.9-0.3-0.9-0.7v-9.1h30.9v-7.9H61v7.9h28.9v9.1
	c0,0.4-0.4,0.7-0.9,0.7s-0.9-0.3-0.9-0.7v-5.6h-2.9v5.6c0,2,1.7,3.7,3.8,3.7s3.8-1.6,3.8-3.7V60.9L80.5,47.5V32h13v64.4H80.3V77.3
	h-2.9v19.2H22.3V76.7h-2.9v19.8H6.5V32z"/>
<rect x="37" y="39.8" class="st0" width="26.6" height="2.9"/>
<path class="st0" d="M22.5,71.4v-5.6h-2.9v5.6c0,0.4-0.4,0.7-0.9,0.7s-0.9-0.3-0.9-0.7v-5.6h-2.9v5.6c0,2,1.7,3.7,3.8,3.7
	C20.8,75,22.5,73.4,22.5,71.4z"/>
<path class="st0" d="M26.6,75c2.1,0,3.8-1.6,3.8-3.7v-5.6h-2.9v5.6c0,0.4-0.4,0.7-0.9,0.7s-0.9-0.3-0.9-0.7v-5.6h-2.9v5.6
	C22.8,73.4,24.5,75,26.6,75z"/>
<path class="st0" d="M34.5,75c2.1,0,3.8-1.6,3.8-3.7v-5.6h-2.9v5.6c0,0.4-0.4,0.7-0.9,0.7s-0.9-0.3-0.9-0.7v-5.6h-2.9v5.6
	C30.7,73.4,32.4,75,34.5,75z"/>
<path class="st0" d="M42.4,75c2.1,0,3.8-1.6,3.8-3.7v-5.6h-2.9v5.6c0,0.4-0.4,0.7-0.9,0.7s-0.9-0.3-0.9-0.7v-5.6h-2.9v5.6
	C38.6,73.4,40.3,75,42.4,75z"/>
<path class="st0" d="M50.3,75c2.1,0,3.8-1.6,3.8-3.7v-5.6h-2.9v5.6c0,0.4-0.4,0.7-0.9,0.7s-0.9-0.3-0.9-0.7v-5.6h-2.9v5.6
	C46.5,73.4,48.2,75,50.3,75z"/>
<path class="st0" d="M58.2,75c2.1,0,3.8-1.6,3.8-3.7v-5.6h-2.9v5.6c0,0.4-0.4,0.7-0.9,0.7s-0.9-0.3-0.9-0.7v-5.6h-2.9v5.6
	C54.4,73.4,56.1,75,58.2,75z"/>
<path class="st0" d="M66.1,75c2.1,0,3.8-1.6,3.8-3.7v-5.6H67v5.6c0,0.4-0.4,0.7-0.9,0.7s-0.9-0.3-0.9-0.7v-5.6h-2.9v5.6
	C62.3,73.4,64,75,66.1,75z"/>
<path class="st0" d="M74,75c2.1,0,3.8-1.6,3.8-3.7v-5.6h-2.9v5.6c0,0.4-0.4,0.7-0.9,0.7s-0.9-0.3-0.9-0.7v-5.6h-2.9v5.6
	C70.2,73.4,71.9,75,74,75z"/>
<path class="st0" d="M81.9,75c2.1,0,3.8-1.6,3.8-3.7v-5.6h-2.9v5.6c0,0.4-0.4,0.7-0.9,0.7S81,71.7,81,71.3v-5.6h-2.9v5.6
	C78.1,73.4,79.8,75,81.9,75z"/>
<rect x="43.1" y="9" class="st0" width="15.2" height="2.2"/>
<rect x="43.1" y="13.6" class="st0" width="15.2" height="2.2"/>
<path class="st0" d="M60.1,96.6H41.6v-18c0-1.1,0.9-1.9,1.9-1.9H58c1.1,0,1.9,0.9,1.9,1.9v18H60.1z"/>
<path class="st1" d="M57.8,96.5H44v-17c0-0.3,0.2-0.5,0.5-0.5h12.6c0.3,0,0.5,0.2,0.5,0.5v17H57.8z"/>
<rect x="49.7" y="77.9" class="st0" width="2.3" height="19"/>
<path class="st0" d="M47.7,87.8h-1.3c-0.2,0-0.4-0.2-0.4-0.4v-4.3c0-0.2,0.2-0.4,0.4-0.4h1.3c0.2,0,0.4,0.2,0.4,0.4v4.3
	C48.1,87.7,47.9,87.8,47.7,87.8z"/>
<path class="st0" d="M55.4,87.9H54c-0.2,0-0.4-0.2-0.4-0.4v-4.3c0-0.2,0.2-0.4,0.4-0.4h1.4c0.2,0,0.4,0.2,0.4,0.4v4.3
	C55.7,87.7,55.6,87.9,55.4,87.9z"/>
<rect x="58" y="30.8" class="st0" width="5.6" height="5.6"/>
<rect x="47.6" y="30.7" class="st0" width="5.6" height="5.6"/>
<rect x="37" y="30.8" class="st0" width="5.6" height="5.6"/>
</svg>
