<?xml version="1.0" encoding="utf-8"?>
<!-- Generator: Adobe Illustrator 22.1.0, SVG Export Plug-In . SVG Version: 6.00 Build 0)  -->
<svg version="1.1" id="Layer_1" xmlns="http://www.w3.org/2000/svg" xmlns:xlink="http://www.w3.org/1999/xlink" x="0px" y="0px"
	 viewBox="0 0 348.7 304.7" style="enable-background:new 0 0 348.7 304.7;" xml:space="preserve">
<style type="text/css">
	.st0{opacity:0.1;fill:url(#SVGID_1_);enable-background:new    ;}
	.st1{opacity:0.1;fill:url(#SVGID_2_);enable-background:new    ;}
	.st2{fill:#F5BF3D;}
	.st3{fill:#EAA421;}
	.st4{fill:#A22A22;}
	.st5{font-family:'ArialMT';}
	.st6{font-size:18px;}
	.st7{fill:none;stroke:#F5BF3D;stroke-width:2;}
</style>
<linearGradient id="SVGID_1_" gradientUnits="userSpaceOnUse" x1="-6.417" y1="311.2783" x2="253.0436" y2="53.4195" gradientTransform="matrix(1 0 0 -1 0 350)">
	<stop  offset="0" style="stop-color:#000000"/>
	<stop  offset="1" style="stop-color:#000000;stop-opacity:0"/>
</linearGradient>
<polygon class="st0" points="41.3,255.3 134.3,348.3 366.7,348.3 397.1,271.6 137.8,12.3 123.2,26 97.3,0 74.3,41.5 63.9,31.1 
	56.8,63 33,88.6 17.3,74.2 21.5,124.8 20.7,154.5 12.7,187.7 27.9,203.2 31.1,212.8 33.3,235.3 49.3,251.3 49,255.1 "/>
<linearGradient id="SVGID_2_" gradientUnits="userSpaceOnUse" x1="133.9958" y1="293.1687" x2="301.2331" y2="123.1898" gradientTransform="matrix(1 0 0 -1 0 350)">
	<stop  offset="0" style="stop-color:#000000"/>
	<stop  offset="1" style="stop-color:#000000;stop-opacity:0"/>
</linearGradient>
<polygon class="st1" points="250.4,2.2 283,34.7 283.8,33.2 328.2,77.8 330.5,76.3 414.5,160.4 414.5,343.2 243.1,348.3 
	201.3,306.9 194.5,286.7 217.8,284 231.1,273.4 259.5,264.3 278.3,251.9 298.4,213.5 309.7,224.8 309.6,215.5 317.8,160.1 
	328.1,170.3 326.8,164.7 316.4,154.4 308.7,133.4 234,58.7 240.1,53.4 226.5,39.7 252.7,33.2 "/>
<g>
	<path class="st2" d="M254.2,40.2c0.1-1.4,0-12.5-15.8-17.9c-12.6-4.3-19.4-4.8-28-10.5c0,0,0,0,0,0.1
		C215.6,21.2,242.1,27.3,254.2,40.2z"/>
	<path class="st3" d="M210.5,11.9c-0.9,3.1,8.2,28,30.3,31.9c12.5,2.2,13.5-3.5,13.5-3.5s0,0,0-0.1
		C242.1,27.3,215.6,21.2,210.5,11.9z"/>
</g>
<g>
	<path class="st2" d="M272.6,44.7c0.7-1.1,4.2-14.9-6.9-26.4C257.8,10.2,255,8.8,250.5,0c0,0,0,0,0,0
		C250.4,10.2,265.1,28.3,272.6,44.7z"/>
	<path class="st3" d="M250.4,0c-2.2,2.2-6.5,27.6,10.4,40.9c5.7,4.5,11.7,3.8,11.7,3.8s0,0,0.1-0.1C265.6,28.3,250.4,10.2,250.4,0z"
		/>
</g>
<g>
	<path class="st2" d="M324.4,126.3c1.3-0.6,12.2-10.7,9-27.3c-2.3-11.7-4-14.5-2.9-24.9c0,0,0,0-0.1,0
		C324.6,83.1,327.2,107.5,324.4,126.3z"/>
	<path class="st3" d="M330.5,74.2c-3.2,0.7-21.6,20.6-14.4,42.1c2.5,7.3,8.1,10.1,8.1,10.1s0,0,0.1-0.1
		C327.7,107.9,324.6,83.1,330.5,74.2z"/>
</g>
<g>
	<path class="st3" d="M280.5,56.2c-0.6,1.1-6,9.4-20.4,5.8c-11.5-2.8-16.9-5.8-26.1-5.6c0,0,0,0,0-0.1
		C242.3,52,264.3,53.7,280.5,56.2z"/>
	<path class="st2" d="M234,56.5c0.8-2.7,19.6-17.1,38.1-9.5c10.5,4.3,8.5,9.1,8.5,9.1s0,0-0.1,0.1C263.3,54.2,242.3,52,234,56.5z"/>
</g>
<g>
	<path class="st3" d="M323.8,155.8c-1.5-0.2-13.2-2.6-15.7-20.4c-2-14.2-1-21.6-5.4-31.9c0,0,0.1,0,0.1,0
		C311.6,110.9,312.7,140.3,323.8,155.8z"/>
	<path class="st2" d="M302.9,103.5c3.5-0.3,28,14.4,27.6,38.7c-0.2,13.7-6.5,13.6-6.5,13.6s-0.1,0-0.1,0
		C312.7,140.3,311.6,110.9,302.9,103.5z"/>
</g>
<g>
	<path class="st2" d="M305.4,76c0.7-1.1,6.2-10.2-4-22.4c-8.1-9.8-13.5-13.5-17.6-22.5c0,0,0,0,0,0C283.4,41.2,295.4,61.6,305.4,76z
		"/>
	<path class="st3" d="M283.8,31.1c-2.2,2.1-7.2,26.9,8.8,41.1c9.1,8.1,12.7,3.9,12.7,3.9s0,0,0.1-0.1
		C295.4,60.4,283.4,41.2,283.8,31.1z"/>
</g>
<g>
	<path class="st3" d="M315.4,95.7c-1.1,0.6-14.3,3-24.4-8.2c-7.2-7.9-8.2-10.7-16.3-15.5c0,0,0,0,0,0
		C284.3,72.5,300.4,87.6,315.4,95.7z"/>
	<path class="st2" d="M274.7,71.9c2.2-1.9,26.4-4.3,37.9,12.4c3.9,5.7,2.9,11.3,2.9,11.3s0,0-0.1,0.1
		C300.3,88.1,284.3,72.5,274.7,71.9z"/>
</g>
<g>
	<path class="st3" d="M327,192c1.5-0.3,13.6-2.9,15.8-21.5c1.7-14.8,0.6-22.4,4.9-33.1c0,0-0.1,0-0.1,0
		C338.7,145.2,338.2,175.7,327,192z"/>
	<path class="st2" d="M347.7,137.4c-3.6-0.2-28.7,15.6-27.8,40.7c0.5,14.2,7,13.9,7,13.9s0.1,0,0.2,0
		C338.2,175.7,338.7,145.2,347.7,137.4z"/>
</g>
<g>
	<path class="st2" d="M308.7,212.8c-1.1-0.9-9.8-8.9-2.8-25.3c5.6-13,10.2-18.7,11.8-29.6c0,0,0,0,0.1,0
		C321.5,168.6,315,194.2,308.7,212.8z"/>
	<path class="st3" d="M317.8,157.9c3.1,1.5,16.2,26.5,3.5,46.8c-7.2,11.5-12.5,8.1-12.5,8.1s0,0-0.1-0.1
		C314.6,193,321.5,168.6,317.8,157.9z"/>
</g>
<g>
	<path class="st3" d="M297.3,239.7c1.3,0.5,11.9,3.9,22.1-9.5c8.1-10.7,10.7-17.1,18.9-23.5c0,0,0,0-0.1,0
		C327.7,208.7,313.4,232.2,297.3,239.7z"/>
	<path class="st2" d="M338.2,206.7c-2.7-1.8-29.4-1-40.1,18.9c-6.1,11.3-0.9,14-0.9,14s0,0,0.1,0.1
		C313.4,232.2,327.7,208.7,338.2,206.7z"/>
</g>
<g>
	<path class="st2" d="M271.2,249.8c-0.5-1.1-1.7-14.5,10.4-23.6c8.5-6.4,11.4-7.3,16.9-14.8c0,0,0,0,0,0.1
		C297,220.9,280.6,235.6,271.2,249.8z"/>
	<path class="st3" d="M298.4,211.4c1.7,2.4,2,26.7-15.8,36.7c-6,3.4-11.5,1.8-11.5,1.8s0,0,0-0.1C280.1,235.5,297,220.9,298.4,211.4
		z"/>
</g>
<g>
	<path class="st3" d="M251,266.9c1,1.1,9.5,9.7,25.8,2c13-6.1,18.6-11,29.6-13c0,0,0,0,0-0.1C295.4,252.6,269.6,260,251,266.9z"/>
	<path class="st2" d="M306.4,255.9c-1.7-3.1-27.7-15.6-47.8-2c-11.4,7.7-7.7,12.9-7.7,12.9s0,0,0.1,0.1
		C270.9,260.3,295.4,252.6,306.4,255.9z"/>
</g>
<g>
	<path class="st2" d="M181.2,269.3c0.3-1.2,2.7-10.5,17.1-11.5c11.5-0.9,17.3,0.3,25.8-2.7c0,0,0,0,0,0.1
		C217.8,261.8,194.2,261.2,181.2,269.3z"/>
	<path class="st3" d="M224.1,255.1c0,2.8-13,21.7-32.3,20.2c-11-0.8-10.6-5.9-10.6-5.9s0,0,0-0.1
		C194.2,261.2,217.8,261.8,224.1,255.1z"/>
</g>
<g>
	<path class="st2" d="M224.1,271.5c-0.1-1.2-0.9-11,12.6-16.9c10.8-4.7,16.8-5.6,24-11.3c0,0,0,0,0,0.1
		C256.9,251.8,238.4,263.7,224.1,271.5z"/>
	<path class="st3" d="M260.7,243.2c1,2.7-5.2,25.3-24.4,30.4c-10.9,2.9-12.2-2.1-12.2-2.1s0,0,0-0.1
		C238.9,262.7,256.9,251.8,260.7,243.2z"/>
</g>
<g>
	<path class="st3" d="M191.4,277.4c0.5,1.4,5.1,12.2,22.7,10.9c14-1,20.9-3.4,31.6-1.3c0,0,0,0,0-0.1
		C236.9,280,208.5,285,191.4,277.4z"/>
	<path class="st2" d="M245.7,287c-0.4-3.4-19.5-23.9-42.7-18.7c-13.1,3-11.7,9-11.7,9s0,0,0.1,0.1C208.5,285,236.9,280,245.7,287z"
		/>
</g>
<g>
	<path class="st3" d="M181,273c-0.4,0.9-3.7,8.2,5,16.5c7,6.6,11.4,9,15.3,15.3c0,0,0,0,0,0C200.7,297.1,185.1,285.1,181,273z"/>
	<path class="st2" d="M201.3,304.7c1.5-1.8,3-20.9-10.4-30.1c-7.6-5.2-9.9-1.7-9.9-1.7s0,0,0,0.1
		C185.1,285.1,200.7,297.1,201.3,304.7z"/>
</g>
<g>
	<path class="st2" d="M93.5,40.2c-0.1-1.4,0-12.5,15.8-17.9c12.6-4.3,19.4-4.8,28-10.5c0,0,0,0,0,0.1
		C132.1,21.2,105.6,27.3,93.5,40.2z"/>
	<path class="st3" d="M137.3,11.9c0.9,3.1-8.2,28-30.3,31.9c-12.5,2.2-13.5-3.5-13.5-3.5s0,0,0-0.1
		C105.6,27.3,132.1,21.2,137.3,11.9z"/>
</g>
<g>
	<path class="st2" d="M75.1,44.7c-0.7-1.1-4.2-14.9,6.9-26.4C89.9,10.2,92.8,8.8,97.2,0c0,0,0,0,0,0C97.3,10.2,82.6,28.3,75.1,44.7z
		"/>
	<path class="st3" d="M97.3,0c2.2,2.2,6.5,27.6-10.4,40.9c-5.7,4.5-11.7,3.8-11.7,3.8s0,0-0.1-0.1C82.1,28.3,97.3,10.2,97.3,0z"/>
</g>
<g>
	<path class="st2" d="M23.3,126.3c-1.3-0.6-12.2-10.7-9-27.3c2.3-11.7,4-14.5,2.9-24.9c0,0,0,0,0.1,0
		C23.2,83.1,20.5,107.5,23.3,126.3z"/>
	<path class="st3" d="M17.3,74.2c3.2,0.7,21.6,20.6,14.4,42.1c-2.5,7.3-8.1,10.1-8.1,10.1s0,0-0.1-0.1
		C20.1,107.9,23.2,83.1,17.3,74.2z"/>
</g>
<g>
	<path class="st3" d="M67.3,56.2c0.6,1.1,6,9.4,20.4,5.8c11.5-2.8,16.9-5.8,26.1-5.6c0,0,0,0,0-0.1C105.4,52,83.4,53.7,67.3,56.2z"
		/>
	<path class="st2" d="M113.7,56.5c-0.8-2.7-19.6-17.1-38.1-9.5c-10.5,4.3-8.5,9.1-8.5,9.1s0,0,0.1,0.1
		C84.4,54.2,105.4,52,113.7,56.5z"/>
</g>
<g>
	<path class="st3" d="M23.9,155.8c1.5-0.2,13.2-2.6,15.7-20.4c2-14.2,1-21.6,5.4-31.9c0,0-0.1,0-0.1,0
		C36.1,110.9,35,140.3,23.9,155.8z"/>
	<path class="st2" d="M44.9,103.5c-3.5-0.3-28,14.4-27.6,38.7c0.2,13.7,6.5,13.6,6.5,13.6s0.1,0,0.1,0
		C35,140.3,36.1,110.9,44.9,103.5z"/>
</g>
<g>
	<path class="st2" d="M42.3,76c-0.7-1.1-6.2-10.2,4-22.4c8.1-9.8,13.5-13.5,17.6-22.5c0,0,0,0,0,0C64.4,41.2,52.3,61.6,42.3,76z"/>
	<path class="st3" d="M63.9,31.1c2.2,2.1,7.2,26.9-8.8,41.1c-9.1,8.1-12.7,3.9-12.7,3.9s0,0-0.1-0.1C52.3,60.4,64.4,41.2,63.9,31.1z
		"/>
</g>
<g>
	<path class="st3" d="M32.4,95.7c1.1,0.6,14.3,3,24.4-8.2c7.2-7.9,8.2-10.7,16.3-15.5c0,0,0,0,0,0C63.5,72.5,47.4,87.6,32.4,95.7z"
		/>
	<path class="st2" d="M73,71.9c-2.2-1.9-26.4-4.3-37.9,12.4c-3.9,5.7-2.9,11.3-2.9,11.3s0,0,0.1,0.1C47.4,88.1,63.5,72.5,73,71.9z"
		/>
</g>
<g>
	<path class="st3" d="M20.7,192c-1.5-0.3-13.6-2.9-15.8-21.5c-1.7-14.8-0.6-22.4-4.9-33.1c0,0,0.1,0,0.1,0
		C9,145.2,9.5,175.7,20.7,192z"/>
	<path class="st2" d="M0.1,137.4c3.6-0.2,28.7,15.6,27.8,40.7c-0.5,14.2-7,13.9-7,13.9s-0.1,0-0.2,0C9.5,175.7,9,145.2,0.1,137.4z"
		/>
</g>
<g>
	<path class="st2" d="M39,212.8c1.1-0.9,9.8-8.9,2.8-25.3c-5.6-13-10.2-18.7-11.8-29.6c0,0,0,0-0.1,0
		C26.2,168.6,32.8,194.2,39,212.8z"/>
	<path class="st3" d="M29.9,157.9c-3.1,1.5-16.2,26.5-3.5,46.8c7.2,11.5,12.5,8.1,12.5,8.1s0,0,0.1-0.1
		C33.1,193,26.2,168.6,29.9,157.9z"/>
</g>
<g>
	<path class="st3" d="M50.4,239.7c-1.3,0.5-11.9,3.9-22.1-9.5c-8.1-10.7-10.7-17.1-18.9-23.5c0,0,0,0,0.1,0
		C20,208.7,34.3,232.2,50.4,239.7z"/>
	<path class="st2" d="M9.5,206.7c2.7-1.8,29.4-1,40.1,18.9c6.1,11.3,0.9,14,0.9,14s0,0-0.1,0.1C34.3,232.2,20,208.7,9.5,206.7z"/>
</g>
<g>
	<path class="st2" d="M76.6,249.8c0.5-1.1,1.7-14.5-10.4-23.6c-8.5-6.4-11.4-7.3-16.9-14.8c0,0,0,0,0,0.1
		C50.7,220.9,67.2,235.6,76.6,249.8z"/>
	<path class="st3" d="M49.3,211.4c-1.7,2.4-2,26.7,15.8,36.7c6,3.4,11.5,1.8,11.5,1.8s0,0,0.1-0.1C67.7,235.5,50.7,220.9,49.3,211.4
		z"/>
</g>
<g>
	<path class="st3" d="M96.7,266.9c-1,1.1-9.5,9.7-25.8,2c-13-6.1-18.6-11-29.6-13c0,0,0,0,0-0.1C52.4,252.6,78.1,260,96.7,266.9z"/>
	<path class="st2" d="M41.3,255.9c1.7-3.1,27.7-15.6,47.8-2c11.4,7.7,7.7,12.9,7.7,12.9s0,0-0.1,0.1
		C76.8,260.3,52.4,252.6,41.3,255.9z"/>
</g>
<g>
	<path class="st2" d="M166.5,269.3c-0.3-1.2-2.7-10.5-17.1-11.5c-11.5-0.9-17.3,0.3-25.8-2.7c0,0,0,0,0,0.1
		C129.9,261.8,153.5,261.2,166.5,269.3z"/>
	<path class="st3" d="M123.6,255.1c0,2.8,13,21.7,32.3,20.2c11-0.8,10.6-5.9,10.6-5.9s0,0,0-0.1
		C153.5,261.2,129.9,261.8,123.6,255.1z"/>
</g>
<g>
	<path class="st2" d="M123.6,271.5c0.2-1.2,0.9-11-12.6-16.9c-10.8-4.7-16.8-5.6-24-11.3c0,0,0,0,0,0.1
		C90.9,251.8,109.3,263.7,123.6,271.5z"/>
	<path class="st3" d="M87,243.2c-1,2.7,5.2,25.3,24.4,30.4c10.9,2.9,12.2-2.1,12.2-2.1s0,0,0-0.1C108.8,262.7,90.9,251.8,87,243.2z"
		/>
</g>
<g>
	<path class="st3" d="M156.4,277.4c-0.5,1.4-5.1,12.2-22.7,10.9c-14-1-20.9-3.4-31.6-1.3c0,0,0,0,0-0.1
		C110.8,280,139.2,285,156.4,277.4z"/>
	<path class="st2" d="M102,287c0.4-3.4,19.5-23.9,42.7-18.7c13.1,3,11.7,9,11.7,9s0,0-0.1,0.1C139.2,285,110.8,280,102,287z"/>
</g>
<g>
	<path class="st3" d="M166.8,273c0.4,0.9,3.7,8.2-5,16.5c-7,6.6-11.4,9-15.3,15.3c0,0,0,0,0,0C147,297.1,162.6,285.1,166.8,273z"/>
	<path class="st2" d="M146.4,304.7c-1.5-1.8-3-20.9,10.4-30.1c7.6-5.2,9.9-1.7,9.9-1.7s0,0,0,0.1C162.6,285.1,147,297.1,146.4,304.7
		z"/>
</g>
<g>
	<path class="st4" d="M84.8,119.5h4.5c3.5,0,6.1-0.9,7.9-2.6c1.8-1.7,2.7-3.9,2.7-6.7c0-3-0.8-5.3-2.5-7.1c-1.7-1.8-4.2-2.6-7.5-2.6
		c-3,0-5.5,0.9-7.5,2.7c-1.9,1.8-2.9,4.2-2.9,7.1h-3.7l-0.1-0.2c-0.1-3.7,1.2-6.8,3.9-9.2c2.7-2.5,6.1-3.7,10.2-3.7
		c4.2,0,7.6,1.2,10.1,3.5s3.8,5.6,3.8,9.7c0,2.2-0.7,4.3-2.1,6.3c-1.4,2-3.3,3.4-5.9,4.4c3,0.8,5.2,2.3,6.6,4.3
		c1.5,2,2.2,4.4,2.2,7.1c0,4.2-1.4,7.5-4.1,9.9c-2.7,2.4-6.2,3.6-10.5,3.6c-4.2,0-7.7-1.2-10.7-3.5c-3-2.4-4.4-5.6-4.3-9.8l0.1-0.2
		h3.7c0,3,1,5.5,3.1,7.4c2.1,1.9,4.8,2.9,8.1,2.9c3.4,0,6-0.9,7.9-2.6c1.9-1.7,2.8-4.2,2.8-7.5c0-3.3-1-5.8-3-7.4
		c-2-1.6-4.8-2.4-8.5-2.4h-4.5L84.8,119.5L84.8,119.5z"/>
	<path class="st4" d="M143.2,126.9c0,6.1-1.3,10.8-4,14.2c-2.7,3.3-6.3,5-11.1,5c-4.7,0-8.4-1.7-11.1-5c-2.7-3.3-4-8-4-14.1v-10.6
		c0-6.1,1.3-10.8,4-14.2c2.7-3.3,6.3-5,11.1-5c4.7,0,8.4,1.7,11.1,5c2.7,3.3,4,8,4,14.2V126.9z M139.3,115.6c0-4.9-1-8.6-2.9-11.2
		c-1.9-2.6-4.7-3.9-8.3-3.9c-3.6,0-6.4,1.3-8.3,3.9c-1.9,2.6-2.8,6.4-2.8,11.2v11.8c0,4.8,1,8.6,2.9,11.2c1.9,2.7,4.7,4,8.3,4
		c3.6,0,6.4-1.3,8.3-4c1.9-2.6,2.9-6.4,2.9-11.2V115.6z"/>
	<path class="st4" d="M165,145.3V97.8h13.8c5.8,0,10.6,1.9,14.4,5.8c3.8,3.9,5.7,8.8,5.7,14.9v6.1c0,6.1-1.9,11.1-5.7,14.9
		c-3.8,3.8-8.6,5.8-14.4,5.8L165,145.3L165,145.3z M168.8,101.2V142h9.9c4.7,0,8.6-1.6,11.6-4.9c3-3.3,4.5-7.4,4.5-12.4v-6.2
		c0-5-1.5-9.1-4.6-12.3s-6.9-4.9-11.6-4.9C178.8,101.2,168.8,101.2,168.8,101.2z"/>
	<path class="st4" d="M231.5,132.1h-21.7l-4.9,13.2h-4l18-47.5h3.7l17.9,47.5h-4L231.5,132.1z M211.1,128.6h19.2l-9.5-25.7h-0.2
		L211.1,128.6z"/>
	<path class="st4" d="M253.5,124.2l14.7-26.4h4.5L255.5,128v17.3h-3.9v-17.6l-17.2-29.9h4.5L253.5,124.2z"/>
	<path class="st4" d="M93.6,202.1c-0.7,0.9-1.8,1.8-3.3,2.5c-1.5,0.7-3.4,1.1-5.7,1.1c-2.9,0-5.3-0.9-7.2-2.7
		c-1.9-1.8-2.8-4.2-2.8-7.1v-5c0-2.9,0.9-5.3,2.7-7.1c1.8-1.8,4.1-2.7,6.9-2.7c2.9,0,5.1,0.7,6.7,2.1c1.6,1.4,2.3,3.3,2.4,5.6l0,0.1
		h-4.5c-0.1-1.3-0.5-2.3-1.2-3c-0.7-0.7-1.8-1.1-3.2-1.1c-1.5,0-2.7,0.6-3.6,1.7c-0.9,1.1-1.3,2.6-1.3,4.4v5c0,1.8,0.5,3.3,1.4,4.4
		s2.2,1.7,3.8,1.7c1.1,0,2-0.1,2.7-0.3s1.2-0.5,1.5-0.9v-4.4h-4.2v-3.3h9L93.6,202.1L93.6,202.1z"/>
	<path class="st4" d="M117.7,181.5v15.9c0,2.7-0.9,4.8-2.7,6.2s-4.1,2.2-7,2.2c-2.9,0-5.2-0.7-6.9-2.2c-1.8-1.5-2.6-3.5-2.6-6.2
		v-15.9h4.8v15.9c0,1.6,0.4,2.8,1.3,3.5c0.8,0.8,2,1.2,3.5,1.2c1.5,0,2.7-0.4,3.5-1.2c0.9-0.8,1.3-2,1.3-3.5v-15.9H117.7z"/>
	<path class="st4" d="M135.3,200.2h-8.4l-1.6,5.2h-4.8l8.2-23.9h4.9l8.2,23.9h-4.8L135.3,200.2z M128.1,196.5h6l-3-9.4h-0.1
		L128.1,196.5z"/>
	<path class="st4" d="M149.8,195.8v9.6H145v-23.9h9c2.7,0,4.9,0.6,6.4,1.9c1.5,1.2,2.3,3,2.3,5.2c0,1.2-0.3,2.3-1,3.2
		c-0.6,0.9-1.6,1.6-2.8,2.2c1.4,0.4,2.4,1.1,3,2.1c0.6,1,0.9,2.2,0.9,3.6v1.8c0,0.7,0.1,1.4,0.3,2.1c0.2,0.7,0.5,1.3,0.9,1.6v0.3
		h-4.9c-0.4-0.4-0.7-0.9-0.9-1.8c-0.1-0.8-0.2-1.6-0.2-2.3v-1.7c0-1.2-0.3-2.1-1-2.8c-0.7-0.7-1.6-1-2.8-1L149.8,195.8L149.8,195.8z
		 M149.8,192.1h4.1c1.3,0,2.4-0.3,3-0.9c0.7-0.6,1-1.4,1-2.5c0-1.1-0.3-2-1-2.6c-0.7-0.6-1.6-1-2.9-1h-4.2L149.8,192.1L149.8,192.1z
		"/>
	<path class="st4" d="M181.1,200.2h-8.4l-1.6,5.2h-4.9l8.2-23.9h4.9l8.2,23.9h-4.8L181.1,200.2z M173.9,196.5h6l-3-9.4h-0.1
		L173.9,196.5z"/>
	<path class="st4" d="M210.2,205.4h-4.8l-9.7-16.4l-0.1,0v16.3h-4.8v-23.9h4.8l9.7,16.3l0.1,0v-16.3h4.8L210.2,205.4L210.2,205.4z"
		/>
	<path class="st4" d="M232.2,185.2h-6.8v20.2h-4.8v-20.2h-6.7v-3.7h18.3V185.2z"/>
	<path class="st4" d="M250.6,194.9h-9.9v6.8h11.6v3.7h-16.4v-23.9h16.4v3.7h-11.6v6h9.9V194.9z"/>
	<path class="st4" d="M271,194.9h-9.9v6.8h11.6v3.7h-16.4v-23.9h16.4v3.7h-11.6v6h9.9L271,194.9L271,194.9z"/>
</g>
<rect x="170.6" y="269.3" transform="matrix(0.7071 -0.7071 0.7071 0.7071 -141.6106 202.3351)" class="st4" width="5.7" height="5.7"/>
<text transform="matrix(1 0 0 1 126.2393 169.7554)" class="st3 st5 st6">RISK-FREE</text>
<line class="st7" x1="75.1" y1="160.9" x2="122.9" y2="160.9"/>
<line class="st7" x1="75.1" y1="165.9" x2="122.9" y2="165.9"/>
<line class="st7" x1="224.8" y1="160.9" x2="272.6" y2="160.9"/>
<line class="st7" x1="224.8" y1="165.9" x2="272.6" y2="165.9"/>
</svg>
