<?xml version="1.0" encoding="utf-8"?>
<!-- Generator: Adobe Illustrator 22.0.0, SVG Export Plug-In . SVG Version: 6.00 Build 0)  -->
<svg version="1.1" id="Layer_1" xmlns="http://www.w3.org/2000/svg" xmlns:xlink="http://www.w3.org/1999/xlink" x="0px" y="0px"
	 viewBox="0 0 714.3 495.3" style="enable-background:new 0 0 714.3 495.3;" xml:space="preserve">
<style type="text/css">
	.st0{fill:#FCDC48;}
	.st1{fill:#CACECC;}
	.st2{fill:#02C54C;}
	.st3{fill:#322153;}
	.st4{fill:#212121;}
	.st5{fill:#FFFFFF;}
	.st6{fill:none;stroke:#000000;stroke-width:14;stroke-miterlimit:10;}
</style>
<path class="st0" d="M99.3,64.9c14.6-2.8,29.1-5.6,43.7-8.3c11.8,11.3,23.6,22.7,35.3,34c-2.8,14.3-5.6,28.7-8.3,43
	c-31,31-62,62-93,93c-2.7-0.7-5.3-1.3-8-2c-18.9-18.7-37.8-37.3-56.7-56c-0.9-4-1.8-8-2.7-12C39.6,126.1,69.4,95.5,99.3,64.9z"/>
<path class="st1" d="M229.2,436.9c118.2,0,236.3,0,354.5,0c0.8,1.2,15.9,23.8,43.3,23c25.8-0.7,39.5-21.3,40.7-23
	c12.5,0,25,0,37.4,0c-1.9,9.6-3.8,19.1-5.7,28.7c-7.1,5.2-14.2,10.3-21.3,15.5C537,481,396,481,254.9,480.9c-8-5.7-16-11.4-24-17.2
	C230.3,454.8,229.7,445.9,229.2,436.9z"/>
<g>
	<path class="st2" d="M251.7,73.9c72.7-0.1,145.4,0,218.1,0.3c69.7,0.3,139.4,0.7,209.1,1.3c7,5.8,14.1,11.6,21.1,18
		c0.6,30.2,1.3,60.4,1.9,90.6c-1,3.4-2.8,8.3-6.5,13.5c-4.2,5.9-8.9,9.6-12.1,11.6c-143.9,0-287.7,0.6-431.6,0.6
		c-3-1.4-7.6-3.8-12-8.2c-5.1-5.1-7.7-10.4-9.1-13.6c-0.8-14.7-1.4-29.9-1.6-45.7c-0.2-16.4-0.1-32.1,0.3-47.3
		C236.8,87.9,244.2,80.9,251.7,73.9z"/>
	<circle cx="332.4" cy="179.3" r="8.3"/>
	<circle cx="366.4" cy="179.3" r="8.3"/>
	<circle cx="399.7" cy="179.3" r="8.3"/>
	<circle cx="433.7" cy="179.3" r="8.3"/>
	<circle cx="467.7" cy="179.3" r="8.3"/>
	<circle cx="366.4" cy="314.7" r="8.3"/>
	<circle cx="399.7" cy="314.7" r="8.3"/>
	<circle cx="433.7" cy="314.7" r="8.3"/>
	<circle cx="467.7" cy="314.7" r="8.3"/>
	<circle cx="501.7" cy="314.7" r="8.3"/>
	<circle cx="535.7" cy="314.7" r="8.3"/>
	<circle class="st2" cx="417.7" cy="382.6" r="8.3"/>
	<circle class="st2" cx="451.7" cy="382.6" r="8.3"/>
	<circle class="st2" cx="485.7" cy="382.6" r="8.3"/>
	<circle class="st2" cx="531.5" cy="382.6" r="8.3"/>
	<circle class="st2" cx="565.5" cy="382.6" r="8.3"/>
</g>
<path d="M483.8,112.9c0-4.9-3.1-8-8-8H281.4c-4.9,0-8,3.1-8,8s3.1,8,8,8h193.9C480.2,120.8,483.8,117.7,483.8,112.9z"/>
<path d="M540.1,137.3H378.6c-4.9,0-8,3.1-8,8s3.1,8,8,8h162.1c4.9,0,8-3.1,8-8C548,140.4,545,137.3,540.1,137.3z"/>
<path d="M540.1,239H410.4c-4.9,0-8,3.1-8,8s3.1,8,8,8h129.7c4.9,0,8-3.1,8-8C548,242.6,545,239,540.1,239z"/>
<path d="M540.1,271.4H281.4c-4.9,0-8,3.1-8,8s3.1,8.6,8,8.6h258.7c4.9,0,8-3.1,8-8C548,275,545,271.4,540.1,271.4z"/>
<path d="M281.4,392.5h97.3c4.9,0,8-3.1,8-8s-3.1-8-8-8h-97.3c-4.9,0-8,3.1-8,8S276.5,392.5,281.4,392.5z"/>
<path d="M540.1,409H281.4c-4.9,0-8,3.1-8,8s3.1,8,8,8h258.7c4.9,0,8-3.1,8-8C548,412.1,545,409,540.1,409z"/>
<path d="M707.1,178.9V112c0-23.4-18.3-41.7-41.7-41.7H264.6c-23.4,0-41.7,18.3-41.7,41.7v66.9c0,13.3,6.9,25.9,16.4,33.5
	c-10.1,7.6-16.4,20.2-16.4,33.5v66.9c0,13.3,6.9,25.9,16.4,33.5c-10.1,7.6-16.4,20.2-16.4,33.5v66.9c0,23.4,18.3,41.7,41.7,41.7
	c133.4-0.2,266.8-0.4,400.2-0.6c23.4,0,41.7-18.3,41.7-41.7V379c0-13.3-6.9-25.9-16.4-33.5c10.1-7.6,16.4-20.2,16.4-33.5v-66.3
	c0-13.3-6.9-25.9-16.4-33.5C700.2,204.8,707.1,192.1,707.1,178.9z M690.7,379v66.9h-0.6c0,13.9-10.7,25.3-25.3,25.3H264.6
	c-13.9,0-25.3-10.7-25.3-25.3V379c0-13.9,10.7-25.3,25.3-25.3h400.9C679.3,353.7,690.7,364.5,690.7,379z M690.7,245.8v66.3h-0.6
	c0,13.9-10.7,25.3-25.3,25.3H264.6c-13.9,0-25.3-10.7-25.3-25.3v-66.3c0-13.9,10.7-25.3,25.3-25.3h400.9
	C679.3,220.5,690.7,231.3,690.7,245.8z M690.7,178.9h-0.6c0,13.9-10.7,25.3-25.3,25.3H264.6c-13.9,0-25.3-10.7-25.3-25.3V112
	c0-13.9,10.7-25.3,25.3-25.3h400.9c13.9,0,25.3,10.7,25.3,25.3L690.7,178.9L690.7,178.9z"/>
<path d="M261.5,538.9h36.4c0.3,0,0.7-0.1,1-0.1h-34.3C263.4,538.6,262.4,538.6,261.5,538.9z"/>
<path d="M463,554.4c0.5,0.1,1.1,0.1,1.6,0.1c1.2,0,2.2-0.2,3.1-0.5C466.2,554.2,464.6,554.3,463,554.4z"/>
<g>
	<path class="st3" d="M151,251.6l-4.7-4.7l4.7-4.7c2.5-2.5,2.5-6.8,0-9.3s-6.8-2.5-9.3,0l-4.7,4.7l-4.7-4.7c-2.5-2.5-6.8-2.5-9.3,0
		s-2.5,6.8,0,9.3l4.7,4.7l-4.7,4.7c-2.5,2.5-2.5,6.8,0,9.3s6.8,2.5,9.3,0l4.7-4.7l4.7,4.7c2.5,2.5,6.8,2.5,9.3,0
		C153.6,258.3,153.6,254.1,151,251.6z"/>
	<path class="st2" d="M31.4,231.8l-4.7-4.7l4.7-4.7c2.6-2.6,2.6-6.9,0-9.5s-6.9-2.6-9.5,0l-4.7,4.7l-4.7-4.7c-2.6-2.6-6.9-2.6-9.5,0
		s-2.6,6.9,0,9.5l4.7,4.7L3,231.8c-2.6,2.6-2.6,6.9,0,9.5s6.9,2.6,9.5,0l4.7-4.7l4.7,4.7c2.6,2.6,6.9,2.6,9.5,0S34,234.4,31.4,231.8
		z"/>
	<path class="st3" d="M105.6,28.8l-2.2-2.2c-1.2-1.2-3.2-1.2-4.4,0s-1.2,3.2,0,4.4l2.2,2.2L99,35.4c-1.2,1.2-1.2,3.2,0,4.4
		s3.2,1.2,4.4,0l2.2-2.2l2.2,2.2c1.2,1.2,3.2,1.2,4.4,0c1.2-1.2,1.2-3.2,0-4.4l-2.2-2.2l2.2-2.2c1.2-1.2,1.2-3.2,0-4.4
		s-3.2-1.2-4.4,0L105.6,28.8z"/>
	<path class="st3" d="M533.6,12.2l-4.5-4.5c-2.5-2.5-6.6-2.5-9,0c-2.5,2.5-2.5,6.6,0,9l4.5,4.5l-4.5,4.5c-2.5,2.5-2.5,6.6,0,9
		c2.5,2.5,6.6,2.5,9,0l4.5-4.5l4.5,4.5c2.5,2.5,6.6,2.5,9,0c2.5-2.5,2.5-6.6,0-9l-4.5-4.5l4.5-4.5c2.5-2.5,2.5-6.6,0-9
		c-2.5-2.5-6.6-2.5-9,0L533.6,12.2z"/>
	<path class="st4" d="M701.9,7.7l-2.6-2.6c-1.4-1.4-3.7-1.4-5.1,0c-1.4,1.4-1.4,3.7,0,5.1l2.6,2.6l-2.6,2.6c-1.4,1.4-1.4,3.7,0,5.1
		s3.7,1.4,5.1,0l2.6-2.6l2.6,2.6c1.4,1.4,3.7,1.4,5.1,0c1.4-1.4,1.4-3.7,0-5.1l-2.6-2.6l2.6-2.6c1.4-1.4,1.4-3.7,0-5.1
		s-3.7-1.4-5.1,0L701.9,7.7z"/>
	<path class="st3" d="M486,44l-2.7-2.7c-1.6-1.6-3.9-1.6-5.4,0c-1.6,1.6-1.6,3.9,0,5.4l2.7,2.7l-2.7,2.7c-1.6,1.6-1.6,3.9,0,5.4
		s3.9,1.6,5.4,0l2.7-2.7l2.7,2.7c1.6,1.6,3.9,1.6,5.4,0s1.6-3.9,0-5.4l-2.7-2.7l2.7-2.7c1.6-1.6,1.6-3.9,0-5.4
		c-1.6-1.6-3.9-1.6-5.4,0L486,44z"/>
</g>
<g>
	<path class="st2" d="M8.8,59.2c7.5,7.5,19.8,7.5,27.5,0c7.5-7.5,7.5-19.8,0-27.5c-7.5-7.5-19.8-7.5-27.5,0S1.1,51.4,8.8,59.2z
		 M27.1,40.8c2.5,2.5,2.5,6.7,0,9.2s-6.7,2.5-9.2,0s-2.5-6.7,0-9.2C20.5,38.3,24.4,38.3,27.1,40.8z"/>
	<path class="st4" d="M18,109.5c2.5,2.5,6.6,2.5,9.1,0s2.5-6.6,0-9.1s-6.6-2.5-9.1,0S15.5,107,18,109.5z M24.1,103.4
		c0.9,0.9,0.9,2.2,0,3.1s-2.2,0.9-3.1,0s-0.9-2.2,0-3.1S23.2,102.5,24.1,103.4z"/>
	<path class="st2" d="M585.9,64.5c4.4,4.4,11.4,4.4,15.8,0c4.4-4.4,4.4-11.4,0-15.8s-11.4-4.4-15.8,0S581.5,60.2,585.9,64.5z
		 M596.5,54c1.5,1.5,1.5,3.8,0,5.3s-3.8,1.5-5.3,0s-1.5-3.8,0-5.3C592.6,52.5,595,52.5,596.5,54z"/>
</g>
<g>
	<path d="M74.7,231.9c-5,0-9.6-1.9-13.1-5.5L8.9,173.6c-3.5-3.5-5.5-8.2-5.5-13.2c0-4.9,2-9.6,5.5-13l85.4-85.2
		c2.5-2.5,5.9-4.3,9.4-5l33.7-6.7c1.2-0.2,2.4-0.3,3.6-0.3c4.9,0,9.6,1.9,13.1,5.5l25.7,25.8c4.5,4.5,6.3,10.8,4.8,17l-6.8,33.6
		c-0.7,3.5-2.5,6.8-5.1,9.4c-16,16-32.5,32.5-48.8,48.7c-1.1,1.1-2.7,1.8-4.3,1.8s-3.2-0.6-4.3-1.8c-2.4-2.4-2.4-6.3,0-8.6
		c8.2-8.1,16.3-16.3,24.5-24.4c8.1-8.1,16.3-16.2,24.4-24.3l0.1-0.1c0.8-0.8,1.4-1.9,1.7-3.3l6.8-33.6c0.5-2-0.2-4.2-1.7-5.7
		l-25.7-25.8c-1.2-1.3-2.7-1.9-4.4-1.9c-0.4,0-0.9,0-1.3,0.1L106,69.2c-1.3,0.2-2.4,0.8-3.3,1.7L17.4,156c-2.4,2.4-2.4,6.5,0,9
		l52.7,52.8c1.2,1.2,2.8,1.8,4.5,1.8s3.3-0.6,4.5-1.8l16.1-16c1.2-1.5,3-2.3,4.9-2.3c1.5,0,2.9,0.5,4,1.4l0.1,0.1
		c1.3,1.2,2,2.9,1.9,4.8c-0.1,1.8-0.8,3.4-2.2,4.5l-16.1,16.1C84.3,229.9,79.6,231.9,74.7,231.9z"/>
	<path d="M177.7,83.5L152,57.7c-3.7-3.7-8.9-5.3-14-4.3l-33.7,6.7c-3,0.6-5.8,2.1-7.9,4.2L11,149.5c-6.1,6-6.1,15.9,0,22l52.7,52.8
		c6,6.1,15.9,6.1,22,0l16.2-16.2c1.6-1.3,1.5-3.7,0.2-4.9c-1.3-1.1-3.5-1-4.7,0.6l-16.2,16.1c-3.6,3.6-9.6,3.6-13.2,0l-52.7-52.8
		c-3.6-3.6-3.6-9.6,0-13.2l85.3-85.1c1.3-1.3,3-2.2,4.8-2.5l33.7-6.7c3.1-0.6,6.2,0.3,8.4,2.6L173.2,88c2.2,2.2,3.2,5.4,2.5,8.4
		l-6.8,33.7c-0.4,1.8-1.2,3.5-2.6,4.8c-16.3,16.2-32.6,32.5-48.9,48.7c-1.2,1.2-1.2,3.2,0,4.4s3.2,1.2,4.4,0
		c16.3-16.2,32.6-32.5,48.8-48.7c2.2-2.2,3.7-4.9,4.3-7.9l6.8-33.7C183,92.4,181.4,87.2,177.7,83.5z"/>
	<path class="st5" d="M134.1,101.3c6,6.1,15.9,6.1,22,0c6.1-6,6.1-15.9,0-22c-6-6.1-15.9-6.1-22,0C128.1,85.4,128,95.3,134.1,101.3z
		"/>
</g>
<path class="st6" d="M143,89.4c44.3,0.9,66.5-11.8,78.7-24.5c10.5-11,16.5-25.4,34.8-32.4c15.9-6.1,30.5-2.7,34.3-1.8
	c32.6,8.1,44.9,42.1,46,45.3"/>
<g>
	<path d="M65.4,163.9c-0.7-0.5-1.5-0.6-2.1-0.4c-0.7,0.2-1.3,0.6-1.9,1.2c-1.3,1.3-1.5,2.3-0.9,3c2.8,2.7,11.5-9.6,18.2-2.9
		c4.3,4.2,2.8,9.8-2.2,14.9c-4.8,4.9-10.8,5.2-14.2,2.1L68,176c0.8,0.5,1.6,0.7,2.4,0.4c0.8-0.2,1.6-0.7,2.2-1.3
		c1.5-1.5,2-3,1.1-3.8c-2.8-2.8-11.4,9.7-18.4,2.8c-3.9-3.9-2.5-9.2,2-13.8c5.1-5.1,10-4.9,13.6-2.1L65.4,163.9z"/>
	<path d="M84.5,170.8L72.6,146l6.1-6.1l25,11.6l-6,6l-3.1-1.7l-6,6l1.7,3.1L84.5,170.8z M81.2,148.4l4.8,8.4l3.8-3.8L81.2,148.4z"/>
	<path d="M104.6,150.5l-18.4-18.2l6-6l14.1,14l8.2-8.3l4.3,4.3L104.6,150.5z"/>
	<path d="M120.2,134.7l-18.4-18.2l14.9-15l4.3,4.3l-8.9,9l2.6,2.6l7.5-7.6l4.3,4.3l-7.5,7.6l2.9,2.9l9.2-9.3l4.3,4.3L120.2,134.7z"
		/>
</g>
<path class="st5" d="M625.5,101.5c-24.1,0-42.9,18.9-42.9,42.9s18.9,42.9,42.9,42.9s42.9-18.9,42.9-42.9S649.6,101.5,625.5,101.5z
	 M625.5,170.4c-14.3,0-26-11.1-26-26s11.1-26,26-26c14.3,0,26,11.1,26,26S639.8,170.4,625.5,170.4z"/>
<path class="st2" d="M625.5,235.7c-24.1,0-42.9,18.9-42.9,42.9s18.9,42.9,42.9,42.9s42.9-18.9,42.9-42.9S649.6,235.7,625.5,235.7z
	 M625.5,304.7c-14.3,0-26-11.1-26-26s11.1-26,26-26c14.3,0,26,11.1,26,26S639.8,304.7,625.5,304.7z"/>
<path d="M625.5,367.6c-24.1,0-42.9,18.9-42.9,42.9c0,24.1,18.9,42.9,42.9,42.9s42.9-18.9,42.9-42.9S649.6,367.6,625.5,367.6z
	 M625.5,436.6c-14.3,0-26-11.1-26-26c0-14.3,11.1-26,26-26c14.3,0,26,11.1,26,26S639.8,436.6,625.5,436.6z"/>
</svg>
