<?xml version="1.0" encoding="utf-8"?>
<!-- Generator: Adobe Illustrator 22.0.0, SVG Export Plug-In . SVG Version: 6.00 Build 0)  -->
<svg version="1.1" id="Layer_1" xmlns="http://www.w3.org/2000/svg" xmlns:xlink="http://www.w3.org/1999/xlink" x="0px" y="0px"
	 viewBox="0 0 512 512" style="enable-background:new 0 0 512 512;" xml:space="preserve">
<style type="text/css">
	.st0{fill:#02c54c;}
	.st1{fill:none;}
</style>
<path class="st0" d="M256,437.9c-5.5,0-10,4.5-10,10v0.2c0,5.5,4.5,10,10,10s10-4.5,10-10v-0.2C266,442.4,261.5,437.9,256,437.9z"/>
<path class="st0" d="M56.4,353.1c0.1,0.3,0.2,0.6,0.3,1c2.5,8.5,6.5,22,12.6,40.9c0,0,0.2,0.8,0.5,1.5c3.2,10,10.1,30.3,25.6,71.7
	c7.2,0,14.3-0.1,21.5-0.1c-1.8-4.5-3.7-9.1-5.5-13.8c-7.7-19.9-14.6-39.4-20.7-58.4l8.5-7.5c6-5.3,12.5-10.7,19.2-16.1
	c4.3-3.5,5-9.8,1.5-14.1c-3.5-4.3-9.8-5-14.1-1.5c-6.9,5.6-13.5,11.2-19.8,16.6l-2,1.7c-2.2-7.2-4.4-14.2-6.4-21
	c39.9-34,115.9-88.3,168.5-114.3v179.4c0,5.5,4.5,10,10,10s10-4.5,10-10V239.7c52.5,26,128.6,80.3,168.5,114.3
	c-2,6.8-4.1,13.8-6.4,21l-2-1.7c-12.9-11.3-27-22.7-43.2-34.8c-4.4-3.3-10.7-2.4-14,2s-2.4,10.7,2,14c15.5,11.6,29.7,23,42,33.9
	l8.5,7.5c-6.2,18.6-12.9,37.5-20,56.6c-2,5.2-3.9,10.4-5.9,15.6c6,3,12.1,5.9,18.1,8.9c9.5-26.8,19.1-53.7,28.6-80.5l0.5-1.4
	c4.6-14.3,8.8-28.1,12.6-41c0.1-0.2,0.1-0.5,0.2-0.7c4.4-15.1,8.3-28.9,11.4-40.6c0.9-3.5-0.1-7.1-2.6-9.7
	c-26.3-26.3-58.1-52.1-91.6-74.9l-2.4-76.8c-0.4-12.3-10.1-21.9-22.2-21.9h-41.8L302,82.9c0-0.2,0-0.5-0.1-0.7l-3.1-33.4
	c-0.9-10.2-9-17.8-18.7-17.8h-48.3c-9.7,0-17.8,7.7-18.7,17.8L210,82.2c0,0.2,0,0.4-0.1,0.7l-4.3,46.5h-41.8
	c-12.1,0-21.8,9.6-22.2,21.9l-2.4,76.8c-31.8,26.1-63.5,52.2-95.3,78.3C47.7,322,51.8,337.5,56.4,353.1z M358.2,242.4
	c31.9,21.5,62.4,45.8,87.9,70.7c-1.7,6.2-3.5,12.9-5.5,19.9c-43.9-36.3-121.5-91.2-174.6-115.5v-26.6c29.5,12.9,60.6,30.3,90.5,50.3
	C357,241.7,357.6,242.1,358.2,242.4z M233,51h46l2.1,22.5H231L233,51z M229.1,93.5h53.8l3.3,35.9h-60.5L229.1,93.5z M161.6,151.9
	c0-1.2,0.9-2.5,2.2-2.5h184.3c1.3,0,2.2,1.3,2.2,2.5l1.9,62.8c-31-19.6-62.7-36.2-92.4-48h-0.1c0,0-0.1,0-0.1-0.1
	c-0.1,0-0.2-0.1-0.3-0.1c-0.2-0.1-0.4-0.1-0.6-0.2c-0.1,0-0.2-0.1-0.4-0.1c-0.2,0-0.4-0.1-0.6-0.1s-0.3,0-0.5-0.1
	c-0.2,0-0.3-0.1-0.5-0.1c-0.6-0.1-1.3-0.1-2,0c-0.2,0-0.3,0-0.5,0.1c-0.2,0-0.3,0-0.5,0.1c-0.2,0-0.4,0.1-0.6,0.1
	c-0.1,0-0.2,0.1-0.4,0.1c-0.2,0.1-0.4,0.1-0.6,0.2c-0.1,0-0.2,0.1-0.3,0.1c0,0-0.1,0-0.1,0.1h-0.1c-29.6,11.8-61.4,28.5-92.4,48
	L161.6,151.9z M153.8,242.5c0.6-0.3,1.2-0.7,1.7-1.2c29.9-20,61-37.4,90.5-50.3v26.6c-53.1,24.3-130.6,79.1-174.6,115.5
	c-2-7.1-3.9-13.8-5.5-19.9C91.4,288.3,121.9,263.9,153.8,242.5z"/>
<path class="st0" d="M141.7,308c-3.9-3.5-9.8-3.3-13.5,0.2c-0.9,0.8-1.6,1.8-2.1,2.8c-2.5,4.9-0.5,10.9,4.5,13.4
	c1.4,0.7,3,1.1,4.5,1.1c2.8,0,5.6-1.2,7.5-3.4l0,0C146.2,318,145.9,311.7,141.7,308z"/>
<path class="st1" d="M116.8,437"/>
<path class="st0" d="M159.8,447.9c34.9,30.9,80.5,50.3,127.5,36.9c10.7-3.1,21.1-7.7,30.4-13.9c15.1-10.2,16.9-20.9,25.6-21.1
	c9.5-0.3,11.3,11.4,27.3,24c17.7,13.9,37.4,16.7,47.4,18.1c19.9,2.8,35.7-0.3,42.8-2.1c8.4-2.1,15.2-4.8,20.1-7.1
	c4.2-3.9,5.1-9.6,2.8-13.3c-2-3.1-5.8-3.8-6.6-3.9c-5.8,3.1-14.8,7.1-26.3,8.9c-4.7,0.8-36.7,5.5-63.9-13.8
	c-20.8-14.7-22.9-32.4-38.3-33.1c-8.6-0.4-15,4.1-22.5,10.9c-50.8,46.5-111.2,37.7-160.7-9c-4.3-4.1-10.3-2.8-13.5,1.7
	c-35.8,49.3-91.8,44.3-138.2,14.1c-1.8-1.1-4.2,1.2-2.9,2.9C47.6,501.7,120.2,490.4,159.8,447.9z"/>
</svg>
