<?xml version="1.0" encoding="utf-8"?>
<!-- Generator: Adobe Illustrator 22.0.0, SVG Export Plug-In . SVG Version: 6.00 Build 0)  -->
<svg version="1.1" id="Capa_1" xmlns="http://www.w3.org/2000/svg" xmlns:xlink="http://www.w3.org/1999/xlink" x="0px" y="0px"
	 viewBox="0 0 489.4 520.4" style="enable-background:new 0 0 489.4 520.4;" xml:space="preserve">
<style type="text/css">
	.st0{fill:#02c54c;}
</style>
<g transform="translate(0,-952.36218)">
	<path class="st0" d="M429.6,1421.5v30.5h-40.8v-41.8h-20.4v41.8h-81.6v-42.1c-4.3-0.1-8.5-0.3-12.8-0.5c-2.5-0.1-5-0.2-7.6-0.2
		v42.8h-204v-24.7c-6.8,0.3-13.6,0.7-20.4,1v33.9c0,5.6,4.6,10.2,10.2,10.2h223.4h164.2c5.6,0,10.2-4.6,10.2-10.2v-41.3
		C443.2,1421.1,436.4,1421.3,429.6,1421.5z"/>
	<path class="st0" d="M286.8,1425.4c0-49.4,0-98.8,0-148.2h81.6c0,48.6,0,97.2,0,145.9c6.8,1.3,13.6,2.7,20.4,4
		c0-53.4,0-106.7,0-160.1c0-5.6-4.6-10.2-10.2-10.2h-102c-5.6,0-10.2,4.6-10.2,10.2c0,52.9,0,105.8,0,158.7
		C273.2,1425.6,280,1425.5,286.8,1425.4z"/>
	<path class="st0" d="M484.1,1133l-66.3-102l-3-4.6h-5.6H82.8h-5.6l-3,4.6L7.9,1133l-1.6,2.6v28.5c0,23.7,14.9,44.1,35.7,52.3
		c0,72.2,0,144.4,0,216.7c6.8,0,13.6-0.1,20.4-0.1c0-70.9,0-141.8,0-212.7c19.5,0,35.8-10.7,45.9-25.8
		c10.1,15.1,26.4,25.8,45.9,25.8s35.8-10.7,45.9-25.8c10.1,15.1,26.4,25.8,45.9,25.8s35.8-10.7,45.9-25.8
		c10.1,15.1,26.4,25.8,45.9,25.8s35.8-10.7,45.9-25.8c10.1,15.1,26.4,25.8,45.9,25.8c0,69.7,0,139.4,0,209c6.8,0,13.6,0,20.4,0
		c0-71,0-141.9,0-212.9c20.8-8.2,35.7-28.6,35.7-52.3v-28.5L484.1,1133z M465.3,1164.1c0,20-15.7,35.7-35.7,35.7
		s-35.7-15.7-35.7-35.7h-20.4c0,20-15.7,35.7-35.7,35.7s-35.7-15.7-35.7-35.7h-20.4c0,20-15.7,35.7-35.7,35.7s-35.7-15.7-35.7-35.7
		h-20.4c0,20-15.7,35.7-35.7,35.7s-35.7-15.7-35.7-35.7H98.1c0,20-15.7,35.7-35.7,35.7s-35.7-15.7-35.7-35.7v-22.5l61.5-94.8h315.6
		l61.5,94.8V1164.1z"/>
	<path class="st0" d="M225.6,1377.6c5.6,0,10.2-4.6,10.2-10.2V1296c0-5.6-4.6-10.2-10.2-10.2H113.4c-5.6,0-10.2,4.6-10.2,10.2v71.4
		c0,5.6,4.6,10.2,10.2,10.2H225.6z M123.6,1306.2h91.8v51h-91.8C123.6,1357.2,123.6,1306.2,123.6,1306.2z"/>
</g>
<path class="st0" d="M368,26.4H121c-3.3,0-6-2.7-6-6v-8.7c0-3.3,2.7-6,6-6h247c3.3,0,6,2.7,6,6v8.7C374,23.7,371.3,26.4,368,26.4z"
	/>
<path class="st0" d="M130,82h-9.5c-3,0-5.5-2.5-5.5-5.5v-65c0-3,2.5-5.5,5.5-5.5h9.5c3,0,5.5,2.5,5.5,5.5v65
	C135.5,79.5,133,82,130,82z"/>
<path class="st0" d="M368.7,82h-9.5c-3,0-5.5-2.5-5.5-5.5v-65c0-3,2.5-5.5,5.5-5.5h9.5c3,0,5.5,2.5,5.5,5.5v65
	C374.2,79.5,371.7,82,368.7,82z"/>
<rect x="26.7" y="170.9" class="st0" width="443.8" height="20.1"/>
<rect x="318.1" y="321.7" class="st0" width="20.4" height="180.3"/>
</svg>
