<?xml version="1.0" encoding="utf-8"?>
<!-- Generator: Adobe Illustrator 22.0.0, SVG Export Plug-In . SVG Version: 6.00 Build 0)  -->
<svg version="1.1" id="Layer_1" xmlns="http://www.w3.org/2000/svg" xmlns:xlink="http://www.w3.org/1999/xlink" x="0px" y="0px"
	 viewBox="0 0 714.3 495.3" style="enable-background:new 0 0 714.3 495.3;" xml:space="preserve">
<style type="text/css">
	.st0{fill:#02C54C;}
	.st1{fill:#F44336;}
	.st2{fill:#FFFFFF;}
</style>
<path class="st0" d="M640.7,213.7c0,33.2,0.7,66.4,0.7,99.6c-7.6,7.6-15.2,15.9-22.8,23.5c-155.7,0-311.4-0.7-467.1-0.7
	c-6.9-9-13.1-18-20.1-27c0.7-32.5,1.4-65,2.1-97.6c7.6-6.9,15.2-13.1,22.8-19.4c150.9-0.7,301.7-2.1,452.6-2.8
	C619.9,197.8,629.6,206.1,640.7,213.7z"/>
<g>
	<g>
		<path class="st0" d="M157.7,118.9c0,25.6,20.1,45.7,45.7,45.7s45.7-20.1,45.7-45.7S229,73.3,203.3,73.3
			C177.7,73.3,157.7,93.3,157.7,118.9z M175.7,118.9c0-15.9,12.5-27.7,27.7-27.7c15.9,0,27.7,11.8,27.7,27.7s-12.5,27.7-27.7,27.7
			C188.1,146.6,175.7,134.9,175.7,118.9z"/>
		<path d="M386.7,91.3h219.4c5.5,0,9-3.5,9-9s-3.5-9-9-9H386c-5.5,0-9,3.5-9,9S381.2,91.3,386.7,91.3z"/>
		<circle class="st1" cx="532.7" cy="155.6" r="9"/>
		<circle cx="496.1" cy="155.6" r="9"/>
		<circle class="st1" cx="460.1" cy="155.6" r="9"/>
		<circle class="st0" cx="423.4" cy="155.6" r="9"/>
		<circle class="st0" cx="386.7" cy="155.6" r="9"/>
		<path d="M303.7,118.9c0,5.5,3.5,9,9,9h183.4c5.5,0,9-3.5,9-9s-3.5-9-9-9H313.4C307.8,110,304.4,113.4,303.7,118.9z"/>
		<path class="st2" d="M157.7,265c0,25.6,20.1,45.7,45.7,45.7S249,290.6,249,265s-20.1-45.7-45.7-45.7S157.7,239.4,157.7,265z
			 M175.7,265c0-15.9,12.5-27.7,27.7-27.7c15.9,0,27.7,11.8,27.7,27.7s-12.5,27.7-27.7,27.7C188.1,292.6,175.7,280.9,175.7,265z"/>
		<path class="st2" d="M304.4,228.3c0,5.5,3.5,9,9,9h146.7c5.5,0,9-3.5,9-9s-3.5-9-9-9H313.4C307.8,219.3,304.4,223.4,304.4,228.3z"
			/>
		<circle cx="496.1" cy="301.6" r="9"/>
		<circle cx="460.1" cy="301.6" r="9"/>
		<circle cx="423.4" cy="301.6" r="9"/>
		<circle cx="386.7" cy="301.6" r="9"/>
		<circle cx="350" cy="301.6" r="9"/>
		<circle cx="313.4" cy="301.6" r="9"/>
		<path class="st2" d="M304.4,265.6c0,5.5,3.5,9,9,9h292.7c5.5,0,9-4.2,9-9.7s-3.5-9-9-9H313.4C307.8,256,304.4,260.1,304.4,265.6z"
			/>
		<path d="M139.7,192.3c-10.4,8.3-18,22.1-18,36.7v72.7c0,14.5,6.9,28.4,18,36.7c-10.4,8.3-18,22.1-18,36.7v73.4
			c0,25.6,20.1,45.7,45.7,45.7c146.2,0.2,292.5,0.5,438.7,0.7c25.6,0,45.7-20.1,45.7-45.7v-73.4c0-14.5-6.9-28.4-18-36.7
			c10.4-8.3,18-22.1,18-36.7V229c0-14.5-6.9-28.4-18-36.7c10.4-8.3,18-22.1,18-36.7V82.3c0-25.6-20.1-45.7-45.7-45.7H166.7
			c-25.6,0-45.7,20.1-45.7,45.7v73.4C121,170.2,128.6,184,139.7,192.3z M166.7,347.3h439.4c15.9,0,27.7,12.5,27.7,27.7v73.4
			c0,15.9-12.5,27.7-27.7,27.7H167.4c-15.9,0-27.7-12.5-27.7-27.7H139V375C139,359.1,151.4,347.3,166.7,347.3z M166.7,201.3h439.4
			c15.9,0,27.7,12.5,27.7,27.7v72.7c0,15.9-12.5,27.7-27.7,27.7H167.4c-15.9,0-27.7-12.5-27.7-27.7H139V229
			C139,213.1,151.4,201.3,166.7,201.3z M139,82.3c0-15.9,12.5-27.7,27.7-27.7h439.4c15.9,0,27.7,12.5,27.7,27.7v73.4
			c0,15.9-12.5,27.7-27.7,27.7H167.4c-15.9,0-27.7-12.5-27.7-27.7H139V82.3z"/>
		<path d="M157.7,411.7c0,25.6,20.1,45.7,45.7,45.7s45.7-20.1,45.7-45.7S229,366,203.3,366C177.7,366,157.7,386.1,157.7,411.7z
			 M175.7,411.7c0-15.9,12.5-27.7,27.7-27.7c15.9,0,27.7,12.5,27.7,27.7c0,15.9-12.5,27.7-27.7,27.7
			C188.1,439.3,175.7,427.6,175.7,411.7z"/>
		<path d="M434.1,375c0-5.5-3.5-9-9-9h-110c-5.5,0-9,3.5-9,9s3.5,9,9,9h110C430.6,384,434.1,380.5,434.1,375z"/>
		<circle class="st0" cx="459.4" cy="448.3" r="9"/>
		<circle class="st0" cx="422.7" cy="448.3" r="9"/>
		<circle class="st0" cx="386.1" cy="448.3" r="9"/>
		<circle class="st1" cx="350" cy="448.3" r="9"/>
		<circle class="st1" cx="313.4" cy="448.3" r="9"/>
		<path d="M304.4,411.7c0,5.5,3.5,9,9,9h292.7c5.5,0,9-3.5,9-9s-3.5-9-9-9H313.4C307.8,402.7,304.4,406.1,304.4,411.7z"/>
	</g>
</g>
<g>
	<path class="st2" d="M539.9,494.3h150.8c8.4,0,15.2-6.8,15.2-15.2v-232c0-8.4-6.8-15.2-15.2-15.2H539.9c-8.4,0-15.2,6.8-15.2,15.2
		v232C524.7,487.5,531.5,494.3,539.9,494.3z"/>
	<path d="M668.1,379.1c1.6-0.4,2.9-1.1,3.9-2s1.9-2.5,2.6-4.7c0.7-2.2,1-5.1,1-8.8c0-3.7-0.3-6.6-1-8.6s-1.6-3.5-2.8-4.7
		c-1.2-1.1-2.7-1.9-4.5-2.3c-1.4-0.3-4-0.5-8-0.5h-4.4v32h7.3C665,379.5,666.9,379.3,668.1,379.1z"/>
	<path d="M532.6,254.2v218.7c0,7.8,6.4,14.2,14.2,14.2h144.8c7.8,0,14.2-6.4,14.2-14.2V254.2c0-7.8-6.3-14.2-14.2-14.2H546.8
		C539,240,532.6,246.3,532.6,254.2z"/>
	<path class="st2" d="M683.1,473.6c-3.7,0-6.8-3-6.8-6.8c0-3.7,3-6.8,6.8-6.8c3.7,0,6.8,3,6.8,6.8
		C689.9,470.5,686.9,473.6,683.1,473.6z"/>
	<path class="st2" d="M683.1,254.7c3.7,0,6.8,3,6.8,6.8c0,3.7-3,6.8-6.8,6.8c-3.7,0-6.8-3-6.8-6.8
		C676.4,257.7,679.4,254.7,683.1,254.7z"/>
	<path d="M645.2,344.2c0-2.6,2.2-4.8,4.8-4.8h13c4,0,7.1,0.3,9.2,0.9c2.8,0.8,5.3,2.3,7.3,4.5c2,2.1,3.5,4.7,4.6,7.8
		c1,3.1,1.6,6.9,1.6,11.4c0,4-0.5,7.4-1.5,10.3c-1.2,3.5-2.9,6.4-5.2,8.5c-1.7,1.7-4,2.9-6.9,3.8c-2.2,0.7-5,1-8.6,1H650
		c-2.6,0-4.8-2.2-4.8-4.8V344.2L645.2,344.2z"/>
	<path d="M626.3,370.7c-0.7-0.8-1.8-1.5-3.5-2.1c-1.1-0.4-3.7-1.1-7.8-2.1c-5.2-1.3-8.9-2.9-11-4.8c-3-2.7-4.5-5.9-4.5-9.7
		c0-2.5,0.7-4.7,2.1-6.9c1.4-2.1,3.4-3.8,6-4.9s5.8-1.7,9.5-1.7c6.1,0,10.6,1.3,13.7,4c1.3,1.1,2.3,2.4,3.1,3.9
		c1.7,3.1-0.5,6.9-4.1,7h-0.3c-1.9,0.1-3.8-1-4.5-2.7c-0.5-1-1.1-1.8-1.8-2.5c-1.4-1.1-3.4-1.6-6.2-1.6s-5,0.6-6.6,1.7
		c-1,0.7-1.5,1.7-1.5,3c0,1.1,0.5,2.1,1.4,2.9c1.2,1,4.2,2.1,9,3.2c4.7,1.1,8.2,2.3,10.5,3.5s4.1,2.8,5.3,4.9
		c1.3,2.1,1.9,4.6,1.9,7.7c0,2.8-0.8,5.4-2.3,7.8s-3.7,4.2-6.5,5.4c-2.8,1.2-6.3,1.8-10.5,1.8c-6.1,0-10.8-1.4-14.1-4.2
		c-1.9-1.7-3.4-3.8-4.4-6.4c-1.2-3,0.9-6.2,4-6.5l0,0c2.1-0.2,4.2,1,5,2.9c0.6,1.5,1.5,2.8,2.5,3.7c1.7,1.5,4.1,2.2,7.1,2.2
		c3.1,0,5.5-0.7,7.1-2s2.4-2.9,2.4-4.7C627.3,372.5,626.9,371.5,626.3,370.7z"/>
	<path d="M572.2,338.6c6.1,0,10.6,1.3,13.7,4c1.3,1.1,2.3,2.4,3.1,3.9c1.7,3.1-0.5,6.9-4.1,7h-0.3c-1.9,0.1-3.8-1-4.5-2.7
		c-0.5-1-1.1-1.8-1.8-2.5c-1.4-1.1-3.4-1.6-6.2-1.6s-5,0.6-6.6,1.7c-1,0.7-1.5,1.7-1.5,3c0,1.1,0.5,2.1,1.4,2.9c1.2,1,4.2,2.1,9,3.2
		c4.7,1.1,8.2,2.3,10.5,3.5s4.1,2.8,5.3,4.9c1.3,2.1,1.9,4.6,1.9,7.7c0,2.8-0.8,5.4-2.3,7.8s-3.7,4.2-6.5,5.4
		c-2.8,1.2-6.3,1.8-10.5,1.8c-6.1,0-10.8-1.4-14.1-4.2c-1.9-1.7-3.4-3.8-4.4-6.4c-1.2-3,0.9-6.2,4-6.5l0,0c2.1-0.2,4.2,1,5,2.9
		c0.6,1.5,1.5,2.8,2.5,3.7c1.7,1.5,4.1,2.2,7.1,2.2c3.1,0,5.5-0.7,7.1-2s2.4-2.9,2.4-4.7c0-1.1-0.3-2.1-1-2.9s-1.8-1.5-3.5-2.1
		c-1.1-0.4-3.7-1.1-7.8-2.1c-5.2-1.3-8.9-2.9-11-4.8c-3-2.7-4.5-5.9-4.5-9.7c0-2.5,0.7-4.7,2.1-6.9c1.4-2.1,3.4-3.8,6-4.9
		C565.3,339.1,568.5,338.6,572.2,338.6z"/>
	<circle class="st2" cx="553.3" cy="261.5" r="6.8"/>
	<path class="st2" d="M553.3,460c3.7,0,6.8,3,6.8,6.8c0,3.7-3,6.8-6.8,6.8c-3.7,0-6.8-3-6.8-6.8C546.5,463.1,549.6,460,553.3,460z"
		/>
	<g>
		<g>
			<path class="st2" d="M637.1,390.8c0,3.6,2.9,6.6,6.6,6.6c3.6,0,6.6-2.9,6.6-6.6v-10.6h-13.1L637.1,390.8L637.1,390.8z"/>
			<path class="st2" d="M637.1,274.8v10.6h13.1v-10.6c0-3.6-2.9-6.6-6.6-6.6C640.1,268.2,637.1,271.1,637.1,274.8z"/>
			<path class="st2" d="M615.7,274.8v10.6h13.2v-10.6c0-3.6-2.9-6.6-6.6-6.6C618.7,268.2,615.7,271.1,615.7,274.8z"/>
			<path class="st2" d="M615.7,390.8c0,3.6,2.9,6.6,6.6,6.6c3.6,0,6.6-2.9,6.6-6.6v-10.6h-13.2L615.7,390.8L615.7,390.8z"/>
			<path class="st2" d="M594.4,274.8v10.6h13.1v-10.6c0-3.6-2.9-6.6-6.6-6.6C597.3,268.2,594.4,271.1,594.4,274.8z"/>
			<path class="st2" d="M594.4,390.8c0,3.6,2.9,6.6,6.6,6.6c3.6,0,6.6-2.9,6.6-6.6v-10.6h-13.2L594.4,390.8L594.4,390.8z"/>
			<path class="st2" d="M557.8,354.2c0,3.6,2.9,6.6,6.6,6.6H575v-13.1h-10.6C560.7,347.6,557.8,350.5,557.8,354.2z"/>
			<path class="st2" d="M680.3,347.6h-10.6v13.1h10.6c3.6,0,6.6-2.9,6.6-6.6S684,347.6,680.3,347.6z"/>
			<path class="st2" d="M557.8,332.8c0,3.6,2.9,6.6,6.6,6.6H575v-13.2h-10.6C560.7,326.2,557.8,329.1,557.8,332.8z"/>
			<path class="st2" d="M680.3,326.2h-10.6v13.2h10.6c3.6,0,6.6-2.9,6.6-6.6S684,326.2,680.3,326.2z"/>
			<path class="st2" d="M557.8,311.4c0,3.6,2.9,6.6,6.6,6.6H575v-13.2h-10.6C560.7,304.8,557.8,307.7,557.8,311.4z"/>
			<path class="st2" d="M680.3,304.8h-10.6v13.1h10.6c3.6,0,6.6-2.9,6.6-6.6C686.9,307.7,684,304.8,680.3,304.8z"/>
			<path class="st2" d="M581.3,367c0,3.8,3.1,6.9,6.9,6.9h68.4c3.8,0,6.9-3.1,6.9-6.9v-68.4c0-3.8-3.1-6.9-6.9-6.9h-68.4
				c-3.8,0-6.9,3.1-6.9,6.9V367z"/>
		</g>
	</g>
	<g>
		<path class="st2" d="M594.3,422.4c-0.2-1.2-0.8-1.9-1.6-2.3s-1.8-0.6-2.8-0.6c-2.4,0-3.5,0.7-3.5,1.9c0,5,19.3,1.9,19.3,14.1
			c0,7.8-6.5,11.5-15.7,11.5c-8.8,0-14.6-5.2-14.8-11.2h10.5c0.2,1.2,0.9,2.1,1.8,2.7c0.9,0.6,2,0.8,3.1,0.8c2.7,0,4.6-0.9,4.6-2.5
			c0-5.1-19.3-1.6-19.3-14.4c0-7.1,6.1-10.7,14.5-10.7c9.3,0,13.5,4.7,14.3,10.6h-10.4V422.4z"/>
		<path class="st2" d="M625.5,422.4c-0.2-1.2-0.8-1.9-1.6-2.3s-1.8-0.6-2.8-0.6c-2.4,0-3.5,0.7-3.5,1.9c0,5,19.3,1.9,19.3,14.1
			c0,7.8-6.5,11.5-15.7,11.5c-8.8,0-14.6-5.2-14.8-11.2h10.5c0.2,1.2,0.9,2.1,1.8,2.7c0.9,0.6,2,0.8,3.1,0.8c2.7,0,4.6-0.9,4.6-2.5
			c0-5.1-19.3-1.6-19.3-14.4c0-7.1,6.1-10.7,14.5-10.7c9.3,0,13.5,4.7,14.3,10.6h-10.4V422.4z"/>
		<path class="st2" d="M639.1,446.2v-33.5h14.7c10.8,0,17.5,5,17.5,16c0,12.6-7,17.4-17.8,17.4h-14.4V446.2z M650.1,438.4h2.3
			c5.1,0,7.9-2.7,7.9-9c0-7-2.3-8.8-8.1-8.8h-2.1L650.1,438.4L650.1,438.4z"/>
	</g>
</g>
</svg>
