<?xml version="1.0" encoding="utf-8"?>
<!-- Generator: Adobe Illustrator 22.0.0, SVG Export Plug-In . SVG Version: 6.00 Build 0)  -->
<svg version="1.1" id="Layer_1" xmlns="http://www.w3.org/2000/svg" xmlns:xlink="http://www.w3.org/1999/xlink" x="0px" y="0px"
	 viewBox="0 0 100.7 99.1" style="enable-background:new 0 0 100.7 99.1;" xml:space="preserve">
<style type="text/css">
	.st0{fill:#02c54c;stroke:#02c54c;stroke-width:2;stroke-miterlimit:10;}
</style>
<path class="st0" d="M11.2,59c-0.3-0.2-0.3-0.7-0.1-0.9l4.6-5.2c0.2-0.3,0.7-0.3,0.9-0.1c0.3,0.2,0.3,0.7,0.1,0.9l-4.6,5.2
	c-0.1,0.2-0.3,0.2-0.5,0.2C11.5,59.2,11.4,59.1,11.2,59z M11.7,67c0.2,0,0.4-0.1,0.5-0.2l11.1-12.6c0.2-0.3,0.2-0.7-0.1-0.9
	c-0.3-0.2-0.7-0.2-0.9,0.1L11.2,66c-0.2,0.3-0.2,0.7,0.1,0.9C11.4,67,11.6,67,11.7,67z M72.9,58.2c0.2,0,0.4-0.1,0.5-0.2l4.6-5.2
	c0.2-0.3,0.2-0.7-0.1-0.9S77.3,51.7,77,52l-4.6,5.2c-0.2,0.3-0.2,0.7,0.1,0.9C72.6,58.1,72.7,58.2,72.9,58.2z M84.6,52.3L73.5,64.9
	c-0.2,0.3-0.2,0.7,0.1,0.9c0.1,0.1,0.3,0.2,0.4,0.2c0.2,0,0.4-0.1,0.5-0.2l11.1-12.6c0.2-0.3,0.2-0.7-0.1-0.9
	C85.2,52,84.8,52,84.6,52.3z M99.9,24.5v3.9c0,1.2-1,2.1-2.1,2.1h-0.6v64c0,1.7-1.4,3-3,3H6.2c-1.7,0-3-1.4-3-3v-64
	c-0.9-0.2-1.7-1.1-1.7-2.1v-3.9c0-1.2,1-2.1,2.1-2.1h1.2V4c0-1.7,1.4-3,3-3h85.6c1.7,0,3,1.4,3,3v18.4h1.2
	C99,22.4,99.9,23.3,99.9,24.5z M7,22.4h87.7V4c0-0.5-0.4-1-1-1H8C7.5,3,7,3.4,7,4V22.4z M34,87.6H5.2v7c0,0.6,0.4,1,1,1H34V87.6z
	 M34,46H5.3H5.2v39.6H34V46z M34,30.6H5.2V44h0.1H34V30.6z M49.9,46H36v49.6h13.8V46z M65.4,46H51.6v49.6h13.8
	C65.4,95.6,65.4,46,65.4,46z M65.4,30.6H36V44h29.4V30.6z M95.1,87.6H67.5v8h26.7c0.6,0,1-0.4,1-1C95.1,94.6,95.1,87.6,95.1,87.6z
	 M95.1,46H67.5v39.6h27.7C95.1,85.6,95.1,46,95.1,46z M95.1,30.6H67.5V44h27.7C95.1,44,95.1,30.6,95.1,30.6z M97.9,24.5
	c0-0.1,0-0.1-0.1-0.1h-94c-0.1,0-0.1,0.1-0.1,0.1v3.9c0,0.1,0.1,0.1,0.1,0.1h94c0.1,0,0.1-0.1,0.1-0.1S97.9,24.5,97.9,24.5z
	 M44.2,65.8c-0.6,0-1,0.5-1,1v5.4c0,0.6,0.5,1,1,1s1-0.5,1-1v-5.4C45.2,66.3,44.7,65.8,44.2,65.8z M57.3,65.8c-0.6,0-1,0.5-1,1v5.4
	c0,0.6,0.5,1,1,1s1-0.5,1-1v-5.4C58.3,66.3,57.9,65.8,57.3,65.8z M93.7,9.9H63.1c-0.5,0-0.9-0.4-0.9-0.9l0,0c0-0.5,0.4-0.9,0.9-0.9
	h30.7c0.5,0,0.9,0.4,0.9,0.9l0,0C94.6,9.5,94.2,9.9,93.7,9.9z M94.2,16.5H70.3c-0.5,0-0.9-0.4-0.9-0.9l0,0c0-0.5,0.4-0.9,0.9-0.9
	h23.9c0.5,0,0.9,0.4,0.9,0.9l0,0C95.1,16.1,94.7,16.5,94.2,16.5z"/>
</svg>
