<?xml version="1.0" encoding="utf-8"?>
<!-- Generator: Adobe Illustrator 22.0.0, SVG Export Plug-In . SVG Version: 6.00 Build 0)  -->
<svg version="1.1" id="Layer_1" xmlns="http://www.w3.org/2000/svg" xmlns:xlink="http://www.w3.org/1999/xlink" x="0px" y="0px"
	 viewBox="0 0 94.8 94.1" style="enable-background:new 0 0 94.8 94.1;" xml:space="preserve">
<title>79 all</title>
<path d="M47.5,76.7c16.2,0,29.3-13.1,29.3-29.3c0-16.2-13.1-29.3-29.3-29.3c-16.2,0-29.3,13.1-29.3,29.3
	C18.3,63.6,31.3,76.7,47.5,76.7z M27,31.1c1.5,1.5,3.2,2.9,5.1,4c-1.1,3.5-1.8,7.2-1.9,10.9h-8.9C21.6,40.5,23.6,35.3,27,31.1z
	 M73.7,45.9h-8.9c-0.1-3.7-0.7-7.4-1.9-11c1.8-1.1,3.5-2.5,5-4C71.4,35.2,73.4,40.5,73.7,45.9z M68,63.9c-1.5-1.5-3.2-2.9-5-4
	c1.2-3.6,1.8-7.3,1.9-11h8.9C73.5,54.4,71.4,59.6,68,63.9z M49,73.1V58.5c3.5,0.2,7,1.1,10.2,2.7C57.2,66.2,53.6,70.4,49,73.1
	L49,73.1z M49,55.5v-6.6h12.8c-0.1,3.2-0.6,6.4-1.6,9.5C56.7,56.7,52.9,55.7,49,55.5z M49,45.9v-6.5c3.9-0.2,7.7-1.2,11.3-2.9
	c0.9,3.1,1.5,6.3,1.6,9.5L49,45.9z M49,36.3V21.8c4.6,2.7,8.2,6.9,10.2,11.9C56,35.2,52.5,36.2,49,36.3L49,36.3z M46,21.8v14.6
	c-3.6-0.2-7-1.1-10.2-2.7C37.8,28.7,41.4,24.5,46,21.8L46,21.8z M46,39.3v6.6H33.2c0.1-3.2,0.6-6.4,1.5-9.4
	C38.3,38.2,42.1,39.2,46,39.3L46,39.3z M46,48.9v6.6c-3.9,0.2-7.7,1.2-11.3,2.9c-0.9-3.1-1.4-6.2-1.5-9.4L46,48.9z M46,58.5v14.6
	c-4.6-2.7-8.2-6.9-10.2-11.9C39,59.6,42.4,58.7,46,58.5z M40.3,72.7C36,71.5,32.1,69.2,29,66c1.3-1.3,2.7-2.4,4.2-3.4
	C34.8,66.5,37.2,69.9,40.3,72.7z M61.8,62.7c1.5,1,2.9,2.1,4.1,3.4c-3.1,3.1-7,5.4-11.3,6.6C57.8,70,60.2,66.6,61.8,62.7L61.8,62.7z
	 M61.8,32.1c-1.6-3.8-4.1-7.2-7.2-10c4.3,1.2,8.1,3.5,11.3,6.6C64.7,30,63.3,31.1,61.8,32.1L61.8,32.1z M33.2,32.1
	c-1.5-1-2.9-2.1-4.2-3.4c3.2-3.1,7.1-5.4,11.3-6.6C37.2,24.9,34.8,28.3,33.2,32.1L33.2,32.1z M30.2,48.9c0.1,3.7,0.7,7.4,1.9,10.9
	c-1.8,1.1-3.5,2.5-5.1,4c-3.4-4.2-5.4-9.4-5.7-14.9L30.2,48.9z"/>
<path d="M3.2,81.3c-2.9,2.9-2.9,7.7,0,10.6c2.9,2.9,7.7,2.9,10.6,0c2.6-2.7,2.9-6.9,0.7-9.8l4.5-4.5c15.8,15,40.5,15.3,56.5,0.5
	l4.5,4.5c-2.1,3.6-0.8,8.2,2.8,10.2c3.6,2.1,8.2,0.8,10.2-2.8c2.1-3.6,0.8-8.2-2.8-10.2c-2.6-1.5-5.8-1.3-8.2,0.5l-4.3-4.3
	c14.9-15.7,15.2-40.3,0.6-56.4l4.6-4.6c3.6,2.1,8.2,0.8,10.2-2.8c2.1-3.6,0.8-8.2-2.8-10.2C86.7-0.1,82.1,1.1,80,4.7
	c-1.5,2.6-1.3,5.8,0.5,8.2l-4.4,4.4C60.4,2.3,35.7,2,19.6,16.7l-4.6-4.6c2.1-3.6,0.8-8.2-2.8-10.3S4.1,1,2,4.6s-0.8,8.2,2.8,10.3
	c2.6,1.5,5.9,1.3,8.3-0.5l4.4,4.5C2.4,34.6,2.2,59.3,16.9,75.4L12.2,80C9.3,78.4,5.6,78.9,3.2,81.3z M11.7,89.7
	c-1.8,1.8-4.6,1.8-6.4,0s-1.8-4.6,0-6.4s4.6-1.8,6.4,0c0.8,0.8,1.3,2,1.3,3.2C13,87.8,12.5,88.9,11.7,89.7L11.7,89.7z M86.5,81.7
	c2.5,0,4.5,2,4.5,4.5c0,2.5-2,4.5-4.5,4.5c-2.5,0-4.5-2-4.5-4.5c0-1.2,0.5-2.3,1.3-3.2C84.2,82.2,85.3,81.7,86.5,81.7L86.5,81.7z
	 M83.3,5.3c1.8-1.8,4.6-1.8,6.4,0s1.8,4.6,0,6.4s-4.6,1.8-6.4,0c0,0,0,0,0,0C81.6,9.9,81.5,7.1,83.3,5.3C83.3,5.3,83.3,5.3,83.3,5.3
	z M5.3,11.6C3.6,9.9,3.6,7,5.3,5.3s4.6-1.8,6.4,0s1.8,4.6,0,6.4c0,0,0,0,0,0C9.9,13.4,7.1,13.4,5.3,11.6L5.3,11.6z M47.5,8.9
	C68.8,8.9,86,26.2,86,47.4S68.8,85.9,47.5,85.9S9,68.7,9,47.4l0,0C9,26.2,26.2,9,47.5,8.9z"/>
</svg>
