<?xml version="1.0" encoding="utf-8"?>
<!-- Generator: Adobe Illustrator 22.0.0, SVG Export Plug-In . SVG Version: 6.00 Build 0)  -->
<svg version="1.1" id="Layer_1" xmlns="http://www.w3.org/2000/svg" xmlns:xlink="http://www.w3.org/1999/xlink" x="0px" y="0px"
	 viewBox="0 0 476 512" style="enable-background:new 0 0 476 512;" xml:space="preserve">
<style type="text/css">
	.st0{fill:none;}
	.st1{fill:#02c54c;}
</style>
<path class="st0" d="M379.4,437"/>
<path class="st1" d="M475.6,474.6c1.3-1.7-1-4-2.8-3c-47.1,29.1-103.2,32.8-137.8-17.3c-3.1-4.6-9.1-6-13.5-2
	c-50.6,45.5-111.2,52.9-160.9,5.2c-7.3-7-13.6-11.6-22.2-11.4c-15.4,0.3-17.9,18-39.1,32.2c-27.6,18.7-59.5,13.2-64.2,12.3
	c-11.5-2.1-20.4-6.3-26.1-9.5c-0.8,0.1-4.6,0.7-6.7,3.7c-2.4,3.6-1.6,9.4,2.5,13.4c4.8,2.4,11.6,5.3,19.9,7.6
	c7.1,2,22.8,5.4,42.7,3.1c10-1.2,29.8-3.5,47.8-17c16.3-12.2,18.4-23.9,27.9-23.4c8.7,0.4,10.2,11.1,25.1,21.7
	c9.2,6.4,19.4,11.3,30.1,14.6C245,519.4,291,501,326.7,471C365.3,514.4,437.6,527.4,475.6,474.6z"/>
<path class="st1" d="M456.7,407.1c-0.1-3.8-0.6-6.9-1-8.9c-1-3-4.9-4.9-7.9-4.9h-84.6L326.9,357c-2-2-3.9-3-6.9-3h-68.8v-19.7h137.7
	c3,0,5.9-2,7.9-3.9c2-2.9,2.9-5.9,1-8.8l-108.2-295c-2-4.9-5.9-6.9-10.8-5.9c-4.9,0-7.9,3.9-7.9,8.8c0,48.2-6.9,98.3-19.7,144.5V0
	h-19.7v19.7c0,13.1,0,26.2,0,39.3c0,6.6,0,13.1,0,19.7c0,51.5,0,102.9,0,154.4c-12.8,32.5-28.5,62-47.2,85.6c-2,2.9-3,6.9-1,10.8
	c2,2.9,4.9,4.9,8.8,4.9h39.3V354H84v19.7h23.6l-9.8,19.7H64.4c-5.9,0-9.8,3.9-9.8,9.8v9.8H34.9c-5.9,0-9.8,3.9-9.8,9.8
	c-0.1,24.9-0.2,49.8-0.3,74.7c6.5-0.4,13-0.8,19.5-1.3c0.2-21.2,0.3-42.4,0.5-63.6h19.7c5.9,0,9.8-3.9,9.8-9.8V413h357
	c-2.5,8.8-8.8,26.1-24.4,42c-20,20.3-43.1,25.8-52,27.5c7.6,4.9,15.1,9.8,22.7,14.7c12.6-4.3,22.1-9.6,28.3-13.7
	C411.9,479.5,458,448.8,456.7,407.1z M211.9,314.7c41.3-61,68.8-148.5,76.7-236l86.5,236H211.9z M270.9,393.3H119.4l9.8-19.7h141.6
	v19.7H270.9z M290.5,393.3v-19.7h25.6l19.7,19.7H290.5z"/>
<path class="st1" d="M204,98.3c4.9,1,7.9,4.9,7.9,9.8c-0.1,51.9-0.3,103.9-0.4,155.8c-2,5.2-4.6,11.3-8.3,17.7
	c-3.7,6.4-7.5,11.7-11,16c0-49.4,0-98.8,0-148.2l-82.6,165.2c24.3,0,48.6,0,72.8,0c-0.4,0.3-5.5,4-5.3,10.5c0.2,5.8,4.6,9,5.1,9.4
	c-29.5-0.1-59-0.1-88.5-0.2c-3,0-7.9-2-8.9-4.9c-1-3-2-6.9,0-9.8L193,103.3C195.1,99.3,200.1,97.3,204,98.3z"/>
<path class="st1" d="M41.2,441h252.3c6.3,0.5,10.8-3.2,11-6.3c0.2-3.1-4.3-7.5-11-7.3c-84.1,0-168.2,0-252.3,0
	C41.2,427.4,41.2,441,41.2,441z"/>
</svg>
