<?xml version="1.0" encoding="utf-8"?>
<!-- Generator: Adobe Illustrator 22.1.0, SVG Export Plug-In . SVG Version: 6.00 Build 0)  -->
<svg version="1.1" id="Capa_1" xmlns="http://www.w3.org/2000/svg" xmlns:xlink="http://www.w3.org/1999/xlink" x="0px" y="0px"
	 viewBox="0 0 512 512" style="enable-background:new 0 0 512 512;" xml:space="preserve">
<style type="text/css">
	.st0{fill:#FEE218;}
	.st1{fill:#6F7070;}
	.st2{fill:#787878;}
	.st3{fill:#FFCC5B;}
	.st4{fill:#F9B342;}
	.st5{fill:#464646;}
</style>
<path class="st0" d="M341.7,331.9H170.3v-41.8h171.3v41.8H341.7z M172.1,330.1h167.7v-38.2H172.1V330.1L172.1,330.1z"/>
<path class="st1" d="M374.7,160.3c0-65.5-53.2-118.7-118.7-118.7S137.3,94.9,137.3,160.3v131.9H160V160.3c0-53,43-96.1,96.1-96.1
	s96.1,43,96.1,96.1v131.9h22.7V160.3H374.7z"/>
<path class="st2" d="M255.6,62.8c-53.9,0-97.8,43.3-97.8,96.8v132.8h195.5V159.4C353.4,106,309.5,62.8,255.6,62.8z M182.6,246.9
	v-86.6c0-40.5,32.9-73.4,73.4-73.4s73.4,32.9,73.4,73.4v86.6H182.6z"/>
<path class="st3" d="M376.2,458.2H135.8c-19.8,0-35.8-16-35.8-35.8V252.2c0-19.8,16-35.8,35.8-35.8h240.3c19.8,0,35.8,16,35.8,35.8
	v170.2C412,442.2,396,458.2,376.2,458.2z"/>
<path class="st4" d="M376.2,216.4h-64.1c-10,0-18.1,8.1-18.1,18.1s8.1,18.1,18.1,18.1h24.2c8.4,0,15.2,6.8,15.1,15.2v0.2
	c0,0.4,0,0.7,0,1.1c0.5,8.3-6.1,15.2-14.3,15.2h-40.6c-9.8,0-18.6,7.3-19.1,17.1c-0.6,10.4,7.8,19.1,18.1,19.1h18.4
	c8.4,0,15.2,6.8,15.2,15.3v1.1v0.2c0.1,8.9-7.2,16.1-16,16.1h-3.7c-9.8,0-18.6,7.3-19.1,17.1c-0.6,10.4,7.8,19.1,18.1,19.1h37.1
	c8.7,0,15.3,7.3,15.2,16.1c0,0.1,0,0.1,0,0.2s0,0.1,0,0.2c0.1,8.7-6.4,16.1-15.2,16.1h-15c-9.8,0-18.6,7.3-19.1,17.1
	c-0.6,10.4,7.7,19.1,18.1,19.1h46.6c19.8,0,35.8-16,35.8-35.8V252.2C412,232.4,396,216.4,376.2,216.4z"/>
<path class="st5" d="M289.4,317.7c0-18.4-14.9-33.4-33.4-33.4s-33.4,14.9-33.4,33.4c0,11.7,6,21.9,15.1,27.9l-7.7,44.7h51.8
	l-7.7-44.7C283.3,339.6,289.4,329.4,289.4,317.7z"/>
</svg>
