<svg version="1.1" id="Capa_1" xmlns="http://www.w3.org/2000/svg" xmlns:xlink="http://www.w3.org/1999/xlink" x="0px" y="0px"
	 viewBox="0 0 512 512" style="enable-background:new 0 0 512 512;" xml:space="preserve">
<path style="fill:#F2D422;" d="M126.104,179.55l-20.02,15.838L87.44,229.46c-17.983,32.865-49.17,40.409-49.17,40.409l-3.342-1.828
	c-7.384-4.039-16.644-1.328-20.684,6.054l-4.877,8.912c-4.039,7.385-1.329,16.645,6.053,20.684l193.29,105.765
	c7.383,4.04,16.645,1.329,20.684-6.054l4.878-8.912c4.038-7.384,1.327-16.645-6.055-20.683l-3.343-1.83
	c-0.008-0.022-10.455-30.346,7.522-63.197l23.603-43.137v-73.668v-12.423H126.104V179.55z"/>
<g>
	<path style="fill:#E8C018;" d="M206.181,189.55l-0.683,0.335h0.326C205.942,189.774,206.062,189.663,206.181,189.55z"/>
	<path style="fill:#E8C018;" d="M114.128,221.363c-0.236-0.276-0.462-0.572-0.682-0.879c-0.05-0.07-0.101-0.139-0.15-0.21
		c-0.213-0.31-0.417-0.637-0.612-0.978c-0.045-0.08-0.09-0.161-0.135-0.242c-0.194-0.354-0.38-0.724-0.556-1.113
		c-0.033-0.074-0.064-0.15-0.097-0.225c-0.18-0.415-0.351-0.844-0.508-1.298c-0.012-0.034-0.022-0.071-0.034-0.106
		c-0.152-0.45-0.292-0.921-0.421-1.411c-0.017-0.065-0.036-0.128-0.053-0.194c-0.126-0.498-0.238-1.019-0.338-1.558
		c-0.018-0.098-0.037-0.195-0.055-0.294c-0.095-0.539-0.177-1.1-0.245-1.681c-0.013-0.106-0.024-0.214-0.036-0.322
		c-0.064-0.599-0.117-1.217-0.153-1.861c-0.005-0.086-0.007-0.175-0.012-0.262c-0.034-0.687-0.055-1.393-0.055-2.131v-14.292
		l-3.9,3.086L87.441,229.46c-17.983,32.865-49.17,40.409-49.17,40.409l-3.342-1.828c-7.384-4.039-16.644-1.328-20.684,6.054
		l-4.877,8.912c-4.039,7.385-1.329,16.645,6.053,20.684l12.316,6.738c-3.903-4.669-4.786-11.425-1.688-17.088l4.877-8.912
		c4.041-7.383,13.301-10.093,20.684-6.054l3.342,1.828c0,0,31.188-7.543,49.17-40.409l10.054-18.375
		C114.159,221.402,114.143,221.382,114.128,221.363z"/>
</g>
<g>
	<circle style="fill:#E5E1E1;" cx="99.111" cy="380.244" r="26.987"/>
	<circle style="fill:#E5E1E1;" cx="412.889" cy="380.244" r="26.987"/>
</g>
<g>
	<path style="fill:#D1CFCF;" d="M102.429,367.294c2.464-4.502,6.023-8.023,10.166-10.412c-0.177-0.102-0.349-0.209-0.529-0.307
		c-13.074-7.156-29.475-2.356-36.629,10.719c-7.154,13.074-2.355,29.473,10.721,36.628c8.572,4.69,18.574,4.242,26.462-0.308
		C99.95,396.309,95.374,380.188,102.429,367.294z"/>
	<path style="fill:#D1CFCF;" d="M416.205,393.202c-7.055-12.896-2.48-29.016,10.19-36.321c-7.888-4.55-17.89-4.999-26.462-0.307
		c-13.075,7.154-17.873,23.552-10.72,36.628c7.153,13.074,23.553,17.873,36.63,10.719c0.18-0.099,0.352-0.205,0.528-0.307
		C422.229,401.224,418.669,397.705,416.205,393.202z"/>
</g>
<path style="fill:#F2D422;" d="M502.633,283.008l-4.878-8.912c-4.041-7.383-13.299-10.093-20.684-6.054l-3.342,1.828
	c0,0-31.19-7.544-49.17-40.409l-23.318-42.614V181.8H262.145l-8.059,10.174c-12.022,19.989-13.422,45.643-1.417,67.581
	l26.934,49.224c17.977,32.851,7.53,63.175,7.523,63.197l-3.343,1.83c-7.384,4.039-10.093,13.3-6.054,20.683l4.877,8.912
	c4.04,7.384,13.302,10.094,20.684,6.054L496.578,303.69C503.962,299.651,506.672,290.391,502.633,283.008z"/>
<path style="fill:#E8C018;" d="M302.068,394.9l-4.877-8.912c-4.039-7.384-1.329-16.645,6.054-20.683l3.343-1.83
	c0.008-0.022,10.454-30.346-7.523-63.197l-26.934-49.224c-12.005-21.939-10.604-47.591,1.417-67.581l1.324-1.672h-12.729
	l-8.059,10.174c-12.022,19.989-13.422,45.643-1.417,67.581l26.934,49.224c17.977,32.851,7.53,63.175,7.523,63.197l-3.343,1.83
	c-7.384,4.039-10.093,13.3-6.054,20.683l4.877,8.912c4.04,7.384,13.302,10.094,20.684,6.054l12.122-6.632
	C310.036,402.809,304.831,399.949,302.068,394.9z"/>
<g>
	<path style="fill:#EA473B;" d="M216.497,175.04v-23.621c0-2.415,0.512-4.708,1.419-6.787l-81.778-40.133
		c-4.174-1.99-30.156-13.245-30.156,15.367v43.363v43.363c0,28.608,25.982,17.356,30.156,15.365l81.778-40.131
		C217.009,179.748,216.497,177.457,216.497,175.04z"/>
	<path style="fill:#EA473B;" d="M371.09,104.499l-81.785,40.134c0.908,2.078,1.423,4.372,1.423,6.786v23.621
		c0,2.416-0.515,4.708-1.423,6.788l81.785,40.131c4.17,1.991,30.153,13.244,30.153-15.365v-43.363v-43.363
		C401.243,91.255,375.26,102.51,371.09,104.499z"/>
</g>
<path style="fill:#D63322;" d="M128.475,206.594v-43.363v-43.363c0-8.533,2.318-13.502,5.673-16.247
	c-7.362-3.038-28.165-9.363-28.165,16.247v43.363v43.363c0,25.607,20.804,19.281,28.165,16.244
	C130.794,220.093,128.475,215.125,128.475,206.594z"/>
<path style="fill:#EA473B;" d="M233.463,189.758c-6.957,0-12.928-4.188-15.547-10.177l-10.213,5.012
	c-23.602,20.133-45.167,51.898-56.283,69.68c0,0.002-0.002,0.002-0.002,0.004c-8.181,12.622,3.013,18.19,3.079,18.225l14.781,6.795
	c0.761,0.351,1.543,0.707,2.331,1.072l1.178,0.54c7.194,3.311,15.166,6.974,21.218,9.756c14.347,6.598,17.546-6.827,17.546-6.827
	h0.006c13.599-48.714,34.141-84.139,40.269-94.083h-18.361V189.758z"/>
<path style="fill:#D63322;" d="M171.429,273.452c0-0.003,0.002-0.003,0.002-0.005c10.741-21.274,31.047-58.111,55.079-85.186
	c-3.831-1.726-6.908-4.826-8.593-8.68l-10.213,5.012c-23.602,20.133-45.167,51.898-56.283,69.68c0,0.002-0.002,0.002-0.002,0.004
	c-8.181,12.622,3.013,18.19,3.079,18.225l14.672,6.745C169.597,277.486,170.32,275.559,171.429,273.452z"/>
<path style="fill:#EA473B;" d="M356.883,256.01l-0.002-0.005c-10.758-17.384-32.984-50.618-57.381-71.423l-10.193-5.002
	c-2.622,5.989-8.59,10.177-15.548,10.177h-18.359c6.119,9.926,26.605,45.258,40.204,93.854h0.006
	c3.819,12.773,13.153,9.104,13.162,9.102l0.27-0.126c0.123-0.055,0.29-0.132,0.492-0.226l39.078-17.969
	c0.36-0.165,0.718-0.334,1.072-0.494c12.999-5.979,8.827-15.101,7.524-17.366C357.1,256.359,356.993,256.186,356.883,256.01z"/>
<g>
	<path style="fill:#D63322;" d="M281.488,187.884c-2.319,1.191-4.943,1.872-7.731,1.872h-18.359
		c6.119,9.926,26.605,45.258,40.204,93.854h0.006c3.819,12.773,13.153,9.104,13.162,9.102l0.27-0.126
		c0.123-0.055,0.29-0.132,0.492-0.226l12.686-5.832C309.403,242.737,292.462,207.931,281.488,187.884z"/>
	<path style="fill:#D63322;" d="M273.757,133.89h-40.294c-9.666,0-17.529,7.864-17.529,17.53v23.621
		c0,9.665,7.864,17.528,17.529,17.528h40.294c9.668,0,17.534-7.863,17.534-17.528V151.42
		C291.292,141.754,283.425,133.89,273.757,133.89z"/>
</g>
<path style="fill:#C62A1E;" d="M238.426,175.04v-23.621c0-9.666,7.863-17.53,17.528-17.53h-22.491
	c-9.666,0-17.529,7.864-17.529,17.53v23.621c0,9.665,7.864,17.528,17.529,17.528h22.491
	C246.289,192.568,238.426,184.705,238.426,175.04z"/>
<path d="M509.213,279.405l-4.878-8.912c-5.717-10.444-19.117-15.462-31.418-8.731c-7.356-2.579-28.598-11.816-41.776-35.903
	l-22.397-40.932v-65.07c0-11.233-3.478-19.123-10.337-23.45c-14.142-8.92-32.794,2.424-45.234,8.528
	c-3.719,1.825-5.254,6.319-3.43,10.039c1.825,3.72,6.32,5.253,10.039,3.43l14.546-7.139c5.52-2.635,12.813-4.226,16.074-2.169
	c2.905,1.832,3.339,7.529,3.339,10.76v66.989c0,25.275,2.492,34.926-13.661,30.451c-0.07-0.019-0.139-0.036-0.21-0.055
	c-0.509-0.145-1.017-0.307-1.523-0.476c-1.363-0.456-2.703-0.992-3.944-1.584l-76.288-37.435c0.032-0.3,0.064-0.726,0.083-0.997
	c0.039-0.559,0.068-0.91,0.068-1.736c0-25.46,0.017-23.927-0.037-24.928c-0.006-0.119-0.071-0.982-0.106-1.306
	c-0.004-0.037-0.005-0.074-0.009-0.11l29.561-14.506c3.719-1.825,5.254-6.319,3.43-10.039c-1.825-3.719-6.32-5.253-10.039-3.43
	l-29.137,14.298c-4.479-4.942-10.946-8.053-18.127-8.053H233.52c-7.18,0-13.647,3.11-18.126,8.052
	c-81.484-39.985-82.568-41.839-94.296-41.839c-5.282,0-22.517,1.926-22.517,26.709v73.612l-17.722,32.39
	c-13.187,24.101-34.446,33.335-41.775,35.904c-12.331-6.757-25.712-1.7-31.42,8.73l-4.878,8.913
	c-6.017,11-1.964,24.846,9.034,30.865l71.682,39.223c-24.865,12.626-25.079,47.801-0.943,61.007
	c24.168,13.223,53.666-6.098,50.854-33.697l71.698,39.231c3.34,1.828,7.11,2.794,10.901,2.795c0.001,0,0.001,0,0.002,0
	c8.321,0,15.97-4.533,19.962-11.828l4.879-8.915c5.7-10.423,2.74-24.415-9.59-31.168c-1.793-7.581-5.469-30.454,7.714-54.542
	L256,281.268l17.023,31.11c13.209,24.139,9.49,47.057,7.72,54.539c-12.349,6.767-15.291,20.758-9.594,31.173
	c5.056,9.24,7.886,16.733,18.439,19.821c11.018,3.224,17.455-1.958,30.494-9.093c3.635-1.988,4.969-6.547,2.98-10.182
	c-1.989-3.635-6.548-4.968-10.182-2.98c-13.84,7.573-15.107,9.016-19.078,7.856c-3.874-1.134-4.454-3.419-9.491-12.624
	c-2.047-3.744-0.669-8.456,3.076-10.504c3.185-1.744,5.645-2.629,6.807-5.897c0.118-0.332,11.557-33.554-8.009-69.311
	l-26.934-49.224c-0.464-0.847-0.897-1.706-1.317-2.572c-0.087-0.18-0.175-0.358-0.261-0.539c-0.397-0.84-0.776-1.688-1.133-2.542
	c-0.066-0.16-0.129-0.32-0.194-0.48c-5.731-14.072-5.776-29.482-0.974-43.039c6.406,11.601,13.073,25.456,18.981,40.006
	c0.084,0.206,0.167,0.408,0.251,0.616c0.438,1.081,0.874,2.178,1.311,3.287c0.111,0.282,0.222,0.569,0.333,0.853
	c0.333,0.852,0.666,1.711,0.998,2.578c0.137,0.356,0.273,0.714,0.409,1.072c0.337,0.886,0.672,1.78,1.007,2.683
	c0.105,0.282,0.21,0.561,0.315,0.845c0.432,1.171,0.862,2.355,1.29,3.55c0.089,0.248,0.177,0.501,0.266,0.75
	c0.341,0.959,0.681,1.926,1.018,2.901c0.134,0.386,0.267,0.773,0.4,1.162c0.312,0.907,0.621,1.822,0.929,2.744
	c0.118,0.353,0.237,0.703,0.354,1.058c0.648,1.954,1.016,3.101,1.405,4.327c0.559,1.756,0.97,3.09,1.412,4.539
	c0.409,1.341,0.944,3.143,1.209,4.049c0.072,0.247,1.24,4.317,1.298,4.484c0.147,0.473,0.331,1.018,0.525,1.537
	c3.663,9.976,11.595,14.252,19.833,12.773c0.407-0.076,0.518-0.102,0.75-0.156c0.203-0.047,0.439-0.105,0.634-0.16
	c0.19-0.052,0.438-0.126,0.523-0.153c0.09-0.029,0.209-0.067,0.404-0.134c0.245-0.088,0.437-0.159,0.706-0.284l40.897-18.806
	c6.719-3.091,11.011-7.429,12.755-12.893c2.181-6.835-0.578-12.782-1.865-15.021c-0.039-0.068-0.08-0.136-0.121-0.203l-0.13-0.21
	l-0.158-0.255c-0.014-0.022-0.027-0.045-0.041-0.067c-0.397-0.642-0.811-1.307-1.236-1.985c-0.068-0.109-0.139-0.222-0.208-0.331
	c-0.35-0.557-0.707-1.124-1.074-1.704c-0.121-0.192-0.245-0.386-0.368-0.58c-0.327-0.515-0.66-1.037-1-1.567
	c-0.145-0.226-0.289-0.452-0.436-0.68c-0.339-0.527-0.685-1.062-1.037-1.604c-0.148-0.228-0.294-0.454-0.444-0.684
	c-0.4-0.613-0.809-1.237-1.223-1.867c-0.105-0.16-0.207-0.315-0.313-0.476c-0.532-0.807-1.075-1.624-1.631-2.457
	c-0.046-0.069-0.095-0.141-0.141-0.211c-0.495-0.739-0.999-1.487-1.512-2.243c-0.173-0.255-0.35-0.514-0.524-0.771
	c-0.396-0.582-0.796-1.167-1.202-1.757c-0.212-0.308-0.426-0.617-0.64-0.927c-0.383-0.554-0.77-1.11-1.162-1.671
	c-0.226-0.324-0.452-0.647-0.681-0.973c-0.409-0.582-0.823-1.168-1.24-1.756c-0.213-0.3-0.424-0.598-0.639-0.9
	c-0.509-0.713-1.026-1.431-1.547-2.152c-0.128-0.177-0.253-0.353-0.382-0.531c-0.652-0.899-1.315-1.803-1.985-2.711
	c-0.167-0.227-0.338-0.455-0.507-0.683c-0.504-0.679-1.01-1.359-1.523-2.041c-0.244-0.324-0.49-0.648-0.736-0.973
	c-0.449-0.594-0.901-1.188-1.357-1.784c-0.269-0.35-0.538-0.7-0.809-1.051c-0.45-0.584-0.904-1.167-1.36-1.751
	c-0.271-0.346-0.54-0.691-0.813-1.038c-0.489-0.62-0.983-1.24-1.479-1.861c-0.187-0.234-0.369-0.467-0.557-0.701l34.363,16.863
	c0.159,0.076,0.336,0.158,0.522,0.244c0.062,0.029,0.127,0.058,0.192,0.088c0.136,0.062,0.278,0.125,0.427,0.191
	c0.08,0.036,0.158,0.07,0.242,0.107c0.175,0.077,0.359,0.156,0.55,0.236c0.059,0.025,0.113,0.049,0.173,0.074
	c0.239,0.1,0.491,0.203,0.751,0.307c0.103,0.041,0.21,0.082,0.316,0.124c0.177,0.069,0.357,0.139,0.542,0.209
	c0.123,0.047,0.247,0.094,0.374,0.141c0.198,0.074,0.401,0.147,0.607,0.221c0.115,0.041,0.226,0.082,0.343,0.123
	c0.3,0.104,0.609,0.209,0.925,0.313c0.141,0.046,0.286,0.091,0.429,0.137c0.205,0.065,0.411,0.129,0.621,0.194
	c0.16,0.048,0.32,0.097,0.482,0.144c0.221,0.065,0.446,0.128,0.672,0.191c0.15,0.041,0.297,0.084,0.449,0.124
	c0.352,0.094,0.71,0.185,1.072,0.273c0.157,0.038,0.316,0.073,0.475,0.109c0.241,0.055,0.482,0.109,0.728,0.162
	c0.175,0.037,0.35,0.073,0.527,0.108c0.253,0.05,0.509,0.098,0.766,0.144c0.161,0.029,0.321,0.059,0.484,0.087
	c0.395,0.066,0.794,0.127,1.196,0.182c0.148,0.02,0.298,0.036,0.448,0.055c0.283,0.035,0.567,0.067,0.853,0.096
	c0.176,0.018,0.352,0.033,0.528,0.048c0.284,0.024,0.569,0.043,0.855,0.059c0.16,0.01,0.318,0.021,0.479,0.028
	c0.426,0.018,0.854,0.03,1.285,0.031c0.024,0,0.049,0.002,0.073,0.002c0.086,0,0.173-0.006,0.259-0.007
	c11.044-0.091,19.159-6.494,21.485-18.401l9.976,18.232c19.35,35.37,52.582,43.76,53.988,44.1c3.385,0.818,5.432-0.748,8.705-2.539
	c3.742-2.047,8.454-0.668,10.502,3.075l4.877,8.91c2.047,3.744,0.669,8.456-3.074,10.503l-149.378,81.738
	c-3.635,1.988-4.969,6.547-2.98,10.182c1.988,3.635,6.546,4.969,10.182,2.981l27.788-15.205c-0.682,6.696,0.575,13.658,4.044,19.997
	c9.171,16.764,30.158,22.811,46.812,13.699c24.224-13.256,23.778-48.453-0.945-61.006l71.681-39.223
	C511.178,304.254,515.232,290.408,509.213,279.405z M99.088,399.737c-3.238,0-6.463-0.829-9.329-2.397
	c-17.559-9.606-10.805-36.582,9.377-36.582c3.238,0,6.463,0.829,9.33,2.398C126.086,372.797,119.177,399.738,99.088,399.737z
	 M233.521,141.94h40.282c5.253,0,9.462,4.296,9.462,9.46v23.611c0,1.304-0.267,2.576-0.793,3.779
	c-0.001,0.001-0.001,0.001-0.001,0.002c-0.173,0.395-0.377,0.77-0.597,1.131c-0.035,0.057-0.067,0.114-0.103,0.17
	c-0.225,0.352-0.47,0.688-0.735,1.005c-0.037,0.043-0.077,0.083-0.114,0.125c-0.235,0.27-0.486,0.523-0.749,0.763
	c-0.067,0.062-0.134,0.125-0.204,0.185c-0.304,0.262-0.621,0.507-0.954,0.727c-0.045,0.03-0.093,0.055-0.139,0.085
	c-0.304,0.194-0.621,0.369-0.946,0.527c-0.076,0.037-0.151,0.075-0.229,0.11c-0.374,0.169-0.757,0.32-1.152,0.44
	c-0.028,0.009-0.058,0.014-0.086,0.023c-0.363,0.106-0.735,0.186-1.112,0.249c-0.099,0.017-0.198,0.032-0.298,0.045
	c-0.411,0.055-0.826,0.092-1.248,0.092H255.45h-1.349h-0.015c-22.367,0-20.801,0.043-21.813-0.092
	c-1.914-0.262-3.572-1.051-4.916-2.206c-2.058-1.773-3.298-4.374-3.298-7.163c0-25.713-0.265-24.968,0.795-27.394
	C226.319,144.281,229.651,141.94,233.521,141.94z M210.008,265.684c-0.983,2.95-1.872,5.718-2.918,9.13
	c-1.437,4.693-2.631,8.945-2.585,8.791c-1.05,3.471-2.373,4.692-7.298,2.426l-39.249-18.047c-0.48-0.294-1.603-1.168-1.87-2.24
	c-0.292-1.174,0.331-3.067,1.708-5.194c0.045-0.07,0.09-0.141,0.133-0.212c0.273-0.438,0.559-0.89,0.846-1.346
	c0.059-0.093,0.113-0.181,0.172-0.275c0.21-0.332,0.431-0.678,0.648-1.02c0.145-0.228,0.284-0.448,0.432-0.68
	c0.179-0.281,0.367-0.573,0.551-0.859c0.198-0.309,0.392-0.612,0.594-0.927c0.16-0.248,0.328-0.505,0.491-0.757
	c0.234-0.361,0.465-0.719,0.705-1.088c0.164-0.253,0.336-0.514,0.504-0.77c0.248-0.38,0.494-0.757,0.749-1.144
	c0.169-0.258,0.346-0.522,0.518-0.783c0.26-0.394,0.518-0.786,0.785-1.186c0.186-0.278,0.378-0.564,0.566-0.846
	c0.262-0.392,0.521-0.78,0.788-1.177c0.19-0.282,0.387-0.571,0.58-0.856c0.276-0.408,0.55-0.813,0.831-1.226
	c0.196-0.288,0.398-0.581,0.597-0.871c0.283-0.412,0.563-0.823,0.851-1.24c0.21-0.305,0.426-0.614,0.639-0.921
	c0.289-0.415,0.575-0.83,0.869-1.249c0.205-0.293,0.415-0.59,0.622-0.884c0.307-0.437,0.613-0.873,0.925-1.314
	c0.216-0.305,0.438-0.613,0.656-0.92c0.309-0.434,0.617-0.866,0.931-1.303c0.229-0.319,0.463-0.64,0.695-0.96
	c1.131-1.567,0.92-1.269,1.652-2.269c1.388-1.889,0.872-1.186,1.698-2.297c1.196-1.605,0.967-1.293,1.723-2.293
	c1.116-1.475,0.993-1.308,1.763-2.309c1.121-1.457,1.017-1.316,1.8-2.316c1.081-1.379,1.109-1.411,1.837-2.323
	c1.316-1.646,0.938-1.173,1.872-2.324c1.207-1.481,1-1.225,1.901-2.313c1.351-1.625,1.06-1.271,1.921-2.288
	c1.174-1.382,1.114-1.309,1.956-2.279c5.977-6.889,12.502-13.689,19.347-19.606l3.433-1.684c1.175,1.297,2.256,2.224,3.532,3.201
	c0.673,0.5,1.367,0.961,2.092,1.396c0.843,0.5,1.566,0.87,2.268,1.194c0.43,0.199,0.929,0.417,1.56,0.659
	c5.068,1.933,8.753,1.596,14.013,1.596C228.157,218.799,217.855,242.158,210.008,265.684z M113.585,119.858
	c0-11.706,4.703-11.706,7.514-11.706c7.403,0,7.126,0.771,88.111,40.513c-0.004,0.034-0.005,0.068-0.008,0.102
	c-0.033,0.303-0.056,0.608-0.077,0.915c-0.113,1.619-0.177,25.795,0.085,28.065c-7.926,3.89-68.335,33.533-76.212,37.399
	c-3.153,1.504-7.935,3.113-11.9,3.113l0,0c-2.079,0-3.317-0.441-4.059-0.875c-0.573-0.367-1.119-0.887-1.6-1.627
	c-0.135-0.215-0.269-0.435-0.39-0.683c-0.003-0.006-0.007-0.013-0.01-0.019c-0.945-1.949-1.453-4.875-1.453-8.5
	C113.585,197.77,113.585,131.949,113.585,119.858z M225.817,305.178c-19.608,35.831-8.124,68.993-8.005,69.324
	c1.155,3.23,3.525,4.089,6.805,5.885c3.743,2.047,5.122,6.759,3.076,10.501l-4.878,8.913c-1.358,2.484-3.965,4.027-6.8,4.027h-0.001
	c-1.3-0.001-2.546-0.321-3.701-0.953L19.022,297.111c-3.742-2.047-5.121-6.759-3.074-10.502l4.877-8.911
	c1.359-2.485,3.967-4.027,6.803-4.027c4.817,0,7.074,4.78,12.406,3.491c1.405-0.34,34.636-8.73,53.988-44.1l6.959-12.716
	c0.078,0.187,0.171,0.357,0.252,0.54c0.099,0.222,0.201,0.439,0.305,0.653c1.021,2.125,2.292,4.004,3.842,5.596
	c3.503,3.601,8.251,5.662,13.804,6.047c0.737,0.059,1.388,0.081,1.916,0.081l0,0h0.001l0,0c0.034,0,0.067-0.002,0.101-0.002
	c4.913-0.017,9.681-1.256,13.289-2.531c1.336-0.471,2.503-0.944,3.469-1.364c0.348-0.151,0.678-0.297,0.968-0.431
	c0.22-0.101,0.422-0.196,0.607-0.284l34.304-16.834c-1.053,1.309-3.116,3.925-4.643,5.91c-0.547,0.711-1.087,1.421-1.623,2.129
	c-0.128,0.169-0.26,0.34-0.388,0.509c-0.664,0.88-1.32,1.757-1.968,2.632c-0.181,0.243-0.356,0.484-0.536,0.727
	c-0.468,0.633-0.933,1.264-1.391,1.893c-0.227,0.311-0.449,0.619-0.673,0.928c-0.406,0.56-0.81,1.119-1.208,1.674
	c-0.232,0.324-0.463,0.645-0.692,0.967c-0.386,0.541-0.769,1.079-1.147,1.615c-0.223,0.315-0.445,0.629-0.665,0.942
	c-0.388,0.553-0.771,1.1-1.15,1.645c-0.197,0.283-0.396,0.566-0.59,0.847c-0.435,0.628-0.862,1.249-1.285,1.867
	c-0.129,0.188-0.26,0.377-0.387,0.563c-0.554,0.811-1.098,1.612-1.63,2.403c-0.073,0.109-0.143,0.214-0.216,0.322
	c-0.451,0.67-0.895,1.333-1.329,1.986c-0.169,0.254-0.333,0.503-0.5,0.755c-0.333,0.503-0.664,1.003-0.987,1.495
	c-0.18,0.274-0.356,0.543-0.533,0.814c-0.303,0.463-0.601,0.92-0.894,1.372c-0.174,0.269-0.348,0.536-0.519,0.801
	c-0.289,0.448-0.573,0.889-0.853,1.325c-0.158,0.246-0.317,0.493-0.471,0.735c-0.299,0.467-0.588,0.922-0.874,1.374
	c-0.122,0.193-0.248,0.39-0.368,0.58c-0.401,0.635-0.792,1.256-1.167,1.856c-0.006,0.01-0.012,0.02-0.018,0.03
	c-3.274,5.102-4.186,9.56-4.098,13.078c0,0.001,0,0.003,0,0.003c0.016,0.64,0.065,1.248,0.139,1.824
	c0.111,0.863,0.279,1.652,0.474,2.362c2.135,7.747,8.866,11.254,9.626,11.63c0.06,0.029,0.12,0.058,0.181,0.086l39.492,18.159
	c2.019,0.928,3.997,1.592,5.918,2.006c0.663,0.143,1.323,0.265,1.972,0.345c0.262,0.033,0.521,0.051,0.781,0.074
	c0.158,0.014,0.318,0.035,0.475,0.045c0.21,0.013,0.416,0.013,0.623,0.02c0.204,0.006,0.41,0.02,0.612,0.02l0,0h0.001
	c0.156,0,0.3-0.02,0.454-0.023c10.558-0.25,15.662-8.941,17.022-13.945c0.017-0.054,0.032-0.108,0.047-0.163
	c0.385-1.378,0.777-2.744,1.172-4.101c0.131-0.45,0.265-0.896,0.398-1.343c4.636-15.672,10.395-31.345,17.035-46.385
	c0.848,6.965,2.713,13.944,5.459,20.39c0.054,0.125,0.112,0.249,0.166,0.375c0.374,0.863,0.766,1.719,1.173,2.572
	c0.119,0.248,0.238,0.496,0.359,0.744c0.474,0.961,0.96,1.918,1.478,2.864l1.36,2.487L225.817,305.178z M350.321,266.877
	c-0.829,0.813-2.111,1.638-3.736,2.385c-0.283,0.13-40.004,18.397-40.42,18.587c-0.1,0.018-0.351,0.037-0.489,0.018
	c-0.159,0-0.528-0.128-0.874-0.417c-0.096-0.084-0.09-0.062-0.33-0.337c-0.742-0.883-1.306-2.358-1.638-3.467
	c0,0-0.718-2.518-1.25-4.335c-0.294-1-0.791-2.669-1.259-4.203c-0.128-0.418-0.255-0.835-0.383-1.25
	c-0.367-1.186-0.736-2.365-1.109-3.533c-0.05-0.156-0.099-0.314-0.149-0.471c-0.424-1.321-0.853-2.63-1.285-3.928
	c-0.121-0.364-0.243-0.723-0.364-1.085c-0.322-0.958-0.645-1.91-0.97-2.855c-0.137-0.398-0.274-0.796-0.412-1.191
	c-0.362-1.041-0.726-2.073-1.091-3.099c-0.081-0.225-0.16-0.452-0.24-0.676c-0.445-1.242-0.893-2.47-1.343-3.687
	c-0.115-0.309-0.229-0.614-0.344-0.922c-0.343-0.921-0.688-1.836-1.033-2.743c-0.141-0.372-0.283-0.742-0.424-1.111
	c-0.353-0.92-0.707-1.831-1.063-2.736c-0.105-0.269-0.21-0.54-0.315-0.806c-0.455-1.154-0.912-2.295-1.368-3.422
	c-0.097-0.238-0.193-0.472-0.29-0.709c-0.365-0.896-0.73-1.785-1.096-2.664c-0.141-0.339-0.281-0.675-0.422-1.012
	c-5.431-12.973-11.513-25.665-18.148-37.731c5.122,0,8.884,0.357,14.007-1.595c0.13-0.049,0.258-0.101,0.387-0.152
	c0.247-0.099,0.491-0.2,0.734-0.307c0.152-0.066,0.302-0.135,0.453-0.205c0.21-0.097,0.419-0.197,0.626-0.3
	c0.177-0.088,0.352-0.178,0.526-0.27c0.171-0.09,0.34-0.183,0.509-0.277c0.202-0.113,0.402-0.228,0.601-0.346
	c0.13-0.078,0.26-0.158,0.389-0.239c0.228-0.142,0.455-0.286,0.678-0.435c0.086-0.058,0.171-0.118,0.256-0.176
	c0.258-0.177,0.513-0.356,0.764-0.543c0.035-0.026,0.07-0.054,0.105-0.08c1.233-0.928,2.385-1.969,3.428-3.123l3.437,1.687
	c21.859,18.894,41.966,48.097,53.148,65.835c0.682,1.082,1.335,2.126,1.949,3.119c0.02,0.033,0.04,0.065,0.06,0.098l0.234,0.376
	c0.202,0.373,0.895,1.778,0.536,2.903C351.152,265.906,350.818,266.389,350.321,266.877z M412.911,399.737
	c-7.138,0-13.697-3.884-17.117-10.135c-7.092-12.964,2.346-28.843,17.07-28.843c7.137,0,13.695,3.884,17.117,10.136
	C437.063,383.838,427.663,399.737,412.911,399.737z"/>
<g>
</g>
<g>
</g>
<g>
</g>
<g>
</g>
<g>
</g>
<g>
</g>
<g>
</g>
<g>
</g>
<g>
</g>
<g>
</g>
<g>
</g>
<g>
</g>
<g>
</g>
<g>
</g>
<g>
</g>
</svg>
