<?xml version="1.0" encoding="iso-8859-1"?>
<!-- Generator: Adobe Illustrator 19.0.0, SVG Export Plug-In . SVG Version: 6.00 Build 0)  -->
<svg version="1.1" id="Capa_1" xmlns="http://www.w3.org/2000/svg" xmlns:xlink="http://www.w3.org/1999/xlink" x="0px" y="0px"
	 viewBox="0 0 512 512" style="enable-background:new 0 0 512 512;" xml:space="preserve">
<path style="fill:#EFEDEE;" d="M317.765,39.588c-4.031-12.315-13.564-22.083-25.822-26.284C282.76,10.156,270.666,7.5,256,7.5
	c-14.667,0-26.76,2.656-35.943,5.803c-12.258,4.201-21.791,13.969-25.822,26.284L181.151,79.56h149.698L317.765,39.588z"/>
<path style="fill:#D2D2D2;" d="M319.357,44.451C300.758,39.574,279.667,36.5,256,36.5s-44.759,3.074-63.358,7.951l-11.491,35.108
	h149.698L319.357,44.451z"/>
<path style="fill:#EFEDEE;" d="M403.126,146.495c-2.622-16.165-11.314-30.724-24.335-40.655C356.376,88.746,315.731,66.5,256,66.5
	s-100.376,22.246-122.791,39.34c-13.022,9.93-21.713,24.49-24.335,40.655L90.313,260.91h331.374L403.126,146.495z"/>
<g>
	<path style="fill:#85E7FF;" d="M163.818,162.968c-10.622,5.466-22.811,12.289-29.149,15.885c-2.684,1.523-4.336,4.368-4.336,7.454
		v43.088L155.5,235l20.814-33.85v-30.554C176.314,164.178,169.525,160.032,163.818,162.968z"/>
	<path style="fill:#85E7FF;" d="M348.181,162.968c10.622,5.466,22.811,12.289,29.149,15.885c2.684,1.523,4.336,4.368,4.336,7.454
		v43.088L356.5,235l-20.814-33.85v-30.554C335.685,164.178,342.475,160.032,348.181,162.968z"/>
	<path style="fill:#85E7FF;" d="M294.442,158.188c-0.702-9.304-7.76-16.956-17.006-18.206c-7.294-0.986-14.442-1.482-21.436-1.482
		c-6.994,0-14.142,0.496-21.436,1.482c-9.247,1.25-16.305,8.902-17.006,18.206l-2.022,26.81h80.928L294.442,158.188z"/>
</g>
<path style="fill:#D2D2D2;" d="M256,153.5c-34.587,0-73.735,13.36-116.359,39.708c-15.719,9.717-30.335,20.214-43.264,30.32
	l-6.064,37.381h331.374l-6.064-37.381c-12.93-10.107-27.546-20.604-43.264-30.32C329.735,166.86,290.587,153.5,256,153.5z"/>
<path style="fill:#3A484A;" d="M256,248.33c-70.02,0-148.23,58.98-189.46,94.99c13.51,71.55,55.31,125.18,55.31,125.18H256
	l30.089-140L256,248.33z"/>
<path style="fill:#465759;" d="M445.46,343.32c-13.51,71.55-55.31,125.18-55.31,125.18H256V248.33
	C326.02,248.33,404.23,307.31,445.46,343.32z"/>
<path style="fill:#57D0E6;" d="M433.5,424.598L433.5,424.598c-22.656,9.783-48.344,9.783-71,0l0,0c-22.656-9.783-48.344-9.783-71,0
	l0,0c-22.656,9.783-48.344,9.783-71,0l0,0c-22.656-9.783-48.344-9.783-71,0l0,0c-22.656,9.783-48.344,9.783-71,0l0,0
	c-22.656-9.783-48.344-9.783-71,0V504.5h497v-79.902C481.844,414.815,456.156,414.815,433.5,424.598z"/>
<path style="fill:#E34B4C;" d="M256,178.5c-68.91,0-146.81,64.63-178.55,93.9c-9.89,9.11-15.42,22.08-14.94,35.52
	c0.44,12.16,1.87,24.01,4.03,35.4c41.23-36.01,119.44-94.99,189.46-94.99l26-35.83L256,178.5z"/>
<path style="fill:#FD6F71;" d="M449.49,307.92c-0.44,12.16-1.87,24.01-4.03,35.4c-41.23-36.01-119.44-94.99-189.46-94.99V178.5
	c68.91,0,146.81,64.63,178.55,93.9C444.44,281.51,449.97,294.48,449.49,307.92z"/>
<g>
	<path style="fill:#57D0E6;" d="M372.359,193.209c-12.535-7.749-24.767-14.365-36.674-19.858v27.799L356.5,235l25.167-5.604v-30.263
		C378.611,197.133,375.508,195.155,372.359,193.209z"/>
	<path style="fill:#57D0E6;" d="M217.531,158.532l-1.996,26.466h80.928l-1.996-26.466c-13.363-3.343-26.204-5.032-38.468-5.032
		C243.736,153.5,230.895,155.189,217.531,158.532z"/>
	<path style="fill:#57D0E6;" d="M176.314,201.15v-27.799c-11.906,5.492-24.138,12.108-36.674,19.857
		c-3.153,1.949-6.248,3.936-9.307,5.938v30.249L155.5,235L176.314,201.15z"/>
</g>
<path style="fill:#FD6F71;" d="M434.55,272.4c-31.74-29.27-109.64-93.9-178.55-93.9s-146.81,64.63-178.55,93.9
	c-9.89,9.11-15.42,22.08-14.94,35.52c0.44,12.16,1.87,24.01,4.03,35.4c41.23-36.01,119.44-94.99,189.46-94.99
	s148.23,58.98,189.46,94.99c2.16-11.39,3.59-23.24,4.03-35.4C449.97,294.48,444.44,281.51,434.55,272.4z"/>
<circle cx="218" cy="314.5" r="13.333"/>
<circle cx="294" cy="314.5" r="13.333"/>
<path d="M197.812,117.701c4.142,0,7.5-3.358,7.5-7.5V99.67c0-4.142-3.358-7.5-7.5-7.5s-7.5,3.358-7.5,7.5v10.531
	C190.312,114.343,193.67,117.701,197.812,117.701z"/>
<path d="M314.188,117.701c4.142,0,7.5-3.358,7.5-7.5V99.67c0-4.142-3.358-7.5-7.5-7.5s-7.5,3.358-7.5,7.5v10.531
	C306.688,114.343,310.046,117.701,314.188,117.701z"/>
<path d="M256,123.322c7.762,0,15.054-3.25,20.008-8.918c2.726-3.119,2.408-7.857-0.711-10.583s-7.857-2.408-10.583,0.711
	c-2.105,2.408-5.281,3.79-8.714,3.79s-6.609-1.381-8.715-3.79c-2.726-3.119-7.464-3.437-10.583-0.71s-3.437,7.464-0.71,10.583
	C240.946,120.072,248.239,123.322,256,123.322z"/>
<path d="M7.5,512h497c4.142,0,7.5-3.358,7.5-7.5v-79.902c0-2.993-1.779-5.699-4.527-6.886c-12.219-5.276-25.164-7.952-38.473-7.952
	s-26.254,2.676-38.473,7.952c-0.73,0.315-1.47,0.594-2.206,0.888c11.648-24.6,19.881-49.383,24.507-73.879
	c0-0.001,0-0.002,0.001-0.003c2.324-12.255,3.723-24.544,4.157-36.53c0.556-15.578-5.77-30.633-17.351-41.302
	c-3.17-2.923-6.855-6.245-10.977-9.845L410.53,145.294c-2.946-18.164-12.603-34.293-27.19-45.418
	c-11.543-8.803-26.989-18.402-46.487-26.086l-11.958-36.536c-4.753-14.52-16.162-26.125-30.519-31.046
	C282.355,2.089,269.444,0,256,0c-13.445,0-26.356,2.089-38.375,6.208c-14.358,4.92-25.767,16.526-30.519,31.046L175.148,73.79
	c-19.498,7.684-34.944,17.283-46.487,26.086C114.073,111,104.416,127.13,101.47,145.294L83.342,257.042
	c-4.121,3.599-7.803,6.919-10.973,9.842c-11.585,10.671-17.91,25.726-17.354,41.309c0.434,11.981,1.833,24.271,4.157,36.526
	c0,0.001,0.001,0.002,0.001,0.003c4.626,24.497,12.858,49.28,24.506,73.878c-0.736-0.293-1.476-0.572-2.206-0.887
	C69.254,412.436,56.31,409.76,43,409.76s-26.254,2.676-38.473,7.952C1.78,418.899,0,421.605,0,424.598V504.5
	C0,508.642,3.358,512,7.5,512z M441.995,307.649c-0.254,7.005-0.86,14.128-1.811,21.291c-9.456-7.916-19.177-15.598-29.096-22.927
	c-3.223-2.382-8.055-1.719-10.489,1.574c-2.462,3.332-1.757,8.028,1.574,10.489c11.769,8.697,34.822,27.84,35.084,28.066
	c-5.299,25.679-14.769,51.722-28.191,77.526c-0.653,0.088-1.305,0.177-1.96,0.25c-14.331,1.591-28.83-0.739-42.076-6.391
	c-12.09-5.151-24.881-7.768-38.031-7.768c-13.065,0-25.777,2.584-37.797,7.67c-8.229,3.482-16.789,5.84-25.703,6.648
	c0,0,0-167.977,0-168.008c20.167-1.191,43.497,8.339,61.605,16.174c16.503,7.14,32.348,15.903,47.516,25.543
	c2.845,1.799,6.668,1.434,9.124-0.863c3.503-3.276,2.965-9.239-1.104-11.814c-17.351-10.977-35.419-20.833-54.416-28.66
	c-19.946-8.201-41.107-14.222-62.725-15.413V186.29c0.465,0.033,1.598,0.105,1.702,0.114c9.203,0.785,18.951,2.716,29.097,5.775
	c0.044,0.013,0.089,0.017,0.133,0.029c51.191,14.22,96.578,50.28,135.036,85.708C437.829,285.618,442.395,296.457,441.995,307.649z
	 M277.228,172.816c-14.039-2.299-28.188-2.337-42.23-0.038c-0.054,0.009-0.107,0.018-0.161,0.027
	c-3.624,0.592-7.298,1.315-11.026,2.198l1.226-16.251c0.437-5.804,4.866-10.572,10.531-11.337c13.577-1.834,27.286-1.835,40.863,0
	c5.666,0.766,10.095,5.534,10.533,11.338l1.226,16.251C284.483,174.126,280.831,173.406,277.228,172.816z M201.363,41.92
	c3.296-10.073,11.194-18.119,21.126-21.522C232.939,16.816,244.214,15,256,15c11.786,0,23.061,1.816,33.512,5.398
	c9.931,3.404,17.829,11.45,21.126,21.522l8.447,25.809c-11.678-3.403-24.53-6.03-38.579-7.476
	c-16.227-1.67-32.508-1.556-48.738-0.028c-0.092,0.01-0.185,0.019-0.277,0.029c-14.048,1.446-26.899,4.072-38.577,7.475
	L201.363,41.92z M116.277,147.696c2.329-14.358,9.957-27.105,21.481-35.892c27.553-21.009,60.46-32.542,94.661-36.566
	c0.012-0.001,0.025-0.002,0.038-0.004c15.57-1.796,31.509-1.66,47.086,0c0.014,0.001,0.028,0.002,0.042,0.004
	c34.077,3.65,67.31,15.709,94.66,36.566c11.522,8.787,19.15,21.533,21.479,35.892l15.343,94.58
	c-6.689-5.38-14.036-11.029-21.899-16.693v-39.274c0-5.774-3.117-11.13-8.134-13.978c-5.076-2.88-18.104-10.209-29.418-16.031
	c-2.312-1.189-4.784-1.792-7.348-1.792c-8.866,0-16.08,7.217-16.08,16.089v18.65c-8.094-3.733-16.329-7.057-24.62-9.808
	l-1.645-21.814c-0.967-12.821-10.842-23.366-23.48-25.075C270.834,131.521,263.284,131,256,131s-14.834,0.521-22.441,1.549
	c-12.639,1.709-22.514,12.255-23.48,25.075l-1.644,21.813c-8.291,2.751-16.526,6.075-24.62,9.808v-18.65
	c0-8.872-7.213-16.089-16.08-16.089c-2.564,0-5.037,0.603-7.348,1.792c-11.324,5.827-24.346,13.152-29.42,16.032
	c-5.017,2.848-8.133,8.204-8.133,13.977v39.275c-7.863,5.664-15.21,11.313-21.899,16.692L116.277,147.696z M343.186,196.606v-26.01
	c0-0.814,0.741-1.089,1.08-1.089c0.156,0,0.315,0.042,0.485,0.13c11.068,5.695,23.883,12.904,28.878,15.739
	c0.336,0.191,0.538,0.539,0.538,0.932v28.845C363.647,208.181,353.278,201.972,343.186,196.606z M137.833,215.153v-28.845
	c0-0.387,0.207-0.744,0.538-0.932c4.993-2.833,17.802-10.039,28.879-15.739c0.172-0.089,0.327-0.13,0.485-0.13
	c0.338,0,1.08,0.274,1.08,1.089v26.01C158.723,201.972,148.354,208.18,137.833,215.153z M82.535,277.914
	c38.812-35.749,83.883-70.241,135.031-85.705c0.045-0.013,0.091-0.017,0.136-0.03c10.029-3.024,20.34-5.152,30.799-5.889v54.751
	c-21.143,1.172-41.84,7.005-61.384,14.941c-28.581,11.608-55.237,27.77-80.247,45.722c-11.739,8.427-23.19,17.289-34.26,26.578
	c-0.236,0.197-0.475,0.396-0.71,0.592c-0.027,0.023-0.055,0.046-0.083,0.069c-0.951-7.163-1.558-14.286-1.812-21.289
	C69.606,296.456,74.172,285.617,82.535,277.914z M74.741,346.137c0.104-0.09,0.206-0.179,0.311-0.268
	c12.476-10.678,25.311-20.952,38.603-30.6c25.903-18.803,53.5-35.743,83.49-47.207c16.442-6.285,33.727-10.923,51.355-11.99v168.007
	c-0.08-0.007-0.161-0.011-0.242-0.018c-8.513-0.798-16.89-2.969-24.747-6.333c-0.012-0.005-0.025-0.01-0.038-0.015
	c-12.219-5.277-25.164-7.952-38.474-7.952s-26.254,2.675-38.473,7.952c-12.608,5.445-26.483,7.602-40.151,6.357
	c-0.373-0.034-3.29-0.106-3.443-0.4C89.509,397.863,80.04,371.818,74.741,346.137z M15,429.684c8.98-3.269,18.377-4.923,28-4.923
	c23.345,0,43.323,13.529,66.589,14.571c0.073,0.003,0.145,0.005,0.217,0.008c14.621,0.591,29.224-2.052,42.667-7.856
	c20.616-8.902,44.441-8.901,65.054,0c24.376,10.526,52.577,10.523,76.946,0c0.042-0.018,0.085-0.033,0.127-0.051
	c20.6-8.854,44.2-8.854,64.8,0c0.042,0.018,0.085,0.033,0.127,0.051c24.371,10.485,52.591,10.518,76.946,0
	c19.07-8.235,41.005-8.906,60.527-1.8V497H15V429.684z"/>
<g>
</g>
<g>
</g>
<g>
</g>
<g>
</g>
<g>
</g>
<g>
</g>
<g>
</g>
<g>
</g>
<g>
</g>
<g>
</g>
<g>
</g>
<g>
</g>
<g>
</g>
<g>
</g>
<g>
</g>
</svg>
