<?xml version="1.0" encoding="utf-8"?>
<!-- Generator: Adobe Illustrator 22.1.0, SVG Export Plug-In . SVG Version: 6.00 Build 0)  -->
<svg version="1.1" id="Capa_1" xmlns="http://www.w3.org/2000/svg" xmlns:xlink="http://www.w3.org/1999/xlink" x="0px" y="0px"
	 viewBox="0 0 512 512" style="enable-background:new 0 0 512 512;" xml:space="preserve">
<style type="text/css">
	.st0{fill:#77A9F2;}
	.st1{fill:#448AFF;}
	.st2{fill:#E2EDF3;}
	.st3{fill:#ACC7D3;}
	.st4{fill:#FFCB57;}
	.st5{fill:#FE7914;}
	.st6{fill:#FF3900;}
	.st7{fill:#BF2B00;}
	.st8{fill:#FA852D;}
	.st9{fill:#FFFFFF;}
</style>
<g>
	<path class="st0" d="M500.4,430.9c-4.6-1.1-8.6-3.7-11.7-7.3l-3.4-4c-1.4-1.6-3.9-1.6-5.3,0l-3.4,4c-1.9,8.3-9.3,14.1-17.7,13.9
		c-8.1-0.2-15.1-5.9-16.9-13.9l-3.4-4c-0.8,1.3-1.5,2.7-2.3,4c-1.3,0.8-2.6,1.7-3.8,2.5c-102.2,0.1-204.4,0.1-306.7,0.2
		c-1.6-0.7-3.1-1.4-4.7-2.2c-0.6,1.5-3.7,8.8-11,11.3c-8.4,2.9-19.2-1.7-24.8-11.8l-3.4-4c-1.4-1.6-3.9-1.6-5.3,0l-3.4,4
		c-2.7,7.5-9.9,12.4-17.8,12.2c-7.5-0.2-14.3-5.1-16.9-12.2l-3.4-4c-1.4-1.6-3.9-1.6-5.3,0l-3.4,4c-0.3,1.2-1.6,6.1-6.5,9.4
		c-5,3.4-10.1,2.8-11.3,2.6v62.2c0,2.3,1.9,4.2,4.2,4.2h489.6c2.3,0,4.2-1.9,4.2-4.2v-62.2c0-1.9-1.3-3.6-3.2-4L500.4,430.9z"/>
	<path class="st1" d="M502.3,465.7H12.7c-2.3,0-4.2-1.9-4.2-4.2v36.3c0,2.3,1.9,4.2,4.2,4.2h489.6c2.3,0,4.2-1.9,4.2-4.2v-36.3
		C506.5,463.9,504.6,465.7,502.3,465.7z"/>
</g>
<path d="M505.1,433.3c-8.8,0.1-16-6.5-16-14.6c0-2-0.6-3.5-1.4-4.5c-1.8-2.2-4.8-2.4-5.4-2.5c-0.9-0.1-3.7-0.3-6,1.8
	c-2.1,1.9-2.2,4.6-2.3,5.1c-0.1,1.9-0.5,4.7-2,7.5c-2.6,4.8-8.7,10.5-15.8,10c-7.7-0.6-14.6-7.8-15.1-17.4c-2.1-2.1-5-2.9-7.7-2.1
	c-2.6,0.8-3.9,2.9-4.2,3.5c-1.9,3.2-4.2,3.6-5.7,4.1c-0.5,0.1-1,0.3-6.4,0.2c-1.7,0-3.1-0.1-4-0.1c-0.2,0-0.4,0-0.6,0.1
	c-2.1,0.5-3.7,4-3,6.9c0.6,2.5,2.6,4.1,4.3,4.6c0.6,0.2,1.1,0.3,1.6,0.3c1.6,0.2,2.9,0,4.3-0.2c2-0.4,4.5-0.9,7.4-2.5
	c3-1.6,5.2-3.4,6.6-4.9c4.2,10.5,13.7,17.7,24.5,18.5c13.6,1,22.4-8.8,23.4-9.9c4.1,4.4,9.6,7.6,15.9,9.1v51.2H15.5v-51.2
	c6.3-1.5,11.8-4.7,15.9-9.1c5.7,6.1,14,9.9,23.4,9.9c9.3,0,17.7-3.9,23.4-9.9c5.7,6.1,14,9.9,23.4,9.9c7.1,0,14-2.3,19.4-6.4
	c4.5-2.9,5.8-8.4,3.7-11.9c-1.4-2.4-4.4-3.7-7.5-3.7c-8.1,8.6-13.4,8.4-15.6,8c-6.2-1.2-15.9-8.2-15.9-14.7c0-3.5-3-6.6-6.8-6.9
	c-4.5-0.4-8.2,2.9-8.2,6.9c0,8.1-7.1,14.7-15.9,14.7c-8.7,0-15.9-6.6-15.9-14.7c0-3.5-3-6.6-6.8-6.9c-4.5-0.4-8.2,2.9-8.2,6.9
	c0,8.1-7,14.6-15.7,14.7c-4.2,0-7.7,3.1-7.7,7v64.3c0,3.8,3.4,7,7.5,7h497c4.2,0,7.5-3.1,7.5-7v-64.2
	C512.5,436.5,509.2,433.3,505.1,433.3z"/>
<polygon class="st2" points="429.7,406 109.4,406 79.6,368.5 79.6,355.9 299.8,355.9 339.9,381 442.6,381 442.6,387.2 "/>
<polygon class="st3" points="299.8,355.9 79.6,355.9 79.6,368.5 84.5,374.7 329.9,374.7 "/>
<rect x="211" y="374.7" width="12.5" height="11.7"/>
<rect x="236.1" y="374.7" width="12.5" height="11.7"/>
<polygon class="st4" points="367.5,330.9 198.5,330.9 198.5,30.5 211,30.5 257.7,118.2 261,124.4 367.5,324.6 "/>
<polygon class="st5" points="211,30.5 198.5,30.5 198.5,330.9 217.3,330.9 217.3,42.2 "/>
<polygon class="st6" points="54.5,330.9 198.5,330.9 198.5,55.5 186.4,55.5 54.5,318.4 "/>
<polygon class="st7" points="198.5,68.7 198.5,55.5 186.4,55.5 54.5,318.4 54.5,330.9 73.3,330.9 73.3,318.4 "/>
<polygon class="st6" points="284.8,168.2 198.5,167.9 198.5,205.7 304.9,206 "/>
<polygon class="st7" points="217.3,167.4 198.5,167.3 198.5,204.9 217.3,205 "/>
<polygon class="st2" points="305.1,205.7 198.5,205.4 198.5,243.3 325.3,243.6 "/>
<polygon class="st3" points="217.3,204.9 198.5,204.9 198.5,242.5 217.3,242.5 "/>
<polygon class="st4" points="73.4,280.8 198.5,280.8 198.5,243.3 92.2,243.3 "/>
<polygon class="st8" points="91.8,280.8 110.6,243.3 91.8,243.3 73,280.8 "/>
<polygon class="st4" points="198.5,143.1 142.4,143.1 129.9,168.2 198.5,168.2 "/>
<polygon class="st8" points="142,143.1 133.3,160.6 129.5,168.2 148.3,168.2 160.8,143.1 "/>
<path d="M204,173.6h-84l18.4-36.8H204V173.6z M139,161.9h53.3v-13.3h-46.6L139,161.9z"/>
<polygon class="st6" points="442.6,381 405.1,381 417.6,355.9 442.6,355.9 "/>
<path d="M413.6,349.7l-12.5,25h-59.9l-40-25H204v-13.3h169v-13.6L266.1,121.1l-10.3,5.5l18.9,35.2l-70.6-0.2V35.9h3.1l42.2,78.7
	l10.3-5.5l-45.5-84.9H204V10.9h-11.7v13.3v25h-9.9L48.9,315.4l-0.6,1.2v19.8h37.6v-11.7H60v-5.3l16.6-33.1h115.6v38.3H98.4v11.7
	h93.9v13.3H73.3v20.4l32.9,41.4h267.6v-11.7H111.8l-10.6-13.3h97.2v-11.7H92.1v0.2l-7-8.9v-4.6h212.7l40,25h97.6l-9.2,13.3h-39.9
	v11.7h46.1l15.8-22.8v-2.2v-36.8H413.6z M204,173.4l76.9,0.2l13.7,25.8l-90.6-0.3V173.4z M204,237v-25.8l97.2,0.3l13.6,25.8L204,237
	L204,237z M204,248.8l116.9,0.3l39.8,75.6H204V248.8z M189.6,61h2.7v100.9H139L189.6,61z M110.1,219.4l23-45.8h59.1V205v0.3V237
	h-90.9L110.1,219.4z M82.5,274.6l4.8-9.5l8.2-16.3h96.8v25.8H82.5z M414.2,374.7l6.7-13.3h15.5v13.3H414.2z M416.1,436.3
	c-94.1,0-188.3,0-282.4,0v-11.9h290.4C421.4,428.4,418.7,432.4,416.1,436.3z M101.2,405.6c7.5,9,14.9,17.9,22.4,26.9
	c0.4,0.6,1,1.7,2.2,2.4c0.4,0.2,1.1,0.6,2.9,1c1.2,0.2,2.8,0.5,4.9,0.4c0-4,0-7.9,0-11.9c-0.5-0.1-1-0.2-1.5-0.2
	c-7.3-8.8-14.6-17.5-21.9-26.3C107.3,400.5,104.2,403,101.2,405.6z"/>
<rect x="348.7" y="61.8" width="62.6" height="11.7"/>
<rect x="423.8" y="61.8" width="12.5" height="11.7"/>
<rect x="386.3" y="205.7" width="37.6" height="11.7"/>
<rect x="436.4" y="205.7" width="12.5" height="11.7"/>
<rect x="311.2" y="136.9" width="62.6" height="11.7"/>
<rect x="386.3" y="136.9" width="12.5" height="11.7"/>
<g>
	<rect x="242.3" y="274.6" class="st9" width="12.5" height="11.7"/>
	<rect x="267.4" y="274.6" class="st9" width="12.5" height="11.7"/>
	<rect x="292.4" y="274.6" class="st9" width="12.5" height="11.7"/>
</g>
</svg>
