<?xml version="1.0" encoding="utf-8"?>
<!-- Generator: Adobe Illustrator 22.1.0, SVG Export Plug-In . SVG Version: 6.00 Build 0)  -->
<svg version="1.1" id="Capa_1" xmlns="http://www.w3.org/2000/svg" xmlns:xlink="http://www.w3.org/1999/xlink" x="0px" y="0px"
	 viewBox="0 0 512 512" style="enable-background:new 0 0 512 512;" xml:space="preserve">
<style type="text/css">
	.st0{fill:#448AFF;}
	.st1{fill:#F3F1F1;}
	.st2{fill:#62D97B;}
	.st3{fill:#33D146;}
	.st4{fill:#FFC44F;}
	.st5{fill:#FFB357;}
</style>
<path class="st0" d="M360,16c-83.8,0-152,68.2-152,152s68.2,152,152,152s152-68.2,152-152S443.8,16,360,16z"/>
<path class="st1" d="M450.4,192.8l-13.7-10.3c4.6-9,7.3-19.4,7.3-30.5c0-33.1-23.3-60-52-60s-52,26.9-52,60s23.3,60,52,60
	c11,0,21.2-4,29.7-10.8L436,212c3.5,2.7,8.5,1.9,11.2-1.6l4.8-6.4C454.7,200.5,453.9,195.5,450.4,192.8z M392,188
	c-15.4,0-28-16.1-28-36s12.6-36,28-36s28,16.1,28,36c0,5.7-1,11.1-2.9,15.9L412,164c-3.5-2.7-8.5-1.9-11.2,1.6L396,172
	c-2.7,3.5-1.9,8.5,1.6,11.2l3.7,2.8C398.4,187.3,395.3,188,392,188z"/>
<path class="st2" d="M152,16C68.2,16,0,84.2,0,168s68.2,152,152,152s152-68.2,152-152S235.8,16,152,16z"/>
<path class="st3" d="M176,312c-83.8,0-152-68.2-152-152c0-62.6,38-116.5,92.2-139.7C49.6,36.4,0,96.5,0,168c0,83.8,68.2,152,152,152
	c21.2,0,41.4-4.4,59.8-12.3C200.3,310.5,188.3,312,176,312z"/>
<path class="st1" d="M180,116v-8c0-4.4-3.6-8-8-8h-68c-6.6,0-12,5.4-12,12v96c0,4.4,3.6,8,8,8h8c4.4,0,8-3.6,8-8v-36h40
	c4.4,0,8-3.6,8-8v-8c0-4.4-3.6-8-8-8h-40v-24h56C176.4,124,180,120.4,180,116z"/>
<path class="st4" d="M256,176c-83.8,0-152,68.2-152,152c0,42,17.4,82.1,48,110.8l-15.6,46.7c-2.2,6.5,4.7,12.6,10.9,9.8l55.1-25
	c17.1,6.5,35.2,9.7,53.6,9.7c83.8,0,152-68.2,152-152S339.8,176,256,176z"/>
<path class="st5" d="M160.4,485.5l15.6-46.7c-30.5-28.7-48-68.8-48-110.8c0-79.8,61.8-145.4,140-151.5c-4-0.3-8-0.5-12-0.5
	c-83.8,0-152,68.2-152,152c0,42,17.4,82.1,48,110.8l-15.6,46.7c-2.2,6.5,4.7,12.6,10.9,9.8l12.9-5.8
	C159.9,488.2,160,486.8,160.4,485.5z"/>
<path class="st1" d="M305.8,380.5l7.2-3.6c4-2,5.6-6.8,3.6-10.7L300,332h-0.6l-32.7-65.4c-2.3-4.7-7.5-7.4-12.8-6.5
	c-3.8,0.7-7,3.3-8.8,6.8L212,332v1.2l-16.5,33c-2,4-0.4,8.8,3.6,10.7l7.2,3.6c4,2,8.8,0.4,10.7-3.6l10.5-20.9h57.2l10.5,20.9
	C297,380.9,301.8,382.5,305.8,380.5z M239.4,332l16.6-33.2l16.6,33.2H239.4z"/>
</svg>
