<?xml version="1.0" encoding="iso-8859-1"?>
<!-- Generator: Adobe Illustrator 19.0.0, SVG Export Plug-In . SVG Version: 6.00 Build 0)  -->
<svg version="1.1" id="Capa_1" xmlns="http://www.w3.org/2000/svg" xmlns:xlink="http://www.w3.org/1999/xlink" x="0px" y="0px"
	 viewBox="0 0 512 512" style="enable-background:new 0 0 512 512;" xml:space="preserve">
<path style="fill:#424C59;" d="M356.241,512h-61.373c-4.28,0-7.75-3.47-7.75-7.75s3.47-7.75,7.75-7.75h61.373
	c47.208,0,85.614-38.406,85.614-85.613v-32.221c0-4.28,3.47-7.75,7.75-7.75s7.75,3.47,7.75,7.75v32.221
	C457.353,466.641,411.994,512,356.241,512z"/>
<path style="fill:#F9572B;" d="M380.037,96.098h-0.093c-12.761,0-25.098-4.247-35.39-11.8
	c-24.799-18.206-55.425-28.963-88.552-28.963c-15.789,0-31.009,2.439-45.289,6.975h-0.01c-15.696,4.97-30.275,12.461-43.253,21.988
	c-10.291,7.553-22.629,11.8-35.39,11.8h-0.103c-16.336,0-24.675-19.767-13.154-31.339c20.934-21.027,46.673-37.27,75.44-46.942
	c19.395-6.53,40.164-10.064,61.759-10.064c53.462,0,101.861,21.668,136.899,56.706c0.093,0.093,0.186,0.186,0.279,0.289
	C404.712,76.321,396.384,96.098,380.037,96.098z"/>
<path style="fill:#D8401D;" d="M210.703,62.31c-15.696,4.97-30.275,12.461-43.253,21.988c-10.291,7.553-22.629,11.8-35.39,11.8
	h-0.103c-16.336,0-24.675-19.767-13.154-31.339c20.934-21.027,46.673-37.27,75.44-46.942C166.975,31.818,181.792,62.3,210.703,62.31
	z"/>
<path style="fill:#424C59;" d="M449.604,262.517c-4.28,0-7.75-3.47-7.75-7.75v-53.412c0-102.482-83.374-185.856-185.856-185.856
	c-102.483,0-185.857,83.374-185.857,185.856v53.412c0,4.28-3.47,7.75-7.75,7.75s-7.75-3.47-7.75-7.75v-53.412
	C54.641,90.327,144.969,0,255.997,0s201.357,90.327,201.357,201.355v53.412C457.353,259.048,453.884,262.517,449.604,262.517z"/>
<path style="fill:#242C35;" d="M141.43,223.765v162.649c0,0.878-0.041,1.757-0.124,2.614c-1.312,15.923-14.652,28.426-30.916,28.426
	H93.434c-17.142,0-31.04-13.898-31.04-31.04V223.765c0-15.2,10.932-27.857,25.367-30.513c1.839-0.351,3.74-0.527,5.673-0.527h16.956
	C127.532,192.726,141.43,206.623,141.43,223.765z"/>
<path style="fill:#424C59;" d="M141.43,223.765v162.649c0,0.878-0.041,1.757-0.124,2.614c-1.839,0.351-3.73,0.527-5.662,0.527
	h-16.966c-17.142,0-31.04-13.898-31.04-31.04V195.867c0-0.878,0.041-1.757,0.124-2.614c1.839-0.351,3.74-0.527,5.673-0.527h16.956
	C127.532,192.726,141.43,206.623,141.43,223.765z"/>
<path style="fill:#242C35;" d="M401.601,192.729h16.963c17.142,0,31.039,13.897,31.039,31.04v162.649
	c0,17.142-13.897,31.04-31.039,31.04h-16.963c-17.142,0-31.039-13.897-31.039-31.04v-162.65
	C370.561,206.625,384.459,192.729,401.601,192.729z"/>
<path style="fill:#424C59;" d="M449.604,223.767v162.649c0,0.878-0.041,1.757-0.124,2.614c-1.839,0.351-3.73,0.527-5.662,0.527
	h-16.966c-17.142,0-31.04-13.898-31.04-31.04V195.869c0-0.878,0.041-1.757,0.124-2.614c1.839-0.351,3.74-0.527,5.673-0.527h16.956
	C435.706,192.728,449.604,206.625,449.604,223.767z"/>
<path style="fill:#D8401D;" d="M62.394,223.724v162.731h-22.04c-20.717,0-37.508-16.791-37.508-37.508v-87.705
	c0-16.057,10.095-29.769,24.282-35.121c4.112-1.55,8.576-2.397,13.226-2.397L62.394,223.724L62.394,223.724z"/>
<path style="fill:#F9572B;" d="M62.394,223.724v136.362c-20.159-0.63-36.299-17.173-36.299-37.487v-87.705
	c0-3.027,0.362-5.962,1.033-8.773c4.112-1.55,8.576-2.397,13.226-2.397L62.394,223.724L62.394,223.724z"/>
<path style="fill:#D8401D;" d="M509.154,261.242v87.705c0,20.717-16.801,37.508-37.518,37.508h-22.03V223.724h22.03
	C492.353,223.724,509.154,240.525,509.154,261.242z"/>
<path style="fill:#F9572B;" d="M509.154,261.242v40.98c0,20.717-16.801,37.518-37.518,37.518h-22.03V223.724h22.03
	C492.353,223.724,509.154,240.525,509.154,261.242z"/>
<path style="fill:#FCC63F;" d="M268.02,463.404h24.247c13.419,0,24.298,10.878,24.298,24.298l0,0
	c0,13.419-10.878,24.298-24.298,24.298H268.02c-13.419,0-24.298-10.878-24.298-24.298l0,0
	C243.723,474.282,254.601,463.404,268.02,463.404z"/>
<g>
</g>
<g>
</g>
<g>
</g>
<g>
</g>
<g>
</g>
<g>
</g>
<g>
</g>
<g>
</g>
<g>
</g>
<g>
</g>
<g>
</g>
<g>
</g>
<g>
</g>
<g>
</g>
<g>
</g>
</svg>
