<?xml version="1.0" encoding="iso-8859-1"?>
<!-- Generator: Adobe Illustrator 19.0.0, SVG Export Plug-In . SVG Version: 6.00 Build 0)  -->
<svg version="1.1" id="Capa_1" xmlns="http://www.w3.org/2000/svg" xmlns:xlink="http://www.w3.org/1999/xlink" x="0px" y="0px"
	 viewBox="0 0 464 464" style="enable-background:new 0 0 464 464;" xml:space="preserve">
<path style="fill:#F46B27;" d="M464,168v-64H0v64c35.346,0,64,28.654,64,64s-28.654,64-64,64v64h464v-64c-35.346,0-64-28.654-64-64
	S428.654,168,464,168z M288,336h-16v-16h16V336z M288,304h-16v-16h16V304z M288,272h-16v-16h16V272z M288,240h-16v-16h16V240z
	 M288,208h-16v-16h16V208z M288,176h-16v-16h16V176z M288,144h-16v-16h16V144z"/>
<path style="fill:#E3540E;" d="M274,224h14v16h-16v-14L138,360h326v-64c-35.346,0-64-28.654-64-64s28.654-64,64-64v-64h-70L274,224z
	 M288,336h-16v-16h16V336z M288,304h-16v-16h16V304z M288,272h-16v-16h16V272z"/>
<g>
	<path style="fill:#CF4031;" d="M40,136h208v16H40V136z"/>
	<path style="fill:#CF4031;" d="M40,312h208v16H40V312z"/>
	<path style="fill:#CF4031;" d="M312,136h104v16H312V136z"/>
	<path style="fill:#CF4031;" d="M312,312h104v16H312V312z"/>
</g>
<g>
</g>
<g>
</g>
<g>
</g>
<g>
</g>
<g>
</g>
<g>
</g>
<g>
</g>
<g>
</g>
<g>
</g>
<g>
</g>
<g>
</g>
<g>
</g>
<g>
</g>
<g>
</g>
<g>
</g>
</svg>
